STARTFONT 2.1
COMMENT "Generated by fontforge, http://fontforge.sourceforge.net"
FONT -ibm-vio-medium-r-normal--16-150-120-120-c-120-ISO10646-1
SIZE 15 120 120
FONTBOUNDINGBOX 12 16 0 -4
STARTPROPERTIES 24
FOUNDRY "ibm"
FAMILYNAME "vio"
WEIGHT_NAME "medium"
SLANT "R"
SETWIDTH_NAME "Normal"
ADD_STYLE_NAME ""
PIXEL_SIZE 16
POINT_SIZE 150
RESOLUTION_X 120
RESOLUTION_Y 120
SPACING "C"
AVERAGE_WIDTH 12
CHARSET_REGISTRY "ISO10646"
CHARSET_ENCODING "1"
STRIKEOUT_ACCENT "5"
FACE_NAME "System VIO"
COPYRIGHT "IBM"
WEIGHT 10
X_HEIGHT 12
QUAD_WIDTH 12
DEFAULT_CHAR 32
FONT_DESCENT 4
FONT_ASCENT 12
_XMBDFED_INFO "Edited with xmbdfed 4.7."
ENDPROPERTIES
CHARS 901
STARTCHAR uni0001
ENCODING 1
SWIDTH 480 0
DWIDTH 12 0
BBX 12 16 0 -4
BITMAP
0000
0000
0F00
30C0
2040
48A0
59A0
4020
59A0
4F20
2040
30C0
0F00
0000
0000
0000
ENDCHAR
STARTCHAR uni0002
ENCODING 2
SWIDTH 480 0
DWIDTH 12 0
BBX 12 16 0 -4
BITMAP
0000
0000
0F00
3FC0
3FC0
7760
6660
7FE0
7FE0
6660
30C0
3FC0
0F00
0000
0000
0000
ENDCHAR
STARTCHAR uni0003
ENCODING 3
SWIDTH 480 0
DWIDTH 12 0
BBX 12 16 0 -4
BITMAP
0000
0000
0000
0000
1DC0
3FE0
3FE0
3FE0
1FC0
0F80
0700
0200
0000
0000
0000
0000
ENDCHAR
STARTCHAR uni0004
ENCODING 4
SWIDTH 480 0
DWIDTH 12 0
BBX 12 16 0 -4
BITMAP
0000
0000
0000
0200
0700
0F80
1FC0
3FE0
1FC0
0F80
0700
0200
0000
0000
0000
0000
ENDCHAR
STARTCHAR uni0005
ENCODING 5
SWIDTH 480 0
DWIDTH 12 0
BBX 12 16 0 -4
BITMAP
0000
0000
0700
0F80
0F80
0700
1AC0
3FE0
3DE0
1AC0
0200
0F80
0000
0000
0000
0000
ENDCHAR
STARTCHAR uni0006
ENCODING 6
SWIDTH 480 0
DWIDTH 12 0
BBX 12 16 0 -4
BITMAP
0000
0000
0200
0700
0F80
1FC0
3FE0
3FE0
3FE0
1AC0
0200
0F80
0000
0000
0000
0000
ENDCHAR
STARTCHAR uni0007
ENCODING 7
SWIDTH 480 0
DWIDTH 12 0
BBX 12 16 0 -4
BITMAP
0000
0000
0000
0000
0000
0F00
1F80
1F80
1F80
1F80
0F00
0000
0000
0000
0000
0000
ENDCHAR
STARTCHAR uni0008
ENCODING 8
SWIDTH 480 0
DWIDTH 12 0
BBX 12 16 0 -4
BITMAP
FFF0
FFF0
FFF0
FFF0
FFF0
F0F0
E070
E070
E070
E070
F0F0
FFF0
FFF0
FFF0
FFF0
FFF0
ENDCHAR
STARTCHAR uni0009
ENCODING 9
SWIDTH 480 0
DWIDTH 12 0
BBX 12 16 0 -4
BITMAP
0000
0000
0000
0700
18C0
1040
2020
2020
2020
1040
18C0
0700
0000
0000
0000
0000
ENDCHAR
STARTCHAR uni000A
ENCODING 10
SWIDTH 480 0
DWIDTH 12 0
BBX 12 16 0 -4
BITMAP
FFF0
FFF0
FFF0
F8F0
E730
EFB0
DFD0
DFD0
DFD0
EFB0
E730
F8F0
FFF0
FFF0
FFF0
FFF0
ENDCHAR
STARTCHAR uni000B
ENCODING 11
SWIDTH 480 0
DWIDTH 12 0
BBX 12 16 0 -4
BITMAP
0000
0000
03E0
00E0
01A0
0320
3E00
6300
6300
6300
6300
3E00
0000
0000
0000
0000
ENDCHAR
STARTCHAR uni000C
ENCODING 12
SWIDTH 480 0
DWIDTH 12 0
BBX 12 16 0 -4
BITMAP
0000
0000
1F80
30C0
30C0
30C0
30C0
1F80
0600
0600
1F80
0600
0600
0000
0000
0000
ENDCHAR
STARTCHAR uni000D
ENCODING 13
SWIDTH 480 0
DWIDTH 12 0
BBX 12 16 0 -4
BITMAP
0000
0400
0600
0700
0780
06C0
0600
0600
0600
1E00
3E00
3C00
3800
0000
0000
0000
ENDCHAR
STARTCHAR uni000E
ENCODING 14
SWIDTH 480 0
DWIDTH 12 0
BBX 12 16 0 -4
BITMAP
0000
1FE0
1FE0
1FE0
1860
1860
1860
1860
1860
1860
38E0
79E0
71C0
0000
0000
0000
ENDCHAR
STARTCHAR uni000F
ENCODING 15
SWIDTH 480 0
DWIDTH 12 0
BBX 12 16 0 -4
BITMAP
0000
0000
0200
2220
1FC0
18C0
1040
3060
1040
18C0
1FC0
2220
0200
0000
0000
0000
ENDCHAR
STARTCHAR uni0010
ENCODING 16
SWIDTH 480 0
DWIDTH 12 0
BBX 12 16 0 -4
BITMAP
0000
0000
0000
0800
0C00
0E00
0F00
0F80
0F00
0E00
0C00
0800
0000
0000
0000
0000
ENDCHAR
STARTCHAR uni0011
ENCODING 17
SWIDTH 480 0
DWIDTH 12 0
BBX 12 16 0 -4
BITMAP
0000
0000
0000
0100
0300
0700
0F00
1F00
0F00
0700
0300
0100
0000
0000
0000
0000
ENDCHAR
STARTCHAR uni0012
ENCODING 18
SWIDTH 480 0
DWIDTH 12 0
BBX 12 16 0 -4
BITMAP
0000
0000
0200
0700
0F80
1AC0
0200
0200
1AC0
0F80
0700
0200
0000
0000
0000
0000
ENDCHAR
STARTCHAR uni0013
ENCODING 19
SWIDTH 480 0
DWIDTH 12 0
BBX 12 16 0 -4
BITMAP
0000
0000
18C0
18C0
18C0
18C0
18C0
18C0
18C0
0000
18C0
18C0
0000
0000
0000
0000
ENDCHAR
STARTCHAR uni0014
ENCODING 20
SWIDTH 480 0
DWIDTH 12 0
BBX 12 16 0 -4
BITMAP
0000
0000
1FC0
3EC0
3EC0
3EC0
3EC0
1EC0
06C0
06C0
06C0
06C0
0000
0000
0000
0000
ENDCHAR
STARTCHAR uni0015
ENCODING 21
SWIDTH 480 0
DWIDTH 12 0
BBX 12 16 0 -4
BITMAP
0000
1FC0
3060
3000
1800
1F80
30C0
3060
1860
0FC0
00C0
0060
3060
1FC0
0000
0000
ENDCHAR
STARTCHAR uni0016
ENCODING 22
SWIDTH 480 0
DWIDTH 12 0
BBX 12 16 0 -4
BITMAP
0000
0000
0000
0000
0000
1FC0
1FC0
1FC0
1FC0
0000
0000
0000
0000
0000
0000
0000
ENDCHAR
STARTCHAR uni0017
ENCODING 23
SWIDTH 480 0
DWIDTH 12 0
BBX 12 16 0 -4
BITMAP
0000
0000
0200
0700
0F80
1AC0
0200
0200
1AC0
0F80
0700
0200
0000
1F80
0000
0000
ENDCHAR
STARTCHAR uni0018
ENCODING 24
SWIDTH 480 0
DWIDTH 12 0
BBX 12 16 0 -4
BITMAP
0000
0000
0200
0700
0F80
1AC0
0200
0200
0200
0200
0200
0200
0000
0000
0000
0000
ENDCHAR
STARTCHAR uni0019
ENCODING 25
SWIDTH 480 0
DWIDTH 12 0
BBX 12 16 0 -4
BITMAP
0000
0000
0200
0200
0200
0200
0200
0200
1AC0
0F80
0700
0200
0000
0000
0000
0000
ENDCHAR
STARTCHAR uni001A
ENCODING 26
SWIDTH 480 0
DWIDTH 12 0
BBX 12 16 0 -4
BITMAP
0000
0000
0000
0000
0100
0180
00C0
7FE0
00C0
0180
0100
0000
0000
0000
0000
0000
ENDCHAR
STARTCHAR uni001B
ENCODING 27
SWIDTH 480 0
DWIDTH 12 0
BBX 12 16 0 -4
BITMAP
0000
0000
0000
0000
0800
1800
3000
7FE0
3000
1800
0800
0000
0000
0000
0000
0000
ENDCHAR
STARTCHAR uni001C
ENCODING 28
SWIDTH 480 0
DWIDTH 12 0
BBX 12 16 0 -4
BITMAP
0000
0000
0000
0000
1800
1800
1800
1800
1800
1800
1FC0
0000
0000
0000
0000
0000
ENDCHAR
STARTCHAR uni001D
ENCODING 29
SWIDTH 480 0
DWIDTH 12 0
BBX 12 16 0 -4
BITMAP
0000
0000
0000
0000
0880
18C0
3060
7FF0
3060
18C0
0880
0000
0000
0000
0000
0000
ENDCHAR
STARTCHAR uni001E
ENCODING 30
SWIDTH 480 0
DWIDTH 12 0
BBX 12 16 0 -4
BITMAP
0000
0000
0000
0000
0000
0200
0700
0F80
1FC0
3FE0
0000
0000
0000
0000
0000
0000
ENDCHAR
STARTCHAR uni001F
ENCODING 31
SWIDTH 480 0
DWIDTH 12 0
BBX 12 16 0 -4
BITMAP
0000
0000
0000
0000
0000
3FE0
1FC0
0F80
0700
0200
0000
0000
0000
0000
0000
0000
ENDCHAR
STARTCHAR space
ENCODING 32
SWIDTH 480 0
DWIDTH 12 0
BBX 12 16 0 -4
BITMAP
0000
0000
0000
0000
0000
0000
0000
0000
0000
0000
0000
0000
0000
0000
0000
0000
ENDCHAR
STARTCHAR exclam
ENCODING 33
SWIDTH 480 0
DWIDTH 12 0
BBX 12 16 0 -4
BITMAP
0000
0000
0600
0600
0600
0600
0600
0600
0600
0000
0600
0600
0000
0000
0000
0000
ENDCHAR
STARTCHAR quotedbl
ENCODING 34
SWIDTH 480 0
DWIDTH 12 0
BBX 12 16 0 -4
BITMAP
0000
18C0
18C0
18C0
0880
0000
0000
0000
0000
0000
0000
0000
0000
0000
0000
0000
ENDCHAR
STARTCHAR numbersign
ENCODING 35
SWIDTH 480 0
DWIDTH 12 0
BBX 12 16 0 -4
BITMAP
0000
0000
1980
1980
7FE0
1980
1980
1980
1980
7FE0
1980
1980
0000
0000
0000
0000
ENDCHAR
STARTCHAR dollar
ENCODING 36
SWIDTH 480 0
DWIDTH 12 0
BBX 12 16 0 -4
BITMAP
0000
0300
0300
1FC0
3060
3000
3000
1FC0
0060
0060
3060
1FC0
0300
0300
0000
0000
ENDCHAR
STARTCHAR percent
ENCODING 37
SWIDTH 480 0
DWIDTH 12 0
BBX 12 16 0 -4
BITMAP
0000
1C00
3600
3660
1CC0
0180
0300
0600
0C00
19C0
3360
0360
01C0
0000
0000
0000
ENDCHAR
STARTCHAR ampersand
ENCODING 38
SWIDTH 480 0
DWIDTH 12 0
BBX 12 16 0 -4
BITMAP
0000
0000
0F00
1980
1980
0F00
1E00
3B60
31C0
3180
3BC0
1E60
0000
0000
0000
0000
ENDCHAR
STARTCHAR quotesingle
ENCODING 39
SWIDTH 480 0
DWIDTH 12 0
BBX 12 16 0 -4
BITMAP
0000
0000
0600
0600
0600
0000
0000
0000
0000
0000
0000
0000
0000
0000
0000
0000
ENDCHAR
STARTCHAR parenleft
ENCODING 40
SWIDTH 480 0
DWIDTH 12 0
BBX 12 16 0 -4
BITMAP
0000
0180
0300
0600
0600
0C00
0C00
0C00
0C00
0C00
0600
0600
0300
0180
0000
0000
ENDCHAR
STARTCHAR parenright
ENCODING 41
SWIDTH 480 0
DWIDTH 12 0
BBX 12 16 0 -4
BITMAP
0000
0C00
0600
0300
0300
0180
0180
0180
0180
0180
0300
0300
0600
0C00
0000
0000
ENDCHAR
STARTCHAR asterisk
ENCODING 42
SWIDTH 480 0
DWIDTH 12 0
BBX 12 16 0 -4
BITMAP
0000
0000
0000
0600
36C0
36C0
0F00
0F00
36C0
36C0
0600
0000
0000
0000
0000
0000
ENDCHAR
STARTCHAR plus
ENCODING 43
SWIDTH 480 0
DWIDTH 12 0
BBX 12 16 0 -4
BITMAP
0000
0000
0000
0600
0600
0600
3FC0
0600
0600
0600
0000
0000
0000
0000
0000
0000
ENDCHAR
STARTCHAR comma
ENCODING 44
SWIDTH 480 0
DWIDTH 12 0
BBX 12 16 0 -4
BITMAP
0000
0000
0000
0000
0000
0000
0000
0000
0000
0000
0600
0600
0200
0400
0000
0000
ENDCHAR
STARTCHAR hyphen
ENCODING 45
SWIDTH 480 0
DWIDTH 12 0
BBX 12 16 0 -4
BITMAP
0000
0000
0000
0000
0000
0000
1FC0
0000
0000
0000
0000
0000
0000
0000
0000
0000
ENDCHAR
STARTCHAR period
ENCODING 46
SWIDTH 480 0
DWIDTH 12 0
BBX 12 16 0 -4
BITMAP
0000
0000
0000
0000
0000
0000
0000
0000
0000
0000
0600
0600
0000
0000
0000
0000
ENDCHAR
STARTCHAR slash
ENCODING 47
SWIDTH 480 0
DWIDTH 12 0
BBX 12 16 0 -4
BITMAP
0000
0000
0180
0180
0300
0300
0600
0600
0C00
0C00
1800
1800
0000
0000
0000
0000
ENDCHAR
STARTCHAR zero
ENCODING 48
SWIDTH 480 0
DWIDTH 12 0
BBX 12 16 0 -4
BITMAP
0000
0000
0F00
1980
30C0
30C0
34C0
32C0
30C0
30C0
1980
0F00
0000
0000
0000
0000
ENDCHAR
STARTCHAR one
ENCODING 49
SWIDTH 480 0
DWIDTH 12 0
BBX 12 16 0 -4
BITMAP
0000
0000
0300
0700
0F00
0300
0300
0300
0300
0300
0300
0FC0
0000
0000
0000
0000
ENDCHAR
STARTCHAR two
ENCODING 50
SWIDTH 480 0
DWIDTH 12 0
BBX 12 16 0 -4
BITMAP
0000
0000
1F80
30C0
30C0
00C0
0180
0300
0600
0C00
1800
3FC0
0000
0000
0000
0000
ENDCHAR
STARTCHAR three
ENCODING 51
SWIDTH 480 0
DWIDTH 12 0
BBX 12 16 0 -4
BITMAP
0000
0000
1F80
30C0
30C0
00C0
0780
00C0
00C0
30C0
30C0
1F80
0000
0000
0000
0000
ENDCHAR
STARTCHAR four
ENCODING 52
SWIDTH 480 0
DWIDTH 12 0
BBX 12 16 0 -4
BITMAP
0000
0000
0180
0380
0780
0D80
1980
3180
3180
3FC0
0180
0180
0000
0000
0000
0000
ENDCHAR
STARTCHAR five
ENCODING 53
SWIDTH 480 0
DWIDTH 12 0
BBX 12 16 0 -4
BITMAP
0000
0000
3F80
3000
3000
3F00
3180
00C0
00C0
30C0
3980
0F00
0000
0000
0000
0000
ENDCHAR
STARTCHAR six
ENCODING 54
SWIDTH 480 0
DWIDTH 12 0
BBX 12 16 0 -4
BITMAP
0000
0000
0F80
1800
3000
3000
3F80
30C0
30C0
30C0
30C0
1F80
0000
0000
0000
0000
ENDCHAR
STARTCHAR seven
ENCODING 55
SWIDTH 480 0
DWIDTH 12 0
BBX 12 16 0 -4
BITMAP
0000
0000
3FC0
00C0
00C0
0180
0180
0300
0300
0600
0600
0600
0000
0000
0000
0000
ENDCHAR
STARTCHAR eight
ENCODING 56
SWIDTH 480 0
DWIDTH 12 0
BBX 12 16 0 -4
BITMAP
0000
0000
1F80
30C0
30C0
1080
1F80
30C0
30C0
30C0
30C0
1F80
0000
0000
0000
0000
ENDCHAR
STARTCHAR nine
ENCODING 57
SWIDTH 480 0
DWIDTH 12 0
BBX 12 16 0 -4
BITMAP
0000
0000
1F80
30C0
30C0
30C0
30C0
1FC0
00C0
00C0
0180
1F00
0000
0000
0000
0000
ENDCHAR
STARTCHAR colon
ENCODING 58
SWIDTH 480 0
DWIDTH 12 0
BBX 12 16 0 -4
BITMAP
0000
0000
0000
0000
0000
0600
0600
0000
0000
0000
0600
0600
0000
0000
0000
0000
ENDCHAR
STARTCHAR semicolon
ENCODING 59
SWIDTH 480 0
DWIDTH 12 0
BBX 12 16 0 -4
BITMAP
0000
0000
0000
0000
0000
0600
0600
0000
0000
0000
0600
0600
0200
0400
0000
0000
ENDCHAR
STARTCHAR less
ENCODING 60
SWIDTH 480 0
DWIDTH 12 0
BBX 12 16 0 -4
BITMAP
0000
0000
0080
0180
0300
0600
0C00
0C00
0600
0300
0180
0080
0000
0000
0000
0000
ENDCHAR
STARTCHAR equal
ENCODING 61
SWIDTH 480 0
DWIDTH 12 0
BBX 12 16 0 -4
BITMAP
0000
0000
0000
0000
0000
1FC0
0000
0000
1FC0
0000
0000
0000
0000
0000
0000
0000
ENDCHAR
STARTCHAR greater
ENCODING 62
SWIDTH 480 0
DWIDTH 12 0
BBX 12 16 0 -4
BITMAP
0000
0000
0800
0C00
0600
0300
0180
0180
0300
0600
0C00
0800
0000
0000
0000
0000
ENDCHAR
STARTCHAR question
ENCODING 63
SWIDTH 480 0
DWIDTH 12 0
BBX 12 16 0 -4
BITMAP
0000
0000
1F80
30C0
30C0
00C0
0380
0600
0600
0000
0600
0600
0000
0000
0000
0000
ENDCHAR
STARTCHAR at
ENCODING 64
SWIDTH 480 0
DWIDTH 12 0
BBX 12 16 0 -4
BITMAP
0000
0000
0F80
18C0
3060
33E0
3660
3660
3660
33E0
1800
0FC0
0000
0000
0000
0000
ENDCHAR
STARTCHAR A
ENCODING 65
SWIDTH 480 0
DWIDTH 12 0
BBX 12 16 0 -4
BITMAP
0000
0000
0F80
18C0
3060
3060
3060
3FE0
3060
3060
3060
3060
0000
0000
0000
0000
ENDCHAR
STARTCHAR B
ENCODING 66
SWIDTH 480 0
DWIDTH 12 0
BBX 12 16 0 -4
BITMAP
0000
0000
3FC0
3060
3060
3060
3FC0
3060
3060
3060
3060
3FC0
0000
0000
0000
0000
ENDCHAR
STARTCHAR C
ENCODING 67
SWIDTH 480 0
DWIDTH 12 0
BBX 12 16 0 -4
BITMAP
0000
0000
0FC0
1860
3060
3000
3000
3000
3000
3060
1860
0FC0
0000
0000
0000
0000
ENDCHAR
STARTCHAR D
ENCODING 68
SWIDTH 480 0
DWIDTH 12 0
BBX 12 16 0 -4
BITMAP
0000
0000
3F80
30C0
3060
3060
3060
3060
3060
3060
30C0
3F80
0000
0000
0000
0000
ENDCHAR
STARTCHAR E
ENCODING 69
SWIDTH 480 0
DWIDTH 12 0
BBX 12 16 0 -4
BITMAP
0000
0000
3FE0
3000
3000
3000
3F80
3000
3000
3000
3000
3FE0
0000
0000
0000
0000
ENDCHAR
STARTCHAR F
ENCODING 70
SWIDTH 480 0
DWIDTH 12 0
BBX 12 16 0 -4
BITMAP
0000
0000
3FE0
3000
3000
3000
3F80
3000
3000
3000
3000
3000
0000
0000
0000
0000
ENDCHAR
STARTCHAR G
ENCODING 71
SWIDTH 480 0
DWIDTH 12 0
BBX 12 16 0 -4
BITMAP
0000
0000
0FC0
1860
3060
3000
3000
31E0
3060
3060
1860
0FE0
0000
0000
0000
0000
ENDCHAR
STARTCHAR H
ENCODING 72
SWIDTH 480 0
DWIDTH 12 0
BBX 12 16 0 -4
BITMAP
0000
0000
3060
3060
3060
3060
3FE0
3060
3060
3060
3060
3060
0000
0000
0000
0000
ENDCHAR
STARTCHAR I
ENCODING 73
SWIDTH 480 0
DWIDTH 12 0
BBX 12 16 0 -4
BITMAP
0000
0000
1F80
0600
0600
0600
0600
0600
0600
0600
0600
1F80
0000
0000
0000
0000
ENDCHAR
STARTCHAR J
ENCODING 74
SWIDTH 480 0
DWIDTH 12 0
BBX 12 16 0 -4
BITMAP
0000
0000
07E0
00C0
00C0
00C0
00C0
00C0
00C0
30C0
30C0
1F80
0000
0000
0000
0000
ENDCHAR
STARTCHAR K
ENCODING 75
SWIDTH 480 0
DWIDTH 12 0
BBX 12 16 0 -4
BITMAP
0000
0000
30C0
3180
3300
3600
3C00
3600
3300
3180
30C0
3060
0000
0000
0000
0000
ENDCHAR
STARTCHAR L
ENCODING 76
SWIDTH 480 0
DWIDTH 12 0
BBX 12 16 0 -4
BITMAP
0000
0000
1800
1800
1800
1800
1800
1800
1800
1800
1800
1FE0
0000
0000
0000
0000
ENDCHAR
STARTCHAR M
ENCODING 77
SWIDTH 480 0
DWIDTH 12 0
BBX 12 16 0 -4
BITMAP
0000
0000
3060
3060
38E0
3DE0
3760
3260
3060
3060
3060
3060
0000
0000
0000
0000
ENDCHAR
STARTCHAR N
ENCODING 78
SWIDTH 480 0
DWIDTH 12 0
BBX 12 16 0 -4
BITMAP
0000
0000
3060
3860
3C60
3460
3660
3360
3160
31E0
30E0
3060
0000
0000
0000
0000
ENDCHAR
STARTCHAR O
ENCODING 79
SWIDTH 480 0
DWIDTH 12 0
BBX 12 16 0 -4
BITMAP
0000
0000
0F80
18C0
3060
3060
3060
3060
3060
3060
18C0
0F80
0000
0000
0000
0000
ENDCHAR
STARTCHAR P
ENCODING 80
SWIDTH 480 0
DWIDTH 12 0
BBX 12 16 0 -4
BITMAP
0000
0000
3FC0
3060
3060
3060
3060
3FC0
3000
3000
3000
3000
0000
0000
0000
0000
ENDCHAR
STARTCHAR Q
ENCODING 81
SWIDTH 480 0
DWIDTH 12 0
BBX 12 16 0 -4
BITMAP
0000
0000
0F80
18C0
3060
3060
3060
3060
3060
3060
18C0
0F80
0300
0180
0000
0000
ENDCHAR
STARTCHAR R
ENCODING 82
SWIDTH 480 0
DWIDTH 12 0
BBX 12 16 0 -4
BITMAP
0000
0000
3FC0
3060
3060
3060
3060
3FC0
3180
30C0
30C0
3060
0000
0000
0000
0000
ENDCHAR
STARTCHAR S
ENCODING 83
SWIDTH 480 0
DWIDTH 12 0
BBX 12 16 0 -4
BITMAP
0000
0000
1FC0
3060
3060
3000
1E00
03C0
0060
3060
3060
1FC0
0000
0000
0000
0000
ENDCHAR
STARTCHAR T
ENCODING 84
SWIDTH 480 0
DWIDTH 12 0
BBX 12 16 0 -4
BITMAP
0000
0000
3FC0
0600
0600
0600
0600
0600
0600
0600
0600
0600
0000
0000
0000
0000
ENDCHAR
STARTCHAR U
ENCODING 85
SWIDTH 480 0
DWIDTH 12 0
BBX 12 16 0 -4
BITMAP
0000
0000
3060
3060
3060
3060
3060
3060
3060
3060
18C0
0F80
0000
0000
0000
0000
ENDCHAR
STARTCHAR V
ENCODING 86
SWIDTH 480 0
DWIDTH 12 0
BBX 12 16 0 -4
BITMAP
0000
0000
3060
3060
3060
18C0
18C0
18C0
0D80
0D80
0700
0700
0000
0000
0000
0000
ENDCHAR
STARTCHAR W
ENCODING 87
SWIDTH 480 0
DWIDTH 12 0
BBX 12 16 0 -4
BITMAP
0000
0000
6060
6060
6060
6060
6060
6660
6F60
6960
39C0
30C0
0000
0000
0000
0000
ENDCHAR
STARTCHAR X
ENCODING 88
SWIDTH 480 0
DWIDTH 12 0
BBX 12 16 0 -4
BITMAP
0000
0000
3060
3060
18C0
0D80
0700
0700
0D80
18C0
3060
3060
0000
0000
0000
0000
ENDCHAR
STARTCHAR Y
ENCODING 89
SWIDTH 480 0
DWIDTH 12 0
BBX 12 16 0 -4
BITMAP
0000
0000
6060
6060
30C0
1980
0F00
0600
0600
0600
0600
0600
0000
0000
0000
0000
ENDCHAR
STARTCHAR Z
ENCODING 90
SWIDTH 480 0
DWIDTH 12 0
BBX 12 16 0 -4
BITMAP
0000
0000
3FE0
0060
00C0
0180
0300
0600
0C00
1800
3000
3FE0
0000
0000
0000
0000
ENDCHAR
STARTCHAR bracketleft
ENCODING 91
SWIDTH 480 0
DWIDTH 12 0
BBX 12 16 0 -4
BITMAP
0000
0F80
0C00
0C00
0C00
0C00
0C00
0C00
0C00
0C00
0C00
0C00
0C00
0F80
0000
0000
ENDCHAR
STARTCHAR backslash
ENCODING 92
SWIDTH 480 0
DWIDTH 12 0
BBX 12 16 0 -4
BITMAP
0000
0000
0C00
0C00
0600
0600
0300
0300
0180
0180
00C0
00C0
0000
0000
0000
0000
ENDCHAR
STARTCHAR bracketright
ENCODING 93
SWIDTH 480 0
DWIDTH 12 0
BBX 12 16 0 -4
BITMAP
0000
0F80
0180
0180
0180
0180
0180
0180
0180
0180
0180
0180
0180
0F80
0000
0000
ENDCHAR
STARTCHAR asciicircum
ENCODING 94
SWIDTH 480 0
DWIDTH 12 0
BBX 12 16 0 -4
BITMAP
0000
0300
0780
0CC0
0000
0000
0000
0000
0000
0000
0000
0000
0000
0000
0000
0000
ENDCHAR
STARTCHAR underscore
ENCODING 95
SWIDTH 480 0
DWIDTH 12 0
BBX 12 16 0 -4
BITMAP
0000
0000
0000
0000
0000
0000
0000
0000
0000
0000
0000
0000
0000
FFF0
0000
0000
ENDCHAR
STARTCHAR grave
ENCODING 96
SWIDTH 480 0
DWIDTH 12 0
BBX 12 16 0 -4
BITMAP
0000
0C00
0600
0300
0000
0000
0000
0000
0000
0000
0000
0000
0000
0000
0000
0000
ENDCHAR
STARTCHAR a
ENCODING 97
SWIDTH 480 0
DWIDTH 12 0
BBX 12 16 0 -4
BITMAP
0000
0000
0000
0000
0000
1FC0
0060
0060
1FE0
3060
3060
1FE0
0000
0000
0000
0000
ENDCHAR
STARTCHAR b
ENCODING 98
SWIDTH 480 0
DWIDTH 12 0
BBX 12 16 0 -4
BITMAP
0000
0000
3000
3000
3000
3780
38C0
3060
3060
3060
30C0
3F80
0000
0000
0000
0000
ENDCHAR
STARTCHAR c
ENCODING 99
SWIDTH 480 0
DWIDTH 12 0
BBX 12 16 0 -4
BITMAP
0000
0000
0000
0000
0000
0FC0
1860
3000
3000
3000
1860
0FC0
0000
0000
0000
0000
ENDCHAR
STARTCHAR d
ENCODING 100
SWIDTH 480 0
DWIDTH 12 0
BBX 12 16 0 -4
BITMAP
0000
0000
0060
0060
0060
0F60
18E0
3060
3060
3060
1860
0FE0
0000
0000
0000
0000
ENDCHAR
STARTCHAR e
ENCODING 101
SWIDTH 480 0
DWIDTH 12 0
BBX 12 16 0 -4
BITMAP
0000
0000
0000
0000
0000
1FC0
3060
3060
3FE0
3000
3000
1FC0
0000
0000
0000
0000
ENDCHAR
STARTCHAR f
ENCODING 102
SWIDTH 480 0
DWIDTH 12 0
BBX 12 16 0 -4
BITMAP
0000
0000
03C0
0600
0600
1FC0
0600
0600
0600
0600
0600
0600
0000
0000
0000
0000
ENDCHAR
STARTCHAR g
ENCODING 103
SWIDTH 480 0
DWIDTH 12 0
BBX 12 16 0 -4
BITMAP
0000
0000
0000
0000
0000
0FE0
1860
3060
3060
3060
18E0
0F60
0060
10C0
0F80
0000
ENDCHAR
STARTCHAR h
ENCODING 104
SWIDTH 480 0
DWIDTH 12 0
BBX 12 16 0 -4
BITMAP
0000
0000
3000
3000
3000
3780
38C0
3060
3060
3060
3060
3060
0000
0000
0000
0000
ENDCHAR
STARTCHAR i
ENCODING 105
SWIDTH 480 0
DWIDTH 12 0
BBX 12 16 0 -4
BITMAP
0000
0000
0300
0300
0000
0F00
0300
0300
0300
0300
0300
0FC0
0000
0000
0000
0000
ENDCHAR
STARTCHAR j
ENCODING 106
SWIDTH 480 0
DWIDTH 12 0
BBX 12 16 0 -4
BITMAP
0000
0000
0180
0180
0000
0780
0180
0180
0180
0180
0180
0180
0180
1980
0F00
0000
ENDCHAR
STARTCHAR k
ENCODING 107
SWIDTH 480 0
DWIDTH 12 0
BBX 12 16 0 -4
BITMAP
0000
0000
3000
3000
3000
30C0
3180
3300
3F00
3180
30C0
3060
0000
0000
0000
0000
ENDCHAR
STARTCHAR l
ENCODING 108
SWIDTH 480 0
DWIDTH 12 0
BBX 12 16 0 -4
BITMAP
0000
0000
1E00
0600
0600
0600
0600
0600
0600
0600
0600
03C0
0000
0000
0000
0000
ENDCHAR
STARTCHAR m
ENCODING 109
SWIDTH 480 0
DWIDTH 12 0
BBX 12 16 0 -4
BITMAP
0000
0000
0000
0000
0000
6EC0
7760
6660
6660
6660
6660
6660
0000
0000
0000
0000
ENDCHAR
STARTCHAR n
ENCODING 110
SWIDTH 480 0
DWIDTH 12 0
BBX 12 16 0 -4
BITMAP
0000
0000
0000
0000
0000
3780
38C0
3060
3060
3060
3060
3060
0000
0000
0000
0000
ENDCHAR
STARTCHAR o
ENCODING 111
SWIDTH 480 0
DWIDTH 12 0
BBX 12 16 0 -4
BITMAP
0000
0000
0000
0000
0000
0F80
18C0
3060
3060
3060
18C0
0F80
0000
0000
0000
0000
ENDCHAR
STARTCHAR p
ENCODING 112
SWIDTH 480 0
DWIDTH 12 0
BBX 12 16 0 -4
BITMAP
0000
0000
0000
0000
0000
3780
38C0
3060
3060
3060
30C0
3F80
3000
3000
3000
0000
ENDCHAR
STARTCHAR q
ENCODING 113
SWIDTH 480 0
DWIDTH 12 0
BBX 12 16 0 -4
BITMAP
0000
0000
0000
0000
0000
0FE0
1860
3060
3060
3060
18E0
0F60
0060
0060
0060
0000
ENDCHAR
STARTCHAR r
ENCODING 114
SWIDTH 480 0
DWIDTH 12 0
BBX 12 16 0 -4
BITMAP
0000
0000
0000
0000
0000
1BC0
1C60
1800
1800
1800
1800
1800
0000
0000
0000
0000
ENDCHAR
STARTCHAR s
ENCODING 115
SWIDTH 480 0
DWIDTH 12 0
BBX 12 16 0 -4
BITMAP
0000
0000
0000
0000
0000
1FC0
3060
3000
1FC0
0060
3060
1FC0
0000
0000
0000
0000
ENDCHAR
STARTCHAR t
ENCODING 116
SWIDTH 480 0
DWIDTH 12 0
BBX 12 16 0 -4
BITMAP
0000
0000
0600
0600
0600
1FC0
0600
0600
0600
0600
0600
03C0
0000
0000
0000
0000
ENDCHAR
STARTCHAR u
ENCODING 117
SWIDTH 480 0
DWIDTH 12 0
BBX 12 16 0 -4
BITMAP
0000
0000
0000
0000
0000
3060
3060
3060
3060
3060
18E0
0F60
0000
0000
0000
0000
ENDCHAR
STARTCHAR v
ENCODING 118
SWIDTH 480 0
DWIDTH 12 0
BBX 12 16 0 -4
BITMAP
0000
0000
0000
0000
0000
3060
3060
3060
18C0
0D80
0700
0200
0000
0000
0000
0000
ENDCHAR
STARTCHAR w
ENCODING 119
SWIDTH 480 0
DWIDTH 12 0
BBX 12 16 0 -4
BITMAP
0000
0000
0000
0000
0000
3060
3060
3260
3260
3760
3DE0
18C0
0000
0000
0000
0000
ENDCHAR
STARTCHAR x
ENCODING 120
SWIDTH 480 0
DWIDTH 12 0
BBX 12 16 0 -4
BITMAP
0000
0000
0000
0000
0000
3060
18C0
0D80
0700
0D80
18C0
3060
0000
0000
0000
0000
ENDCHAR
STARTCHAR y
ENCODING 121
SWIDTH 480 0
DWIDTH 12 0
BBX 12 16 0 -4
BITMAP
0000
0000
0000
0000
0000
3060
3060
3060
3060
3060
18E0
0F60
0060
10C0
0F80
0000
ENDCHAR
STARTCHAR z
ENCODING 122
SWIDTH 480 0
DWIDTH 12 0
BBX 12 16 0 -4
BITMAP
0000
0000
0000
0000
0000
3FE0
0060
01C0
0700
1C00
3000
3FE0
0000
0000
0000
0000
ENDCHAR
STARTCHAR braceleft
ENCODING 123
SWIDTH 480 0
DWIDTH 12 0
BBX 12 16 0 -4
BITMAP
0000
0380
0600
0600
0600
0600
0C00
1800
0C00
0600
0600
0600
0600
0380
0000
0000
ENDCHAR
STARTCHAR bar
ENCODING 124
SWIDTH 480 0
DWIDTH 12 0
BBX 12 16 0 -4
BITMAP
0000
0600
0600
0600
0600
0600
0600
0600
0600
0600
0600
0600
0600
0600
0600
0000
ENDCHAR
STARTCHAR braceright
ENCODING 125
SWIDTH 480 0
DWIDTH 12 0
BBX 12 16 0 -4
BITMAP
0000
0E00
0300
0300
0300
0300
0180
00C0
0180
0300
0300
0300
0300
0E00
0000
0000
ENDCHAR
STARTCHAR asciitilde
ENCODING 126
SWIDTH 480 0
DWIDTH 12 0
BBX 12 16 0 -4
BITMAP
0000
0E20
1B60
11C0
0000
0000
0000
0000
0000
0000
0000
0000
0000
0000
0000
0000
ENDCHAR
STARTCHAR uni007F
ENCODING 127
SWIDTH 480 0
DWIDTH 12 0
BBX 12 16 0 -4
BITMAP
0000
0000
0000
0000
0000
0000
0000
0000
0000
0000
0000
0000
0000
0000
0000
0000
ENDCHAR
STARTCHAR uni00A0
ENCODING 160
SWIDTH 480 0
DWIDTH 12 0
BBX 12 16 0 -4
BITMAP
0000
0000
0000
0000
0000
0000
0000
0000
0000
0000
0000
0000
0000
0000
0000
0000
ENDCHAR
STARTCHAR exclamdown
ENCODING 161
SWIDTH 480 0
DWIDTH 12 0
BBX 12 16 0 -4
BITMAP
0000
0000
0600
0600
0000
0600
0600
0600
0600
0600
0600
0600
0000
0000
0000
0000
ENDCHAR
STARTCHAR cent
ENCODING 162
SWIDTH 480 0
DWIDTH 12 0
BBX 12 16 0 -4
BITMAP
0000
0000
0300
0300
1FC0
3060
3000
3000
3000
3060
1FC0
0300
0300
0000
0000
0000
ENDCHAR
STARTCHAR sterling
ENCODING 163
SWIDTH 480 0
DWIDTH 12 0
BBX 12 16 0 -4
BITMAP
0000
0000
0780
0CC0
1800
1800
3F00
1800
1800
1800
1E60
33C0
0000
0000
0000
0000
ENDCHAR
STARTCHAR currency
ENCODING 164
SWIDTH 480 0
DWIDTH 12 0
BBX 12 16 0 -4
BITMAP
0000
0000
3060
18C0
0F80
18C0
18C0
18C0
18C0
0F80
18C0
3060
0000
0000
0000
0000
ENDCHAR
STARTCHAR yen
ENCODING 165
SWIDTH 480 0
DWIDTH 12 0
BBX 12 16 0 -4
BITMAP
0000
0000
30C0
30C0
1980
0F00
0600
3FC0
0600
3FC0
0600
0600
0000
0000
0000
0000
ENDCHAR
STARTCHAR brokenbar
ENCODING 166
SWIDTH 480 0
DWIDTH 12 0
BBX 12 16 0 -4
BITMAP
0000
0600
0600
0600
0600
0600
0600
0000
0000
0600
0600
0600
0600
0600
0600
0000
ENDCHAR
STARTCHAR section
ENCODING 167
SWIDTH 480 0
DWIDTH 12 0
BBX 12 16 0 -4
BITMAP
0000
1FC0
3060
3000
1800
1F80
30C0
3060
1860
0FC0
00C0
0060
3060
1FC0
0000
0000
ENDCHAR
STARTCHAR dieresis
ENCODING 168
SWIDTH 480 0
DWIDTH 12 0
BBX 12 16 0 -4
BITMAP
0000
18C0
18C0
0000
0000
0000
0000
0000
0000
0000
0000
0000
0000
0000
0000
0000
ENDCHAR
STARTCHAR copyright
ENCODING 169
SWIDTH 480 0
DWIDTH 12 0
BBX 12 16 0 -4
BITMAP
0000
0F00
30C0
2040
4F20
59A0
5820
59A0
4F20
2040
30C0
0F00
0000
0000
0000
0000
ENDCHAR
STARTCHAR ordfeminine
ENCODING 170
SWIDTH 480 0
DWIDTH 12 0
BBX 12 16 0 -4
BITMAP
0000
0000
0F00
0180
0F80
1980
0F80
0000
1F80
0000
0000
0000
0000
0000
0000
0000
ENDCHAR
STARTCHAR guillemotleft
ENCODING 171
SWIDTH 480 0
DWIDTH 12 0
BBX 12 16 0 -4
BITMAP
0000
0000
0000
0000
0420
0C60
18C0
3180
18C0
0C60
0420
0000
0000
0000
0000
0000
ENDCHAR
STARTCHAR logicalnot
ENCODING 172
SWIDTH 480 0
DWIDTH 12 0
BBX 12 16 0 -4
BITMAP
0000
0000
0000
0000
0000
1FC0
00C0
00C0
00C0
00C0
0000
0000
0000
0000
0000
0000
ENDCHAR
STARTCHAR uni00AD
ENCODING 173
SWIDTH 480 0
DWIDTH 12 0
BBX 12 16 0 -4
BITMAP
0000
0000
0000
0000
0000
0000
1FC0
0000
0000
0000
0000
0000
0000
0000
0000
0000
ENDCHAR
STARTCHAR registered
ENCODING 174
SWIDTH 480 0
DWIDTH 12 0
BBX 12 16 0 -4
BITMAP
0000
0F00
30C0
2040
5F20
59A0
5F20
5B20
59A0
2040
30C0
0F00
0000
0000
0000
0000
ENDCHAR
STARTCHAR macron
ENCODING 175
SWIDTH 480 0
DWIDTH 12 0
BBX 12 16 0 -4
BITMAP
0000
0000
1FC0
0000
0000
0000
0000
0000
0000
0000
0000
0000
0000
0000
0000
0000
ENDCHAR
STARTCHAR degree
ENCODING 176
SWIDTH 480 0
DWIDTH 12 0
BBX 12 16 0 -4
BITMAP
0000
0000
0F00
1980
1980
1980
1980
0F00
0000
0000
0000
0000
0000
0000
0000
0000
ENDCHAR
STARTCHAR plusminus
ENCODING 177
SWIDTH 480 0
DWIDTH 12 0
BBX 12 16 0 -4
BITMAP
0000
0000
0600
0600
0600
3FC0
0600
0600
0600
0000
3FC0
0000
0000
0000
0000
0000
ENDCHAR
STARTCHAR uni00B2
ENCODING 178
SWIDTH 480 0
DWIDTH 12 0
BBX 12 16 0 -4
BITMAP
0000
0700
0980
0180
0180
0300
0600
0F80
0000
0000
0000
0000
0000
0000
0000
0000
ENDCHAR
STARTCHAR uni00B3
ENCODING 179
SWIDTH 480 0
DWIDTH 12 0
BBX 12 16 0 -4
BITMAP
0000
0F00
0180
0180
0700
0180
0180
0F00
0000
0000
0000
0000
0000
0000
0000
0000
ENDCHAR
STARTCHAR acute
ENCODING 180
SWIDTH 480 0
DWIDTH 12 0
BBX 12 16 0 -4
BITMAP
0000
0180
0300
0600
0000
0000
0000
0000
0000
0000
0000
0000
0000
0000
0000
0000
ENDCHAR
STARTCHAR uni00B5
ENCODING 181
SWIDTH 480 0
DWIDTH 12 0
BBX 12 16 0 -4
BITMAP
0000
0000
0000
0000
0000
30C0
30C0
30C0
30C0
30C0
30C0
3F60
3000
3000
3000
0000
ENDCHAR
STARTCHAR paragraph
ENCODING 182
SWIDTH 480 0
DWIDTH 12 0
BBX 12 16 0 -4
BITMAP
0000
0000
1FC0
3EC0
3EC0
3EC0
3EC0
1EC0
06C0
06C0
06C0
06C0
0000
0000
0000
0000
ENDCHAR
STARTCHAR periodcentered
ENCODING 183
SWIDTH 480 0
DWIDTH 12 0
BBX 12 16 0 -4
BITMAP
0000
0000
0000
0000
0000
0000
0300
0300
0000
0000
0000
0000
0000
0000
0000
0000
ENDCHAR
STARTCHAR cedilla
ENCODING 184
SWIDTH 480 0
DWIDTH 12 0
BBX 12 16 0 -4
BITMAP
0000
0000
0000
0000
0000
0000
0000
0000
0000
0000
0000
0400
0600
0300
1E00
0000
ENDCHAR
STARTCHAR uni00B9
ENCODING 185
SWIDTH 480 0
DWIDTH 12 0
BBX 12 16 0 -4
BITMAP
0000
0600
0E00
0600
0600
0600
0600
0F00
0000
0000
0000
0000
0000
0000
0000
0000
ENDCHAR
STARTCHAR ordmasculine
ENCODING 186
SWIDTH 480 0
DWIDTH 12 0
BBX 12 16 0 -4
BITMAP
0000
0000
0F00
1980
1980
1980
0F00
0000
1F80
0000
0000
0000
0000
0000
0000
0000
ENDCHAR
STARTCHAR guillemotright
ENCODING 187
SWIDTH 480 0
DWIDTH 12 0
BBX 12 16 0 -4
BITMAP
0000
0000
0000
0000
2100
3180
18C0
0C60
18C0
3180
2100
0000
0000
0000
0000
0000
ENDCHAR
STARTCHAR onequarter
ENCODING 188
SWIDTH 480 0
DWIDTH 12 0
BBX 12 16 0 -4
BITMAP
0000
1800
3800
1840
18C0
1980
0300
0600
0CC0
19C0
12C0
07E0
00C0
0080
0000
0000
ENDCHAR
STARTCHAR onehalf
ENCODING 189
SWIDTH 480 0
DWIDTH 12 0
BBX 12 16 0 -4
BITMAP
0000
1800
3800
1840
18C0
1980
0300
0600
0DC0
1860
1060
00C0
01E0
0000
0000
0000
ENDCHAR
STARTCHAR threequarters
ENCODING 190
SWIDTH 480 0
DWIDTH 12 0
BBX 12 16 0 -4
BITMAP
0000
3800
0C00
1840
0CC0
3980
0300
0600
0CC0
19C0
12C0
07E0
00C0
0080
0000
0000
ENDCHAR
STARTCHAR questiondown
ENCODING 191
SWIDTH 480 0
DWIDTH 12 0
BBX 12 16 0 -4
BITMAP
0000
0000
0600
0600
0000
0600
0600
1C00
3000
30C0
30C0
1F80
0000
0000
0000
0000
ENDCHAR
STARTCHAR Agrave
ENCODING 192
SWIDTH 480 0
DWIDTH 12 0
BBX 12 16 0 -4
BITMAP
1C00
0700
0000
0F80
18C0
3060
3060
3060
3FE0
3060
3060
3060
0000
0000
0000
0000
ENDCHAR
STARTCHAR Aacute
ENCODING 193
SWIDTH 480 0
DWIDTH 12 0
BBX 12 16 0 -4
BITMAP
01C0
0700
0000
0F80
18C0
3060
3060
3060
3FE0
3060
3060
3060
0000
0000
0000
0000
ENDCHAR
STARTCHAR Acircumflex
ENCODING 194
SWIDTH 480 0
DWIDTH 12 0
BBX 12 16 0 -4
BITMAP
0700
0D80
1040
0F80
18C0
3060
3060
3060
3FE0
3060
3060
3060
0000
0000
0000
0000
ENDCHAR
STARTCHAR Atilde
ENCODING 195
SWIDTH 480 0
DWIDTH 12 0
BBX 12 16 0 -4
BITMAP
0E40
1380
0000
0F80
18C0
3060
3060
3060
3FE0
3060
3060
3060
0000
0000
0000
0000
ENDCHAR
STARTCHAR Adieresis
ENCODING 196
SWIDTH 480 0
DWIDTH 12 0
BBX 12 16 0 -4
BITMAP
3060
3060
0000
0F80
18C0
3060
3060
3060
3FE0
3060
3060
3060
0000
0000
0000
0000
ENDCHAR
STARTCHAR Aring
ENCODING 197
SWIDTH 480 0
DWIDTH 12 0
BBX 12 16 0 -4
BITMAP
0700
0880
0880
0F80
18C0
3060
3060
3060
3FE0
3060
3060
3060
0000
0000
0000
0000
ENDCHAR
STARTCHAR AE
ENCODING 198
SWIDTH 480 0
DWIDTH 12 0
BBX 12 16 0 -4
BITMAP
0000
0000
0FF0
1980
3180
3180
31F0
3F80
3180
3180
3180
31F0
0000
0000
0000
0000
ENDCHAR
STARTCHAR Ccedilla
ENCODING 199
SWIDTH 480 0
DWIDTH 12 0
BBX 12 16 0 -4
BITMAP
0000
0000
0FC0
1860
3060
3000
3000
3000
3000
3060
1860
0FC0
0300
0180
0700
0000
ENDCHAR
STARTCHAR Egrave
ENCODING 200
SWIDTH 480 0
DWIDTH 12 0
BBX 12 16 0 -4
BITMAP
0E00
0380
0000
3FE0
3000
3000
3000
3F80
3000
3000
3000
3FE0
0000
0000
0000
0000
ENDCHAR
STARTCHAR Eacute
ENCODING 201
SWIDTH 480 0
DWIDTH 12 0
BBX 12 16 0 -4
BITMAP
01C0
0700
0000
3FE0
3000
3000
3000
3F80
3000
3000
3000
3FE0
0000
0000
0000
0000
ENDCHAR
STARTCHAR Ecircumflex
ENCODING 202
SWIDTH 480 0
DWIDTH 12 0
BBX 12 16 0 -4
BITMAP
0700
0D80
0000
3FE0
3000
3000
3000
3F80
3000
3000
3000
3FE0
0000
0000
0000
0000
ENDCHAR
STARTCHAR Edieresis
ENCODING 203
SWIDTH 480 0
DWIDTH 12 0
BBX 12 16 0 -4
BITMAP
18C0
18C0
0000
3FE0
3000
3000
3000
3F80
3000
3000
3000
3FE0
0000
0000
0000
0000
ENDCHAR
STARTCHAR Igrave
ENCODING 204
SWIDTH 480 0
DWIDTH 12 0
BBX 12 16 0 -4
BITMAP
1C00
0700
0000
1F80
0600
0600
0600
0600
0600
0600
0600
1F80
0000
0000
0000
0000
ENDCHAR
STARTCHAR Iacute
ENCODING 205
SWIDTH 480 0
DWIDTH 12 0
BBX 12 16 0 -4
BITMAP
0380
0E00
0000
1F80
0600
0600
0600
0600
0600
0600
0600
1F80
0000
0000
0000
0000
ENDCHAR
STARTCHAR Icircumflex
ENCODING 206
SWIDTH 480 0
DWIDTH 12 0
BBX 12 16 0 -4
BITMAP
0E00
1B00
0000
1F80
0600
0600
0600
0600
0600
0600
0600
1F80
0000
0000
0000
0000
ENDCHAR
STARTCHAR Idieresis
ENCODING 207
SWIDTH 480 0
DWIDTH 12 0
BBX 12 16 0 -4
BITMAP
30C0
30C0
0000
1F80
0600
0600
0600
0600
0600
0600
0600
1F80
0000
0000
0000
0000
ENDCHAR
STARTCHAR Eth
ENCODING 208
SWIDTH 480 0
DWIDTH 12 0
BBX 12 16 0 -4
BITMAP
0000
0000
3F80
30C0
3060
3060
7E60
3060
3060
3060
30C0
3F80
0000
0000
0000
0000
ENDCHAR
STARTCHAR Ntilde
ENCODING 209
SWIDTH 480 0
DWIDTH 12 0
BBX 12 16 0 -4
BITMAP
0E40
1380
0000
3060
3860
3C60
3660
3360
31E0
30E0
3060
3060
0000
0000
0000
0000
ENDCHAR
STARTCHAR Ograve
ENCODING 210
SWIDTH 480 0
DWIDTH 12 0
BBX 12 16 0 -4
BITMAP
0E00
0380
0000
0F80
18C0
3060
3060
3060
3060
3060
18C0
0F80
0000
0000
0000
0000
ENDCHAR
STARTCHAR Oacute
ENCODING 211
SWIDTH 480 0
DWIDTH 12 0
BBX 12 16 0 -4
BITMAP
01C0
0700
0000
0F80
18C0
3060
3060
3060
3060
3060
18C0
0F80
0000
0000
0000
0000
ENDCHAR
STARTCHAR Ocircumflex
ENCODING 212
SWIDTH 480 0
DWIDTH 12 0
BBX 12 16 0 -4
BITMAP
0700
0D80
0000
0F80
18C0
3060
3060
3060
3060
3060
18C0
0F80
0000
0000
0000
0000
ENDCHAR
STARTCHAR Otilde
ENCODING 213
SWIDTH 480 0
DWIDTH 12 0
BBX 12 16 0 -4
BITMAP
0E40
1380
0000
0F80
18C0
3060
3060
3060
3060
3060
18C0
0F80
0000
0000
0000
0000
ENDCHAR
STARTCHAR Odieresis
ENCODING 214
SWIDTH 480 0
DWIDTH 12 0
BBX 12 16 0 -4
BITMAP
18C0
18C0
0000
0F80
18C0
3060
3060
3060
3060
3060
18C0
0F80
0000
0000
0000
0000
ENDCHAR
STARTCHAR multiply
ENCODING 215
SWIDTH 480 0
DWIDTH 12 0
BBX 12 16 0 -4
BITMAP
0000
0000
0000
0000
18C0
0D80
0700
0700
0D80
18C0
0000
0000
0000
0000
0000
0000
ENDCHAR
STARTCHAR Oslash
ENCODING 216
SWIDTH 480 0
DWIDTH 12 0
BBX 12 16 0 -4
BITMAP
0000
0020
0FC0
18C0
3160
3160
3260
3260
3460
3460
18C0
1F80
2000
0000
0000
0000
ENDCHAR
STARTCHAR Ugrave
ENCODING 217
SWIDTH 480 0
DWIDTH 12 0
BBX 12 16 0 -4
BITMAP
0C00
0600
0300
3060
3060
3060
3060
3060
3060
3060
18C0
0F80
0000
0000
0000
0000
ENDCHAR
STARTCHAR Uacute
ENCODING 218
SWIDTH 480 0
DWIDTH 12 0
BBX 12 16 0 -4
BITMAP
0180
0300
0600
3060
3060
3060
3060
3060
3060
3060
18C0
0F80
0000
0000
0000
0000
ENDCHAR
STARTCHAR Ucircumflex
ENCODING 219
SWIDTH 480 0
DWIDTH 12 0
BBX 12 16 0 -4
BITMAP
0700
0D80
0000
3060
3060
3060
3060
3060
3060
3060
18C0
0F80
0000
0000
0000
0000
ENDCHAR
STARTCHAR Udieresis
ENCODING 220
SWIDTH 480 0
DWIDTH 12 0
BBX 12 16 0 -4
BITMAP
3060
3060
0000
3060
3060
3060
3060
3060
3060
3060
18C0
0F80
0000
0000
0000
0000
ENDCHAR
STARTCHAR Yacute
ENCODING 221
SWIDTH 480 0
DWIDTH 12 0
BBX 12 16 0 -4
BITMAP
00C0
0180
0300
1860
1860
0CC0
0780
0300
0300
0300
0300
0300
0000
0000
0000
0000
ENDCHAR
STARTCHAR Thorn
ENCODING 222
SWIDTH 480 0
DWIDTH 12 0
BBX 12 16 0 -4
BITMAP
0000
0000
3000
3000
3FC0
3060
3060
3060
3060
3FC0
3000
3000
0000
0000
0000
0000
ENDCHAR
STARTCHAR germandbls
ENCODING 223
SWIDTH 480 0
DWIDTH 12 0
BBX 12 16 0 -4
BITMAP
0000
0000
0F80
18C0
30C0
30C0
3380
30C0
3060
3060
30C0
3780
3000
0000
0000
0000
ENDCHAR
STARTCHAR agrave
ENCODING 224
SWIDTH 480 0
DWIDTH 12 0
BBX 12 16 0 -4
BITMAP
0000
0C00
0600
0300
0000
1FC0
0060
0060
1FE0
3060
3060
1FE0
0000
0000
0000
0000
ENDCHAR
STARTCHAR aacute
ENCODING 225
SWIDTH 480 0
DWIDTH 12 0
BBX 12 16 0 -4
BITMAP
0000
0180
0300
0600
0000
1FC0
3060
0060
1FE0
3060
3060
1FE0
0000
0000
0000
0000
ENDCHAR
STARTCHAR acircumflex
ENCODING 226
SWIDTH 480 0
DWIDTH 12 0
BBX 12 16 0 -4
BITMAP
0000
0600
0F00
1980
0000
1FC0
0060
0060
1FE0
3060
3060
1FE0
0000
0000
0000
0000
ENDCHAR
STARTCHAR atilde
ENCODING 227
SWIDTH 480 0
DWIDTH 12 0
BBX 12 16 0 -4
BITMAP
0000
0000
0E40
1380
0000
1FC0
0060
0060
1FE0
3060
3060
1FE0
0000
0000
0000
0000
ENDCHAR
STARTCHAR adieresis
ENCODING 228
SWIDTH 480 0
DWIDTH 12 0
BBX 12 16 0 -4
BITMAP
0000
18C0
18C0
0000
0000
1FC0
0060
0060
1FE0
3060
3060
1FE0
0000
0000
0000
0000
ENDCHAR
STARTCHAR aring
ENCODING 229
SWIDTH 480 0
DWIDTH 12 0
BBX 12 16 0 -4
BITMAP
0700
0880
0880
0700
0000
1FC0
0060
0060
1FE0
3060
3060
1FE0
0000
0000
0000
0000
ENDCHAR
STARTCHAR ae
ENCODING 230
SWIDTH 480 0
DWIDTH 12 0
BBX 12 16 0 -4
BITMAP
0000
0000
0000
0000
0000
1EE0
3330
0330
1FF0
3300
3300
1FF0
0000
0000
0000
0000
ENDCHAR
STARTCHAR ccedilla
ENCODING 231
SWIDTH 480 0
DWIDTH 12 0
BBX 12 16 0 -4
BITMAP
0000
0000
0000
0000
0000
0FC0
1860
3000
3000
3000
1860
0FC0
0300
0180
0700
0000
ENDCHAR
STARTCHAR egrave
ENCODING 232
SWIDTH 480 0
DWIDTH 12 0
BBX 12 16 0 -4
BITMAP
0000
0C00
0600
0300
0000
1FC0
3060
3060
3FE0
3000
3000
1FC0
0000
0000
0000
0000
ENDCHAR
STARTCHAR eacute
ENCODING 233
SWIDTH 480 0
DWIDTH 12 0
BBX 12 16 0 -4
BITMAP
0000
0180
0300
0600
0000
1FC0
3060
3060
3FE0
3000
3000
1FC0
0000
0000
0000
0000
ENDCHAR
STARTCHAR ecircumflex
ENCODING 234
SWIDTH 480 0
DWIDTH 12 0
BBX 12 16 0 -4
BITMAP
0000
0200
0700
0D80
0000
1FC0
3060
3060
3FE0
3000
3000
1FC0
0000
0000
0000
0000
ENDCHAR
STARTCHAR edieresis
ENCODING 235
SWIDTH 480 0
DWIDTH 12 0
BBX 12 16 0 -4
BITMAP
0000
18C0
18C0
0000
0000
1FC0
3060
3060
3FE0
3000
3000
1FC0
0000
0000
0000
0000
ENDCHAR
STARTCHAR igrave
ENCODING 236
SWIDTH 480 0
DWIDTH 12 0
BBX 12 16 0 -4
BITMAP
0000
0C00
0600
0300
0000
0F00
0300
0300
0300
0300
0300
0FC0
0000
0000
0000
0000
ENDCHAR
STARTCHAR iacute
ENCODING 237
SWIDTH 480 0
DWIDTH 12 0
BBX 12 16 0 -4
BITMAP
0000
0180
0300
0600
0000
0F00
0300
0300
0300
0300
0300
0FC0
0000
0000
0000
0000
ENDCHAR
STARTCHAR icircumflex
ENCODING 238
SWIDTH 480 0
DWIDTH 12 0
BBX 12 16 0 -4
BITMAP
0000
0300
0780
0CC0
0000
0F00
0300
0300
0300
0300
0300
0FC0
0000
0000
0000
0000
ENDCHAR
STARTCHAR idieresis
ENCODING 239
SWIDTH 480 0
DWIDTH 12 0
BBX 12 16 0 -4
BITMAP
0000
18C0
18C0
0000
0000
0F00
0300
0300
0300
0300
0300
0FC0
0000
0000
0000
0000
ENDCHAR
STARTCHAR eth
ENCODING 240
SWIDTH 480 0
DWIDTH 12 0
BBX 12 16 0 -4
BITMAP
0000
0000
0C00
07C0
1F00
0180
0FC0
18E0
3060
3060
1860
0FC0
0000
0000
0000
0000
ENDCHAR
STARTCHAR ntilde
ENCODING 241
SWIDTH 480 0
DWIDTH 12 0
BBX 12 16 0 -4
BITMAP
0000
0000
0E40
1380
0000
3780
38C0
3060
3060
3060
3060
3060
0000
0000
0000
0000
ENDCHAR
STARTCHAR ograve
ENCODING 242
SWIDTH 480 0
DWIDTH 12 0
BBX 12 16 0 -4
BITMAP
0000
0C00
0600
0300
0000
0F80
18C0
3060
3060
3060
18C0
0F80
0000
0000
0000
0000
ENDCHAR
STARTCHAR oacute
ENCODING 243
SWIDTH 480 0
DWIDTH 12 0
BBX 12 16 0 -4
BITMAP
0000
0180
0300
0600
0000
0F80
18C0
3060
3060
3060
18C0
0F80
0000
0000
0000
0000
ENDCHAR
STARTCHAR ocircumflex
ENCODING 244
SWIDTH 480 0
DWIDTH 12 0
BBX 12 16 0 -4
BITMAP
0000
0200
0700
0D80
0000
0F80
18C0
3060
3060
3060
18C0
0F80
0000
0000
0000
0000
ENDCHAR
STARTCHAR otilde
ENCODING 245
SWIDTH 480 0
DWIDTH 12 0
BBX 12 16 0 -4
BITMAP
0000
0000
0E40
1380
0000
0F80
18C0
3060
3060
3060
18C0
0F80
0000
0000
0000
0000
ENDCHAR
STARTCHAR odieresis
ENCODING 246
SWIDTH 480 0
DWIDTH 12 0
BBX 12 16 0 -4
BITMAP
0000
18C0
18C0
0000
0000
0F80
18C0
3060
3060
3060
18C0
0F80
0000
0000
0000
0000
ENDCHAR
STARTCHAR divide
ENCODING 247
SWIDTH 480 0
DWIDTH 12 0
BBX 12 16 0 -4
BITMAP
0000
0000
0000
0600
0600
0000
3FC0
0000
0600
0600
0000
0000
0000
0000
0000
0000
ENDCHAR
STARTCHAR oslash
ENCODING 248
SWIDTH 480 0
DWIDTH 12 0
BBX 12 16 0 -4
BITMAP
0000
0000
0000
0000
0020
0FC0
18C0
3160
3260
3460
18C0
1F80
2000
0000
0000
0000
ENDCHAR
STARTCHAR ugrave
ENCODING 249
SWIDTH 480 0
DWIDTH 12 0
BBX 12 16 0 -4
BITMAP
0000
0C00
0600
0300
0000
3060
3060
3060
3060
3060
18E0
0F60
0000
0000
0000
0000
ENDCHAR
STARTCHAR uacute
ENCODING 250
SWIDTH 480 0
DWIDTH 12 0
BBX 12 16 0 -4
BITMAP
0000
0180
0300
0600
0000
3060
3060
3060
3060
3060
18E0
0F60
0000
0000
0000
0000
ENDCHAR
STARTCHAR ucircumflex
ENCODING 251
SWIDTH 480 0
DWIDTH 12 0
BBX 12 16 0 -4
BITMAP
0000
0200
0700
0D80
0000
3060
3060
3060
3060
3060
18E0
0F60
0000
0000
0000
0000
ENDCHAR
STARTCHAR udieresis
ENCODING 252
SWIDTH 480 0
DWIDTH 12 0
BBX 12 16 0 -4
BITMAP
0000
3060
3060
0000
0000
3060
3060
3060
3060
3060
18E0
0F60
0000
0000
0000
0000
ENDCHAR
STARTCHAR yacute
ENCODING 253
SWIDTH 480 0
DWIDTH 12 0
BBX 12 16 0 -4
BITMAP
0000
0180
0300
0600
0000
3060
3060
3060
3060
3060
18E0
0F60
0060
00C0
1F80
0000
ENDCHAR
STARTCHAR thorn
ENCODING 254
SWIDTH 480 0
DWIDTH 12 0
BBX 12 16 0 -4
BITMAP
0000
0000
3000
3000
3000
3780
38C0
3060
3060
3060
30C0
3F80
3000
3000
3000
0000
ENDCHAR
STARTCHAR ydieresis
ENCODING 255
SWIDTH 480 0
DWIDTH 12 0
BBX 12 16 0 -4
BITMAP
0000
3060
3060
0000
0000
3060
3060
3060
3060
3060
18E0
0F60
0060
00C0
1F80
0000
ENDCHAR
STARTCHAR Amacron
ENCODING 256
SWIDTH 480 0
DWIDTH 12 0
BBX 12 16 0 -4
BITMAP
1FC0
0000
0F80
18C0
3060
3060
3060
3FE0
3060
3060
3060
3060
0000
0000
0000
0000
ENDCHAR
STARTCHAR amacron
ENCODING 257
SWIDTH 480 0
DWIDTH 12 0
BBX 12 16 0 -4
BITMAP
0000
0000
0000
1FC0
0000
1FC0
0060
0060
1FE0
3060
3060
1FE0
0000
0000
0000
0000
ENDCHAR
STARTCHAR Abreve
ENCODING 258
SWIDTH 480 0
DWIDTH 12 0
BBX 12 16 0 -4
BITMAP
18C0
0F80
0000
0F80
18C0
3060
3060
3060
3FE0
3060
3060
3060
0000
0000
0000
0000
ENDCHAR
STARTCHAR abreve
ENCODING 259
SWIDTH 480 0
DWIDTH 12 0
BBX 12 16 0 -4
BITMAP
0000
18C0
0F80
0000
0000
1FC0
0060
0060
1FE0
3060
3060
1FE0
0000
0000
0000
0000
ENDCHAR
STARTCHAR Aogonek
ENCODING 260
SWIDTH 480 0
DWIDTH 12 0
BBX 12 16 0 -4
BITMAP
0000
0000
0F80
18C0
3060
3060
3060
3FE0
3060
3060
3060
3060
0060
00C0
0070
0000
ENDCHAR
STARTCHAR aogonek
ENCODING 261
SWIDTH 480 0
DWIDTH 12 0
BBX 12 16 0 -4
BITMAP
0000
0000
0000
0000
0000
1FC0
0060
0060
1FE0
3060
3060
1FE0
0060
00C0
0070
0000
ENDCHAR
STARTCHAR Cacute
ENCODING 262
SWIDTH 480 0
DWIDTH 12 0
BBX 12 16 0 -4
BITMAP
01C0
0700
0000
0FC0
1860
3060
3000
3000
3000
3060
1860
0FC0
0000
0000
0000
0000
ENDCHAR
STARTCHAR cacute
ENCODING 263
SWIDTH 480 0
DWIDTH 12 0
BBX 12 16 0 -4
BITMAP
0000
0180
0300
0600
0000
0FC0
1860
3000
3000
3000
1860
0FC0
0000
0000
0000
0000
ENDCHAR
STARTCHAR Ccircumflex
ENCODING 264
SWIDTH 480 0
DWIDTH 12 0
BBX 12 16 0 -4
BITMAP
0700
0D80
0000
0FC0
1860
3060
3000
3000
3000
3060
1860
0FC0
0000
0000
0000
0000
ENDCHAR
STARTCHAR ccircumflex
ENCODING 265
SWIDTH 480 0
DWIDTH 12 0
BBX 12 16 0 -4
BITMAP
0000
0300
0780
0CC0
0000
0FC0
1860
3000
3000
3000
1860
0FC0
0000
0000
0000
0000
ENDCHAR
STARTCHAR Cdotaccent
ENCODING 266
SWIDTH 480 0
DWIDTH 12 0
BBX 12 16 0 -4
BITMAP
0300
0300
0000
0FC0
1860
3060
3000
3000
3000
3060
1860
0FC0
0000
0000
0000
0000
ENDCHAR
STARTCHAR cdotaccent
ENCODING 267
SWIDTH 480 0
DWIDTH 12 0
BBX 12 16 0 -4
BITMAP
0000
0000
0300
0300
0000
0FC0
1860
3000
3000
3000
1860
0FC0
0000
0000
0000
0000
ENDCHAR
STARTCHAR Ccaron
ENCODING 268
SWIDTH 480 0
DWIDTH 12 0
BBX 12 16 0 -4
BITMAP
0D80
0700
0200
0FC0
1860
3060
3000
3000
3000
3060
1860
0FC0
0000
0000
0000
0000
ENDCHAR
STARTCHAR ccaron
ENCODING 269
SWIDTH 480 0
DWIDTH 12 0
BBX 12 16 0 -4
BITMAP
0000
0D80
0700
0200
0000
0FC0
1860
3000
3000
3000
1860
0FC0
0000
0000
0000
0000
ENDCHAR
STARTCHAR Dcaron
ENCODING 270
SWIDTH 480 0
DWIDTH 12 0
BBX 12 16 0 -4
BITMAP
1B00
0E00
0400
3F80
30C0
3060
3060
3060
3060
3060
30C0
3F80
0000
0000
0000
0000
ENDCHAR
STARTCHAR dcaron
ENCODING 271
SWIDTH 480 0
DWIDTH 12 0
BBX 12 16 0 -4
BITMAP
1B00
0E00
0460
0060
0060
0F60
18E0
3060
3060
3060
1860
0FE0
0000
0000
0000
0000
ENDCHAR
STARTCHAR Dcroat
ENCODING 272
SWIDTH 480 0
DWIDTH 12 0
BBX 12 16 0 -4
BITMAP
0000
0000
3F80
30C0
3060
3060
7E60
3060
3060
3060
30C0
3F80
0000
0000
0000
0000
ENDCHAR
STARTCHAR dcroat
ENCODING 273
SWIDTH 480 0
DWIDTH 12 0
BBX 12 16 0 -4
BITMAP
0000
0060
0060
03E0
0060
0F60
18E0
3060
3060
3060
1860
0FE0
0000
0000
0000
0000
ENDCHAR
STARTCHAR Emacron
ENCODING 274
SWIDTH 480 0
DWIDTH 12 0
BBX 12 16 0 -4
BITMAP
1FC0
0000
3FE0
3000
3000
3000
3F80
3000
3000
3000
3000
3FE0
0000
0000
0000
0000
ENDCHAR
STARTCHAR emacron
ENCODING 275
SWIDTH 480 0
DWIDTH 12 0
BBX 12 16 0 -4
BITMAP
0000
0000
0000
1FC0
0000
1FC0
3060
3060
3FE0
3000
3000
1FC0
0000
0000
0000
0000
ENDCHAR
STARTCHAR Ebreve
ENCODING 276
SWIDTH 480 0
DWIDTH 12 0
BBX 12 16 0 -4
BITMAP
18C0
0F80
0000
3FE0
3000
3000
3000
3F80
3000
3000
3000
3FE0
0000
0000
0000
0000
ENDCHAR
STARTCHAR ebreve
ENCODING 277
SWIDTH 480 0
DWIDTH 12 0
BBX 12 16 0 -4
BITMAP
0000
0000
0CC0
0780
0000
1FC0
3060
3060
3FE0
3000
3000
1FC0
0000
0000
0000
0000
ENDCHAR
STARTCHAR Edotaccent
ENCODING 278
SWIDTH 480 0
DWIDTH 12 0
BBX 12 16 0 -4
BITMAP
0300
0300
0000
3FE0
3000
3000
3000
3F80
3000
3000
3000
3FE0
0000
0000
0000
0000
ENDCHAR
STARTCHAR edotaccent
ENCODING 279
SWIDTH 480 0
DWIDTH 12 0
BBX 12 16 0 -4
BITMAP
0000
0000
0600
0600
0000
1FC0
3060
3060
3FE0
3000
3000
1FC0
0000
0000
0000
0000
ENDCHAR
STARTCHAR Eogonek
ENCODING 280
SWIDTH 480 0
DWIDTH 12 0
BBX 12 16 0 -4
BITMAP
0000
0000
3FE0
3000
3000
3000
3F80
3000
3000
3000
3000
3FE0
0180
0300
01C0
0000
ENDCHAR
STARTCHAR eogonek
ENCODING 281
SWIDTH 480 0
DWIDTH 12 0
BBX 12 16 0 -4
BITMAP
0000
0000
0000
0000
0000
1FC0
3060
3060
3FE0
3000
3000
1FC0
0300
0600
0380
0000
ENDCHAR
STARTCHAR Ecaron
ENCODING 282
SWIDTH 480 0
DWIDTH 12 0
BBX 12 16 0 -4
BITMAP
0D80
0700
0200
3FE0
3000
3000
3000
3F00
3000
3000
3000
3FE0
0000
0000
0000
0000
ENDCHAR
STARTCHAR ecaron
ENCODING 283
SWIDTH 480 0
DWIDTH 12 0
BBX 12 16 0 -4
BITMAP
0000
0D80
0700
0200
0000
1FC0
3060
3060
3FE0
3000
3000
1FC0
0000
0000
0000
0000
ENDCHAR
STARTCHAR Gcircumflex
ENCODING 284
SWIDTH 480 0
DWIDTH 12 0
BBX 12 16 0 -4
BITMAP
0700
0D80
0000
0FC0
1860
3060
3000
31E0
3060
3060
1860
0FE0
0000
0000
0000
0000
ENDCHAR
STARTCHAR gcircumflex
ENCODING 285
SWIDTH 480 0
DWIDTH 12 0
BBX 12 16 0 -4
BITMAP
0000
0300
0780
0DC0
0000
0FE0
1860
3060
3060
3060
18E0
0F60
0060
10C0
0F80
0000
ENDCHAR
STARTCHAR Gbreve
ENCODING 286
SWIDTH 480 0
DWIDTH 12 0
BBX 12 16 0 -4
BITMAP
18C0
0F80
0000
0FC0
1860
3060
3000
31E0
3060
3060
1860
0FE0
0000
0000
0000
0000
ENDCHAR
STARTCHAR gbreve
ENCODING 287
SWIDTH 480 0
DWIDTH 12 0
BBX 12 16 0 -4
BITMAP
0000
18C0
0F80
0000
0000
0FE0
1860
3060
3060
3060
18E0
0F60
0060
00C0
1F80
0000
ENDCHAR
STARTCHAR Gdotaccent
ENCODING 288
SWIDTH 480 0
DWIDTH 12 0
BBX 12 16 0 -4
BITMAP
0300
0300
0000
0FC0
1860
3060
3000
31E0
3060
3060
1860
0FE0
0000
0000
0000
0000
ENDCHAR
STARTCHAR gdotaccent
ENCODING 289
SWIDTH 480 0
DWIDTH 12 0
BBX 12 16 0 -4
BITMAP
0000
0000
0300
0300
0000
0FE0
1860
3060
3060
3060
18E0
0F60
0060
10C0
0F80
0000
ENDCHAR
STARTCHAR Gcommaaccent
ENCODING 290
SWIDTH 480 0
DWIDTH 12 0
BBX 12 16 0 -4
BITMAP
0000
0000
0FC0
1860
3060
3000
3000
31E0
3060
3060
1860
0FE0
0000
0300
0600
0000
ENDCHAR
STARTCHAR gcommaaccent
ENCODING 291
SWIDTH 480 0
DWIDTH 12 0
BBX 12 16 0 -4
BITMAP
0000
0000
0180
0300
0000
0FE0
1860
3060
3060
3060
18E0
0F60
0060
10C0
0F80
0000
ENDCHAR
STARTCHAR Hcircumflex
ENCODING 292
SWIDTH 480 0
DWIDTH 12 0
BBX 12 16 0 -4
BITMAP
0700
0D80
0000
3060
3060
3060
3060
3FE0
3060
3060
3060
3060
0000
0000
0000
0000
ENDCHAR
STARTCHAR hcircumflex
ENCODING 293
SWIDTH 480 0
DWIDTH 12 0
BBX 12 16 0 -4
BITMAP
0700
0D80
0000
3000
3000
3000
3780
38C0
3060
3060
3060
3060
0000
0000
0000
0000
ENDCHAR
STARTCHAR Itilde
ENCODING 296
SWIDTH 480 0
DWIDTH 12 0
BBX 12 16 0 -4
BITMAP
0640
0B80
0000
0FC0
0300
0300
0300
0300
0300
0300
0300
0FC0
0000
0000
0000
0000
ENDCHAR
STARTCHAR itilde
ENCODING 297
SWIDTH 480 0
DWIDTH 12 0
BBX 12 16 0 -4
BITMAP
0000
0E20
1B60
11C0
0000
0F00
0300
0300
0300
0300
0300
0FC0
0000
0000
0000
0000
ENDCHAR
STARTCHAR Imacron
ENCODING 298
SWIDTH 480 0
DWIDTH 12 0
BBX 12 16 0 -4
BITMAP
1F80
0000
1F80
0600
0600
0600
0600
0600
0600
0600
0600
1F80
0000
0000
0000
0000
ENDCHAR
STARTCHAR imacron
ENCODING 299
SWIDTH 480 0
DWIDTH 12 0
BBX 12 16 0 -4
BITMAP
0000
0000
0000
0F80
0000
0F00
0300
0300
0300
0300
0300
0FC0
0000
0000
0000
0000
ENDCHAR
STARTCHAR Ibreve
ENCODING 300
SWIDTH 480 0
DWIDTH 12 0
BBX 12 16 0 -4
BITMAP
0CC0
0780
0000
0FC0
0300
0300
0300
0300
0300
0300
0300
0FC0
0000
0000
0000
0000
ENDCHAR
STARTCHAR ibreve
ENCODING 301
SWIDTH 480 0
DWIDTH 12 0
BBX 12 16 0 -4
BITMAP
0000
0000
0CC0
0780
0000
0F00
0300
0300
0300
0300
0300
0FC0
0000
0000
0000
0000
ENDCHAR
STARTCHAR Iogonek
ENCODING 302
SWIDTH 480 0
DWIDTH 12 0
BBX 12 16 0 -4
BITMAP
0000
0000
1F80
0600
0600
0600
0600
0600
0600
0600
0600
1F80
0300
0600
0380
0000
ENDCHAR
STARTCHAR iogonek
ENCODING 303
SWIDTH 480 0
DWIDTH 12 0
BBX 12 16 0 -4
BITMAP
0000
0000
0300
0300
0000
0F00
0300
0300
0300
0300
0300
0FC0
0180
0300
01C0
0000
ENDCHAR
STARTCHAR Idotaccent
ENCODING 304
SWIDTH 480 0
DWIDTH 12 0
BBX 12 16 0 -4
BITMAP
0300
0300
0000
0FC0
0300
0300
0300
0300
0300
0300
0300
0FC0
0000
0000
0000
0000
ENDCHAR
STARTCHAR dotlessi
ENCODING 305
SWIDTH 480 0
DWIDTH 12 0
BBX 12 16 0 -4
BITMAP
0000
0000
0000
0000
0000
0F00
0300
0300
0300
0300
0300
0FC0
0000
0000
0000
0000
ENDCHAR
STARTCHAR ij
ENCODING 307
SWIDTH 480 0
DWIDTH 12 0
BBX 12 16 0 -4
BITMAP
0000
0000
3180
3180
0000
7F80
3180
3180
3180
3180
3180
7980
0180
1980
0F00
0000
ENDCHAR
STARTCHAR Jcircumflex
ENCODING 308
SWIDTH 480 0
DWIDTH 12 0
BBX 12 16 0 -4
BITMAP
01C0
0360
0000
07E0
00C0
00C0
00C0
00C0
00C0
30C0
30C0
1F80
0000
0000
0000
0000
ENDCHAR
STARTCHAR jcircumflex
ENCODING 309
SWIDTH 480 0
DWIDTH 12 0
BBX 12 16 0 -4
BITMAP
0000
0300
0780
0CC0
0000
0780
0180
0180
0180
0180
0180
0180
0180
1980
0F00
0000
ENDCHAR
STARTCHAR Kcommaaccent
ENCODING 310
SWIDTH 480 0
DWIDTH 12 0
BBX 12 16 0 -4
BITMAP
0000
0000
30C0
3180
3300
3600
3C00
3600
3300
3180
30C0
3060
0000
0300
0600
0000
ENDCHAR
STARTCHAR kcommaaccent
ENCODING 311
SWIDTH 480 0
DWIDTH 12 0
BBX 12 16 0 -4
BITMAP
0000
0000
3000
3000
3000
30C0
3180
3300
3F00
3180
30C0
3060
0000
0300
0600
0000
ENDCHAR
STARTCHAR kgreenlandic
ENCODING 312
SWIDTH 480 0
DWIDTH 12 0
BBX 12 16 0 -4
BITMAP
0000
0000
0000
0000
0000
30C0
3180
3300
3F00
3180
30C0
3060
0000
0000
0000
0000
ENDCHAR
STARTCHAR Lacute
ENCODING 313
SWIDTH 480 0
DWIDTH 12 0
BBX 12 16 0 -4
BITMAP
00C0
0180
3300
3000
3000
3000
3000
3000
3000
3000
3000
3FE0
0000
0000
0000
0000
ENDCHAR
STARTCHAR lacute
ENCODING 314
SWIDTH 480 0
DWIDTH 12 0
BBX 12 16 0 -4
BITMAP
0060
00C0
0180
3C00
0C00
0C00
0C00
0C00
0C00
0C00
0C00
0780
0000
0000
0000
0000
ENDCHAR
STARTCHAR Lcommaaccent
ENCODING 315
SWIDTH 480 0
DWIDTH 12 0
BBX 12 16 0 -4
BITMAP
0000
0000
1800
1800
1800
1800
1800
1800
1800
1800
1800
1FE0
0000
0300
0600
0000
ENDCHAR
STARTCHAR lcommaaccent
ENCODING 316
SWIDTH 480 0
DWIDTH 12 0
BBX 12 16 0 -4
BITMAP
0000
0000
1E00
0600
0600
0600
0600
0600
0600
0600
0600
03C0
0000
0300
0600
0000
ENDCHAR
STARTCHAR Lcaron
ENCODING 317
SWIDTH 480 0
DWIDTH 12 0
BBX 12 16 0 -4
BITMAP
0D80
0700
0200
3000
3000
3000
3000
3000
3000
3000
3000
3FE0
0000
0000
0000
0000
ENDCHAR
STARTCHAR lcaron
ENCODING 318
SWIDTH 480 0
DWIDTH 12 0
BBX 12 16 0 -4
BITMAP
06C0
0380
0100
3C00
0C00
0C00
0C00
0C00
0C00
0C00
0C00
0780
0000
0000
0000
0000
ENDCHAR
STARTCHAR Ldot
ENCODING 319
SWIDTH 480 0
DWIDTH 12 0
BBX 12 16 0 -4
BITMAP
0000
0000
1800
1800
1980
1980
1800
1800
1800
1800
1800
1FE0
0000
0000
0000
0000
ENDCHAR
STARTCHAR ldot
ENCODING 320
SWIDTH 480 0
DWIDTH 12 0
BBX 12 16 0 -4
BITMAP
0000
0000
1E00
0600
0660
0660
0600
0600
0600
0600
0600
03C0
0000
0000
0000
0000
ENDCHAR
STARTCHAR Lslash
ENCODING 321
SWIDTH 480 0
DWIDTH 12 0
BBX 12 16 0 -4
BITMAP
0000
0000
1800
1800
1900
1A00
1C00
1800
3800
1800
1800
1FE0
0000
0000
0000
0000
ENDCHAR
STARTCHAR lslash
ENCODING 322
SWIDTH 480 0
DWIDTH 12 0
BBX 12 16 0 -4
BITMAP
0000
0000
1E00
0600
0680
0700
0600
0E00
1600
0600
0600
03C0
0000
0000
0000
0000
ENDCHAR
STARTCHAR Nacute
ENCODING 323
SWIDTH 480 0
DWIDTH 12 0
BBX 12 16 0 -4
BITMAP
0380
0E00
0000
3060
3860
3C60
3660
3360
31E0
30E0
3060
3060
0000
0000
0000
0000
ENDCHAR
STARTCHAR nacute
ENCODING 324
SWIDTH 480 0
DWIDTH 12 0
BBX 12 16 0 -4
BITMAP
0000
0180
0300
0600
0000
3780
38C0
3060
3060
3060
3060
3060
0000
0000
0000
0000
ENDCHAR
STARTCHAR Ncommaaccent
ENCODING 325
SWIDTH 480 0
DWIDTH 12 0
BBX 12 16 0 -4
BITMAP
0000
0000
3060
3860
3C60
3460
3660
3360
3160
31E0
30E0
3060
0000
0300
0600
0000
ENDCHAR
STARTCHAR ncommaaccent
ENCODING 326
SWIDTH 480 0
DWIDTH 12 0
BBX 12 16 0 -4
BITMAP
0000
0000
0000
0000
0000
3780
38C0
3060
3060
3060
3060
3060
0000
0300
0600
0000
ENDCHAR
STARTCHAR Ncaron
ENCODING 327
SWIDTH 480 0
DWIDTH 12 0
BBX 12 16 0 -4
BITMAP
0D80
0700
0200
3060
3860
3C60
3660
3360
31E0
30E0
3060
3060
0000
0000
0000
0000
ENDCHAR
STARTCHAR ncaron
ENCODING 328
SWIDTH 480 0
DWIDTH 12 0
BBX 12 16 0 -4
BITMAP
0000
0D80
0700
0200
0000
3780
38C0
3060
3060
3060
3060
3060
0000
0000
0000
0000
ENDCHAR
STARTCHAR Omacron
ENCODING 332
SWIDTH 480 0
DWIDTH 12 0
BBX 12 16 0 -4
BITMAP
1FC0
0000
0F80
18C0
3060
3060
3060
3060
3060
3060
18C0
0F80
0000
0000
0000
0000
ENDCHAR
STARTCHAR omacron
ENCODING 333
SWIDTH 480 0
DWIDTH 12 0
BBX 12 16 0 -4
BITMAP
0000
0000
0000
1FC0
0000
0F80
18C0
3060
3060
3060
18C0
0F80
0000
0000
0000
0000
ENDCHAR
STARTCHAR Obreve
ENCODING 334
SWIDTH 480 0
DWIDTH 12 0
BBX 12 16 0 -4
BITMAP
0000
0000
0F80
18C0
3060
3060
3060
3060
3060
3060
18C0
0F80
0000
0000
0000
0000
ENDCHAR
STARTCHAR obreve
ENCODING 335
SWIDTH 480 0
DWIDTH 12 0
BBX 12 16 0 -4
BITMAP
0000
0840
0FC0
0780
0000
0F80
18C0
3060
3060
3060
18C0
0F80
0000
0000
0000
0000
ENDCHAR
STARTCHAR Ohungarumlaut
ENCODING 336
SWIDTH 480 0
DWIDTH 12 0
BBX 12 16 0 -4
BITMAP
1CE0
3180
0000
0F80
18C0
3060
3060
3060
3060
3060
18C0
0F80
0000
0000
0000
0000
ENDCHAR
STARTCHAR ohungarumlaut
ENCODING 337
SWIDTH 480 0
DWIDTH 12 0
BBX 12 16 0 -4
BITMAP
0000
0660
0CC0
1980
0000
0F80
18C0
3060
3060
3060
18C0
0F80
0000
0000
0000
0000
ENDCHAR
STARTCHAR OE
ENCODING 338
SWIDTH 480 0
DWIDTH 12 0
BBX 12 16 0 -4
BITMAP
0000
0000
1FE0
3300
3300
3300
33E0
3300
3300
3300
3300
1FE0
0000
0000
0000
0000
ENDCHAR
STARTCHAR oe
ENCODING 339
SWIDTH 480 0
DWIDTH 12 0
BBX 12 16 0 -4
BITMAP
0000
0000
0000
0000
0000
7BE0
C630
C630
C7F0
C600
C630
7DE0
0000
0000
0000
0000
ENDCHAR
STARTCHAR Racute
ENCODING 340
SWIDTH 480 0
DWIDTH 12 0
BBX 12 16 0 -4
BITMAP
0380
0E00
0000
3FC0
3060
3060
3060
3FC0
3180
30C0
30C0
3060
0000
0000
0000
0000
ENDCHAR
STARTCHAR racute
ENCODING 341
SWIDTH 480 0
DWIDTH 12 0
BBX 12 16 0 -4
BITMAP
0000
0180
0300
0600
0000
1BC0
1C60
1800
1800
1800
1800
1800
0000
0000
0000
0000
ENDCHAR
STARTCHAR Rcommaaccent
ENCODING 342
SWIDTH 480 0
DWIDTH 12 0
BBX 12 16 0 -4
BITMAP
0000
0000
3FC0
3060
3060
3060
3060
3FC0
3180
30C0
30C0
3060
0000
0300
0600
0000
ENDCHAR
STARTCHAR rcommaaccent
ENCODING 343
SWIDTH 480 0
DWIDTH 12 0
BBX 12 16 0 -4
BITMAP
0000
0000
0000
0000
0000
1BC0
1C60
1800
1800
1800
1800
1800
0000
0C00
1800
0000
ENDCHAR
STARTCHAR Rcaron
ENCODING 344
SWIDTH 480 0
DWIDTH 12 0
BBX 12 16 0 -4
BITMAP
0D80
0700
0200
3FC0
3060
3060
3060
3FC0
3180
30C0
30C0
3060
0000
0000
0000
0000
ENDCHAR
STARTCHAR rcaron
ENCODING 345
SWIDTH 480 0
DWIDTH 12 0
BBX 12 16 0 -4
BITMAP
0000
0D80
0700
0200
0000
1BC0
1C60
1800
1800
1800
1800
1800
0000
0000
0000
0000
ENDCHAR
STARTCHAR Sacute
ENCODING 346
SWIDTH 480 0
DWIDTH 12 0
BBX 12 16 0 -4
BITMAP
0380
0E00
0000
1FC0
3060
3020
3000
1FC0
0060
2060
3060
1FC0
0000
0000
0000
0000
ENDCHAR
STARTCHAR sacute
ENCODING 347
SWIDTH 480 0
DWIDTH 12 0
BBX 12 16 0 -4
BITMAP
0000
0180
0300
0600
0000
1FC0
3060
3000
1FC0
0060
3060
1FC0
0000
0000
0000
0000
ENDCHAR
STARTCHAR Scircumflex
ENCODING 348
SWIDTH 480 0
DWIDTH 12 0
BBX 12 16 0 -4
BITMAP
0DC0
0000
1FC0
3060
3060
3000
1E00
03C0
0060
3060
3060
1FC0
0000
0000
0000
0000
ENDCHAR
STARTCHAR scircumflex
ENCODING 349
SWIDTH 480 0
DWIDTH 12 0
BBX 12 16 0 -4
BITMAP
0000
0300
0780
0DC0
0000
1FC0
3060
3000
1FC0
0060
3060
1FC0
0000
0000
0000
0000
ENDCHAR
STARTCHAR Scedilla
ENCODING 350
SWIDTH 480 0
DWIDTH 12 0
BBX 12 16 0 -4
BITMAP
0000
0000
1FC0
3060
3060
3000
1E00
03C0
0060
3060
3060
1FC0
0300
0180
0700
0000
ENDCHAR
STARTCHAR scedilla
ENCODING 351
SWIDTH 480 0
DWIDTH 12 0
BBX 12 16 0 -4
BITMAP
0000
0000
0000
0000
0000
1FC0
3060
3000
1FC0
0060
3060
1FC0
0300
0180
0700
0000
ENDCHAR
STARTCHAR Scaron
ENCODING 352
SWIDTH 480 0
DWIDTH 12 0
BBX 12 16 0 -4
BITMAP
0D80
0700
0200
1FC0
3060
3000
3000
1FC0
0060
0060
3060
1FC0
0000
0000
0000
0000
ENDCHAR
STARTCHAR scaron
ENCODING 353
SWIDTH 480 0
DWIDTH 12 0
BBX 12 16 0 -4
BITMAP
0000
0D80
0700
0200
0000
1FC0
3060
3000
1FC0
0060
3060
1FC0
0000
0000
0000
0000
ENDCHAR
STARTCHAR Tcommaaccent
ENCODING 354
SWIDTH 480 0
DWIDTH 12 0
BBX 12 16 0 -4
BITMAP
0000
0000
3FC0
0600
0600
0600
0600
0600
0600
0600
0600
0600
0300
0180
0700
0000
ENDCHAR
STARTCHAR tcommaaccent
ENCODING 355
SWIDTH 480 0
DWIDTH 12 0
BBX 12 16 0 -4
BITMAP
0000
0000
0600
0600
0600
1FC0
0600
0600
0600
0600
0600
03C0
0180
00C0
0380
0000
ENDCHAR
STARTCHAR Tcaron
ENCODING 356
SWIDTH 480 0
DWIDTH 12 0
BBX 12 16 0 -4
BITMAP
0D80
0700
0200
3FC0
0600
0600
0600
0600
0600
0600
0600
0600
0000
0000
0000
0000
ENDCHAR
STARTCHAR tcaron
ENCODING 357
SWIDTH 480 0
DWIDTH 12 0
BBX 12 16 0 -4
BITMAP
06C0
0380
0100
0600
0600
1FC0
0600
0600
0600
0600
0600
03C0
0000
0000
0000
0000
ENDCHAR
STARTCHAR Tbar
ENCODING 358
SWIDTH 480 0
DWIDTH 12 0
BBX 12 16 0 -4
BITMAP
0000
0000
3FC0
0600
0600
0600
1F80
0600
0600
0600
0600
0600
0000
0000
0000
0000
ENDCHAR
STARTCHAR tbar
ENCODING 359
SWIDTH 480 0
DWIDTH 12 0
BBX 12 16 0 -4
BITMAP
0000
0000
0600
0600
0600
1FC0
0600
0600
1F80
0600
0600
03C0
0000
0000
0000
0000
ENDCHAR
STARTCHAR Utilde
ENCODING 360
SWIDTH 480 0
DWIDTH 12 0
BBX 12 16 0 -4
BITMAP
0F20
11C0
0000
3060
3060
3060
3060
3060
3060
3060
18C0
0F80
0000
0000
0000
0000
ENDCHAR
STARTCHAR utilde
ENCODING 361
SWIDTH 480 0
DWIDTH 12 0
BBX 12 16 0 -4
BITMAP
0000
0E20
1B60
11C0
0000
3060
3060
3060
3060
3060
18E0
0F60
0000
0000
0000
0000
ENDCHAR
STARTCHAR Umacron
ENCODING 362
SWIDTH 480 0
DWIDTH 12 0
BBX 12 16 0 -4
BITMAP
1FC0
0000
3060
3060
3060
3060
3060
3060
3060
3060
18C0
0F80
0000
0000
0000
0000
ENDCHAR
STARTCHAR umacron
ENCODING 363
SWIDTH 480 0
DWIDTH 12 0
BBX 12 16 0 -4
BITMAP
0000
0000
0000
1FC0
0000
3060
3060
3060
3060
3060
18E0
0F60
0000
0000
0000
0000
ENDCHAR
STARTCHAR Ubreve
ENCODING 364
SWIDTH 480 0
DWIDTH 12 0
BBX 12 16 0 -4
BITMAP
18C0
0F80
0000
3060
3060
3060
3060
3060
3060
3060
18C0
0F80
0000
0000
0000
0000
ENDCHAR
STARTCHAR ubreve
ENCODING 365
SWIDTH 480 0
DWIDTH 12 0
BBX 12 16 0 -4
BITMAP
0000
0840
0FC0
0780
0000
3060
3060
3060
3060
3060
18E0
0F60
0000
0000
0000
0000
ENDCHAR
STARTCHAR Uring
ENCODING 366
SWIDTH 480 0
DWIDTH 12 0
BBX 12 16 0 -4
BITMAP
0700
0880
0880
3760
3060
3060
3060
3060
3060
3060
18C0
0F80
0000
0000
0000
0000
ENDCHAR
STARTCHAR uring
ENCODING 367
SWIDTH 480 0
DWIDTH 12 0
BBX 12 16 0 -4
BITMAP
0700
0880
0880
0700
0000
3060
3060
3060
3060
3060
18E0
0F60
0000
0000
0000
0000
ENDCHAR
STARTCHAR Uhungarumlaut
ENCODING 368
SWIDTH 480 0
DWIDTH 12 0
BBX 12 16 0 -4
BITMAP
1CE0
3180
0000
3060
3060
3060
3060
3060
3060
3060
18C0
0F80
0000
0000
0000
0000
ENDCHAR
STARTCHAR uhungarumlaut
ENCODING 369
SWIDTH 480 0
DWIDTH 12 0
BBX 12 16 0 -4
BITMAP
0000
0C60
18C0
3180
0000
3060
3060
3060
3060
3060
18E0
0F60
0000
0000
0000
0000
ENDCHAR
STARTCHAR Uogonek
ENCODING 370
SWIDTH 480 0
DWIDTH 12 0
BBX 12 16 0 -4
BITMAP
0000
0000
3060
3060
3060
3060
3060
3060
3060
3060
18C0
0F80
0180
0300
01C0
0000
ENDCHAR
STARTCHAR uogonek
ENCODING 371
SWIDTH 480 0
DWIDTH 12 0
BBX 12 16 0 -4
BITMAP
0000
0000
0000
0000
0000
3060
3060
3060
3060
3060
18E0
0F60
0060
00C0
0070
0000
ENDCHAR
STARTCHAR Wcircumflex
ENCODING 372
SWIDTH 480 0
DWIDTH 12 0
BBX 12 16 0 -4
BITMAP
0700
0D80
0000
6060
6060
6060
6060
6660
6F60
6960
39C0
30C0
0000
0000
0000
0000
ENDCHAR
STARTCHAR wcircumflex
ENCODING 373
SWIDTH 480 0
DWIDTH 12 0
BBX 12 16 0 -4
BITMAP
0000
0300
0780
0CC0
0000
3060
3060
3260
3260
3760
3DE0
18C0
0000
0000
0000
0000
ENDCHAR
STARTCHAR Ycircumflex
ENCODING 374
SWIDTH 480 0
DWIDTH 12 0
BBX 12 16 0 -4
BITMAP
0700
0D80
0000
30C0
30C0
1980
0F00
0600
0600
0600
0600
0600
0000
0000
0000
0000
ENDCHAR
STARTCHAR ycircumflex
ENCODING 375
SWIDTH 480 0
DWIDTH 12 0
BBX 12 16 0 -4
BITMAP
0000
0300
0780
0DC0
0000
3060
3060
3060
3060
3060
18E0
0F60
0060
10C0
0F80
0000
ENDCHAR
STARTCHAR Ydieresis
ENCODING 376
SWIDTH 480 0
DWIDTH 12 0
BBX 12 16 0 -4
BITMAP
30C0
30C0
0000
30C0
30C0
1980
0F00
0600
0600
0600
0600
0600
0000
0000
0000
0000
ENDCHAR
STARTCHAR Zacute
ENCODING 377
SWIDTH 480 0
DWIDTH 12 0
BBX 12 16 0 -4
BITMAP
0380
0E00
0000
3FE0
00C0
0180
0300
0600
0C00
1800
3000
3FE0
0000
0000
0000
0000
ENDCHAR
STARTCHAR zacute
ENCODING 378
SWIDTH 480 0
DWIDTH 12 0
BBX 12 16 0 -4
BITMAP
0000
0180
0300
0600
0000
3FE0
0060
01C0
0700
1C00
3000
3FE0
0000
0000
0000
0000
ENDCHAR
STARTCHAR Zdotaccent
ENCODING 379
SWIDTH 480 0
DWIDTH 12 0
BBX 12 16 0 -4
BITMAP
0600
0600
0000
3FE0
00C0
0180
0300
0600
0C00
1800
3000
3FE0
0000
0000
0000
0000
ENDCHAR
STARTCHAR zdotaccent
ENCODING 380
SWIDTH 480 0
DWIDTH 12 0
BBX 12 16 0 -4
BITMAP
0000
0000
0600
0600
0000
3FE0
0060
01C0
0700
1C00
3000
3FE0
0000
0000
0000
0000
ENDCHAR
STARTCHAR Zcaron
ENCODING 381
SWIDTH 480 0
DWIDTH 12 0
BBX 12 16 0 -4
BITMAP
0D80
0700
0200
3FE0
00C0
0180
0300
0600
0C00
1800
3000
3FE0
0000
0000
0000
0000
ENDCHAR
STARTCHAR zcaron
ENCODING 382
SWIDTH 480 0
DWIDTH 12 0
BBX 12 16 0 -4
BITMAP
0000
0D80
0700
0200
0000
3FE0
0060
01C0
0700
1C00
3000
3FE0
0000
0000
0000
0000
ENDCHAR
STARTCHAR longs
ENCODING 383
SWIDTH 480 0
DWIDTH 12 0
BBX 12 16 0 -4
BITMAP
0000
0000
01C0
0360
0300
0300
0F00
0300
0300
0300
0300
0300
0300
1B00
0E00
0000
ENDCHAR
STARTCHAR florin
ENCODING 402
SWIDTH 480 0
DWIDTH 12 0
BBX 12 16 0 -4
BITMAP
0000
0000
01C0
0360
0300
0300
0FC0
0300
0300
0300
0300
0300
0300
1B00
0E00
0000
ENDCHAR
STARTCHAR uni01DD
ENCODING 477
SWIDTH 480 0
DWIDTH 12 0
BBX 12 16 0 -4
BITMAP
0000
0000
0F00
1980
00C0
0060
0FE0
18E0
3060
3060
18C0
0F80
0000
0000
0000
0000
ENDCHAR
STARTCHAR Gcaron
ENCODING 486
SWIDTH 480 0
DWIDTH 12 0
BBX 12 16 0 -4
BITMAP
0D80
0700
0000
0FC0
1860
3060
3000
31E0
3060
3060
1860
0FE0
0000
0000
0000
0000
ENDCHAR
STARTCHAR gcaron
ENCODING 487
SWIDTH 480 0
DWIDTH 12 0
BBX 12 16 0 -4
BITMAP
0000
0CC0
0780
0300
0000
0FE0
1860
3060
3060
3060
18E0
0F60
0060
10C0
0F80
0000
ENDCHAR
STARTCHAR Scommaaccent
ENCODING 536
SWIDTH 480 0
DWIDTH 12 0
BBX 12 16 0 -4
BITMAP
0000
0000
1FC0
3060
3060
3000
1E00
03C0
0060
3060
3060
1FC0
0300
0180
0F00
0000
ENDCHAR
STARTCHAR scommaaccent
ENCODING 537
SWIDTH 480 0
DWIDTH 12 0
BBX 12 16 0 -4
BITMAP
0000
0000
0000
0000
0000
1FC0
3060
3000
1FC0
0060
3060
1FC0
0300
0180
0F00
0000
ENDCHAR
STARTCHAR circumflex
ENCODING 710
SWIDTH 480 0
DWIDTH 12 0
BBX 12 16 0 -4
BITMAP
0000
0300
0780
0DC0
0000
0000
0000
0000
0000
0000
0000
0000
0000
0000
0000
0000
ENDCHAR
STARTCHAR caron
ENCODING 711
SWIDTH 480 0
DWIDTH 12 0
BBX 12 16 0 -4
BITMAP
0000
0CC0
0780
0300
0000
0000
0000
0000
0000
0000
0000
0000
0000
0000
0000
0000
ENDCHAR
STARTCHAR breve
ENCODING 728
SWIDTH 480 0
DWIDTH 12 0
BBX 12 16 0 -4
BITMAP
0000
0000
1080
1F80
0F00
0000
0000
0000
0000
0000
0000
0000
0000
0000
0000
0000
ENDCHAR
STARTCHAR dotaccent
ENCODING 729
SWIDTH 480 0
DWIDTH 12 0
BBX 12 16 0 -4
BITMAP
0000
0600
0600
0000
0000
0000
0000
0000
0000
0000
0000
0000
0000
0000
0000
0000
ENDCHAR
STARTCHAR ring
ENCODING 730
SWIDTH 480 0
DWIDTH 12 0
BBX 12 16 0 -4
BITMAP
0000
0780
0CC0
0CC0
0780
0000
0000
0000
0000
0000
0000
0000
0000
0000
0000
0000
ENDCHAR
STARTCHAR ogonek
ENCODING 731
SWIDTH 480 0
DWIDTH 12 0
BBX 12 16 0 -4
BITMAP
0000
0000
0000
0000
0000
0000
0000
0000
0000
0000
0000
0200
0600
0C00
0700
0000
ENDCHAR
STARTCHAR tilde
ENCODING 732
SWIDTH 480 0
DWIDTH 12 0
BBX 12 16 0 -4
BITMAP
0000
0E20
1B60
11C0
0000
0000
0000
0000
0000
0000
0000
0000
0000
0000
0000
0000
ENDCHAR
STARTCHAR hungarumlaut
ENCODING 733
SWIDTH 480 0
DWIDTH 12 0
BBX 12 16 0 -4
BITMAP
0000
0C60
18C0
3180
0000
0000
0000
0000
0000
0000
0000
0000
0000
0000
0000
0000
ENDCHAR
STARTCHAR uni0308
ENCODING 776
SWIDTH 480 0
DWIDTH 12 0
BBX 12 16 0 -4
BITMAP
0000
18C0
18C0
0000
0000
0000
0000
0000
0000
0000
0000
0000
0000
0000
0000
0000
ENDCHAR
STARTCHAR uni030B
ENCODING 779
SWIDTH 480 0
DWIDTH 12 0
BBX 12 16 0 -4
BITMAP
0000
0C60
18C0
3180
0000
0000
0000
0000
0000
0000
0000
0000
0000
0000
0000
0000
ENDCHAR
STARTCHAR tonos
ENCODING 900
SWIDTH 480 0
DWIDTH 12 0
BBX 12 16 0 -4
BITMAP
0000
0180
0300
0600
0000
0000
0000
0000
0000
0000
0000
0000
0000
0000
0000
0000
ENDCHAR
STARTCHAR dieresistonos
ENCODING 901
SWIDTH 480 0
DWIDTH 12 0
BBX 12 16 0 -4
BITMAP
0000
0180
0300
0600
30C0
30C0
0000
0000
0000
0000
0000
0000
0000
0000
0000
0000
ENDCHAR
STARTCHAR Alphatonos
ENCODING 902
SWIDTH 480 0
DWIDTH 12 0
BBX 12 16 0 -4
BITMAP
0000
0000
6780
4CC0
5860
1860
1860
1FE0
1860
1860
1860
1860
0000
0000
0000
0000
ENDCHAR
STARTCHAR anoteleia
ENCODING 903
SWIDTH 480 0
DWIDTH 12 0
BBX 12 16 0 -4
BITMAP
0000
0000
0000
0000
0000
0000
0300
0300
0000
0000
0000
0000
0000
0000
0000
0000
ENDCHAR
STARTCHAR Epsilontonos
ENCODING 904
SWIDTH 480 0
DWIDTH 12 0
BBX 12 16 0 -4
BITMAP
0000
0000
7FE0
5800
5800
1800
1F80
1800
1800
1800
1800
1FE0
0000
0000
0000
0000
ENDCHAR
STARTCHAR Etatonos
ENCODING 905
SWIDTH 480 0
DWIDTH 12 0
BBX 12 16 0 -4
BITMAP
0000
0000
7860
5860
5860
1860
1FE0
1860
1860
1860
1860
1860
0000
0000
0000
0000
ENDCHAR
STARTCHAR Iotatonos
ENCODING 906
SWIDTH 480 0
DWIDTH 12 0
BBX 12 16 0 -4
BITMAP
0000
0000
6FC0
4300
4300
0300
0300
0300
0300
0300
0300
0FC0
0000
0000
0000
0000
ENDCHAR
STARTCHAR Omicrontonos
ENCODING 908
SWIDTH 480 0
DWIDTH 12 0
BBX 12 16 0 -4
BITMAP
0000
0000
6F80
58C0
7060
3060
3060
3060
3060
3060
18C0
0F80
0000
0000
0000
0000
ENDCHAR
STARTCHAR Upsilontonos
ENCODING 910
SWIDTH 480 0
DWIDTH 12 0
BBX 12 16 0 -4
BITMAP
0000
0000
7860
5860
5860
1860
0CC0
0780
0300
0300
0300
0300
0000
0000
0000
0000
ENDCHAR
STARTCHAR Omegatonos
ENCODING 911
SWIDTH 480 0
DWIDTH 12 0
BBX 12 16 0 -4
BITMAP
0000
0000
6F80
58C0
7060
3060
3060
3060
3060
18C0
0880
38E0
0000
0000
0000
0000
ENDCHAR
STARTCHAR iotadieresistonos
ENCODING 912
SWIDTH 480 0
DWIDTH 12 0
BBX 12 16 0 -4
BITMAP
0180
0300
0600
3060
3060
0600
0600
0600
0600
0600
0600
0380
0000
0000
0000
0000
ENDCHAR
STARTCHAR Alpha
ENCODING 913
SWIDTH 480 0
DWIDTH 12 0
BBX 12 16 0 -4
BITMAP
0000
0000
0F80
18C0
3060
3060
3060
3FE0
3060
3060
3060
3060
0000
0000
0000
0000
ENDCHAR
STARTCHAR Beta
ENCODING 914
SWIDTH 480 0
DWIDTH 12 0
BBX 12 16 0 -4
BITMAP
0000
0000
3FC0
3060
3060
3060
3FC0
3060
3060
3060
3060
3FC0
0000
0000
0000
0000
ENDCHAR
STARTCHAR Gamma
ENCODING 915
SWIDTH 480 0
DWIDTH 12 0
BBX 12 16 0 -4
BITMAP
0000
0000
1FE0
1800
1800
1800
1800
1800
1800
1800
1800
1800
0000
0000
0000
0000
ENDCHAR
STARTCHAR Delta
ENCODING 916
SWIDTH 480 0
DWIDTH 12 0
BBX 12 16 0 -4
BITMAP
0000
0000
0700
0D80
18C0
3060
3060
3060
3060
3060
3060
3FE0
0000
0000
0000
0000
ENDCHAR
STARTCHAR Epsilon
ENCODING 917
SWIDTH 480 0
DWIDTH 12 0
BBX 12 16 0 -4
BITMAP
0000
0000
3FE0
3000
3000
3000
3F80
3000
3000
3000
3000
3FE0
0000
0000
0000
0000
ENDCHAR
STARTCHAR Zeta
ENCODING 918
SWIDTH 480 0
DWIDTH 12 0
BBX 12 16 0 -4
BITMAP
0000
0000
3FE0
0060
00C0
0180
0300
0600
0C00
1800
3000
3FE0
0000
0000
0000
0000
ENDCHAR
STARTCHAR Eta
ENCODING 919
SWIDTH 480 0
DWIDTH 12 0
BBX 12 16 0 -4
BITMAP
0000
0000
3060
3060
3060
3060
3FE0
3060
3060
3060
3060
3060
0000
0000
0000
0000
ENDCHAR
STARTCHAR Theta
ENCODING 920
SWIDTH 480 0
DWIDTH 12 0
BBX 12 16 0 -4
BITMAP
0000
0000
0F80
18C0
3060
1860
0FE0
3060
3060
3060
18C0
0F80
0000
0000
0000
0000
ENDCHAR
STARTCHAR Iota
ENCODING 921
SWIDTH 480 0
DWIDTH 12 0
BBX 12 16 0 -4
BITMAP
0000
0000
1F80
0600
0600
0600
0600
0600
0600
0600
0600
1F80
0000
0000
0000
0000
ENDCHAR
STARTCHAR Kappa
ENCODING 922
SWIDTH 480 0
DWIDTH 12 0
BBX 12 16 0 -4
BITMAP
0000
0000
30C0
3180
3300
3600
3C00
3600
3300
3180
30C0
3060
0000
0000
0000
0000
ENDCHAR
STARTCHAR Lambda
ENCODING 923
SWIDTH 480 0
DWIDTH 12 0
BBX 12 16 0 -4
BITMAP
0000
0000
0700
0700
0D80
0D80
18C0
18C0
18C0
3060
3060
3060
0000
0000
0000
0000
ENDCHAR
STARTCHAR Mu
ENCODING 924
SWIDTH 480 0
DWIDTH 12 0
BBX 12 16 0 -4
BITMAP
0000
0000
3060
3060
38E0
3DE0
3760
3260
3060
3060
3060
3060
0000
0000
0000
0000
ENDCHAR
STARTCHAR Nu
ENCODING 925
SWIDTH 480 0
DWIDTH 12 0
BBX 12 16 0 -4
BITMAP
0000
0000
3060
3860
3C60
3460
3660
3360
3160
31E0
30E0
3060
0000
0000
0000
0000
ENDCHAR
STARTCHAR Xi
ENCODING 926
SWIDTH 480 0
DWIDTH 12 0
BBX 12 16 0 -4
BITMAP
0000
0000
3FE0
3FE0
0000
0000
0F80
0F80
0000
0000
3FE0
3FE0
0000
0000
0000
0000
ENDCHAR
STARTCHAR Omicron
ENCODING 927
SWIDTH 480 0
DWIDTH 12 0
BBX 12 16 0 -4
BITMAP
0000
0000
0F80
18C0
3060
3060
3060
3060
3060
3060
18C0
0F80
0000
0000
0000
0000
ENDCHAR
STARTCHAR Pi
ENCODING 928
SWIDTH 480 0
DWIDTH 12 0
BBX 12 16 0 -4
BITMAP
0000
0000
3FE0
3060
3060
3060
3060
3060
3060
3060
3060
3060
0000
0000
0000
0000
ENDCHAR
STARTCHAR Rho
ENCODING 929
SWIDTH 480 0
DWIDTH 12 0
BBX 12 16 0 -4
BITMAP
0000
0000
3FC0
3060
3060
3060
3060
3FC0
3000
3000
3000
3000
0000
0000
0000
0000
ENDCHAR
STARTCHAR Sigma
ENCODING 931
SWIDTH 480 0
DWIDTH 12 0
BBX 12 16 0 -4
BITMAP
0000
0000
3FE0
1800
0C00
0600
0300
0300
0600
0C00
1800
3FE0
0000
0000
0000
0000
ENDCHAR
STARTCHAR Tau
ENCODING 932
SWIDTH 480 0
DWIDTH 12 0
BBX 12 16 0 -4
BITMAP
0000
0000
3FC0
0600
0600
0600
0600
0600
0600
0600
0600
0600
0000
0000
0000
0000
ENDCHAR
STARTCHAR Upsilon
ENCODING 933
SWIDTH 480 0
DWIDTH 12 0
BBX 12 16 0 -4
BITMAP
0000
0000
6060
6060
30C0
1980
0F00
0600
0600
0600
0600
0600
0000
0000
0000
0000
ENDCHAR
STARTCHAR Phi
ENCODING 934
SWIDTH 480 0
DWIDTH 12 0
BBX 12 16 0 -4
BITMAP
0000
0000
0600
0600
3FC0
6660
6660
6660
6660
3FC0
0600
0600
0000
0000
0000
0000
ENDCHAR
STARTCHAR Chi
ENCODING 935
SWIDTH 480 0
DWIDTH 12 0
BBX 12 16 0 -4
BITMAP
0000
0000
3060
3060
18C0
0D80
0700
0700
0D80
18C0
3060
3060
0000
0000
0000
0000
ENDCHAR
STARTCHAR Psi
ENCODING 936
SWIDTH 480 0
DWIDTH 12 0
BBX 12 16 0 -4
BITMAP
0000
0000
6060
6060
6660
6660
6660
6660
6660
3FC0
0600
0600
0000
0000
0000
0000
ENDCHAR
STARTCHAR Omega
ENCODING 937
SWIDTH 480 0
DWIDTH 12 0
BBX 12 16 0 -4
BITMAP
0000
0000
0F80
18C0
3060
3060
3060
3060
3060
18C0
0880
38E0
0000
0000
0000
0000
ENDCHAR
STARTCHAR Iotadieresis
ENCODING 938
SWIDTH 480 0
DWIDTH 12 0
BBX 12 16 0 -4
BITMAP
1980
1980
0000
1F80
0600
0600
0600
0600
0600
0600
0600
1F80
0000
0000
0000
0000
ENDCHAR
STARTCHAR Upsilondieresis
ENCODING 939
SWIDTH 480 0
DWIDTH 12 0
BBX 12 16 0 -4
BITMAP
30C0
30C0
0000
30C0
30C0
30C0
1980
0F00
0600
0600
0600
0600
0000
0000
0000
0000
ENDCHAR
STARTCHAR alphatonos
ENCODING 940
SWIDTH 480 0
DWIDTH 12 0
BBX 12 16 0 -4
BITMAP
0000
0180
0300
0600
0000
1F60
31C0
3180
3180
3180
31C0
1F60
0000
0000
0000
0000
ENDCHAR
STARTCHAR epsilontonos
ENCODING 941
SWIDTH 480 0
DWIDTH 12 0
BBX 12 16 0 -4
BITMAP
0000
0180
0300
0600
0000
1FC0
3020
3000
1F80
3000
3020
1FC0
0000
0000
0000
0000
ENDCHAR
STARTCHAR etatonos
ENCODING 942
SWIDTH 480 0
DWIDTH 12 0
BBX 12 16 0 -4
BITMAP
0000
0180
0300
0600
0000
3780
38C0
3060
3060
3060
3060
3060
0060
0060
0000
0000
ENDCHAR
STARTCHAR iotatonos
ENCODING 943
SWIDTH 480 0
DWIDTH 12 0
BBX 12 16 0 -4
BITMAP
0000
0300
0600
0C00
0000
0C00
0C00
0C00
0C00
0C00
0C00
0700
0000
0000
0000
0000
ENDCHAR
STARTCHAR upsilondieresistonos
ENCODING 944
SWIDTH 480 0
DWIDTH 12 0
BBX 12 16 0 -4
BITMAP
0180
0300
3660
3060
0000
3060
3060
3060
3060
3060
18C0
0F80
0000
0000
0000
0000
ENDCHAR
STARTCHAR alpha
ENCODING 945
SWIDTH 480 0
DWIDTH 12 0
BBX 12 16 0 -4
BITMAP
0000
0000
0000
0000
0000
0E60
1BC0
3180
3180
3180
1BC0
0E60
0000
0000
0000
0000
ENDCHAR
STARTCHAR beta
ENCODING 946
SWIDTH 480 0
DWIDTH 12 0
BBX 12 16 0 -4
BITMAP
0000
0000
1F80
30C0
30C0
30C0
3F80
30C0
3060
3060
38C0
3780
3000
3000
3000
0000
ENDCHAR
STARTCHAR gamma
ENCODING 947
SWIDTH 480 0
DWIDTH 12 0
BBX 12 16 0 -4
BITMAP
0000
0000
0000
0000
0000
18C0
18C0
18C0
0F80
0F80
18C0
18C0
18C0
18C0
0F80
0000
ENDCHAR
STARTCHAR delta
ENCODING 948
SWIDTH 480 0
DWIDTH 12 0
BBX 12 16 0 -4
BITMAP
0000
0000
0FC0
0C00
0600
0300
1F80
30C0
30C0
30C0
30C0
1F80
0000
0000
0000
0000
ENDCHAR
STARTCHAR epsilon
ENCODING 949
SWIDTH 480 0
DWIDTH 12 0
BBX 12 16 0 -4
BITMAP
0000
0000
0000
0000
0000
1FC0
3020
3000
1F80
3000
3020
1FC0
0000
0000
0000
0000
ENDCHAR
STARTCHAR zeta
ENCODING 950
SWIDTH 480 0
DWIDTH 12 0
BBX 12 16 0 -4
BITMAP
0000
0000
3FC0
0380
0C00
1800
3000
3000
3000
1800
0F80
00C0
00C0
0F80
0000
0000
ENDCHAR
STARTCHAR eta
ENCODING 951
SWIDTH 480 0
DWIDTH 12 0
BBX 12 16 0 -4
BITMAP
0000
0000
0000
0000
0000
3780
38C0
3060
3060
3060
3060
3060
0060
0060
0000
0000
ENDCHAR
STARTCHAR theta
ENCODING 952
SWIDTH 480 0
DWIDTH 12 0
BBX 12 16 0 -4
BITMAP
0000
0000
1F80
30C0
30C0
30C0
1FC0
30C0
30C0
30C0
39C0
1F80
0000
0000
0000
0000
ENDCHAR
STARTCHAR iota
ENCODING 953
SWIDTH 480 0
DWIDTH 12 0
BBX 12 16 0 -4
BITMAP
0000
0000
0000
0000
0000
0C00
0C00
0C00
0C00
0C00
0C00
0700
0000
0000
0000
0000
ENDCHAR
STARTCHAR kappa
ENCODING 954
SWIDTH 480 0
DWIDTH 12 0
BBX 12 16 0 -4
BITMAP
0000
0000
0000
0000
0000
30C0
3180
3300
3F00
3180
30C0
3060
0000
0000
0000
0000
ENDCHAR
STARTCHAR lambda
ENCODING 955
SWIDTH 480 0
DWIDTH 12 0
BBX 12 16 0 -4
BITMAP
0000
0000
1F80
30C0
00C0
00C0
1FC0
30C0
30C0
30C0
30C0
30C0
0000
0000
0000
0000
ENDCHAR
STARTCHAR mu
ENCODING 956
SWIDTH 480 0
DWIDTH 12 0
BBX 12 16 0 -4
BITMAP
0000
0000
0000
0000
0000
30C0
30C0
30C0
30C0
30C0
30C0
3F60
3000
3000
3000
0000
ENDCHAR
STARTCHAR nu
ENCODING 957
SWIDTH 480 0
DWIDTH 12 0
BBX 12 16 0 -4
BITMAP
0000
0000
0000
0000
0000
3060
3060
3060
18C0
0D80
0700
0200
0000
0000
0000
0000
ENDCHAR
STARTCHAR xi
ENCODING 958
SWIDTH 480 0
DWIDTH 12 0
BBX 12 16 0 -4
BITMAP
0000
0000
3FC0
0C00
1800
3000
1E00
1E00
3000
1800
0F80
00C0
00C0
0F80
0000
0000
ENDCHAR
STARTCHAR omicron
ENCODING 959
SWIDTH 480 0
DWIDTH 12 0
BBX 12 16 0 -4
BITMAP
0000
0000
0000
0000
0000
0F80
18C0
3060
3060
3060
18C0
0F80
0000
0000
0000
0000
ENDCHAR
STARTCHAR pi
ENCODING 960
SWIDTH 480 0
DWIDTH 12 0
BBX 12 16 0 -4
BITMAP
0000
0000
0000
0000
0000
3FE0
18C0
18C0
18C0
18C0
18C0
18C0
0000
0000
0000
0000
ENDCHAR
STARTCHAR rho
ENCODING 961
SWIDTH 480 0
DWIDTH 12 0
BBX 12 16 0 -4
BITMAP
0000
0000
0000
0000
0000
1F80
38C0
3060
3060
3060
38C0
3780
3000
3000
3000
0000
ENDCHAR
STARTCHAR sigma1
ENCODING 962
SWIDTH 480 0
DWIDTH 12 0
BBX 12 16 0 -4
BITMAP
0000
0000
0000
0000
0000
0FC0
1800
3000
3000
3000
1F80
00C0
00C0
0780
0000
0000
ENDCHAR
STARTCHAR sigma
ENCODING 963
SWIDTH 480 0
DWIDTH 12 0
BBX 12 16 0 -4
BITMAP
0000
0000
0000
0000
0000
0FE0
1980
30C0
30C0
30C0
1980
0F00
0000
0000
0000
0000
ENDCHAR
STARTCHAR tau
ENCODING 964
SWIDTH 480 0
DWIDTH 12 0
BBX 12 16 0 -4
BITMAP
0000
0000
0000
0000
0000
1FE0
0300
0300
0300
0300
0300
0300
0000
0000
0000
0000
ENDCHAR
STARTCHAR upsilon
ENCODING 965
SWIDTH 480 0
DWIDTH 12 0
BBX 12 16 0 -4
BITMAP
0000
0000
0000
0000
0000
3060
3060
3060
3060
3060
18C0
0F80
0000
0000
0000
0000
ENDCHAR
STARTCHAR phi
ENCODING 966
SWIDTH 480 0
DWIDTH 12 0
BBX 12 16 0 -4
BITMAP
0000
0000
0000
0000
0000
1F80
36C0
6660
6660
6660
36C0
1F80
0600
0600
0600
0000
ENDCHAR
STARTCHAR chi
ENCODING 967
SWIDTH 480 0
DWIDTH 12 0
BBX 12 16 0 -4
BITMAP
0000
0000
0000
0000
0000
3060
18C0
0D80
0700
0D80
18C0
3060
0000
0000
0000
0000
ENDCHAR
STARTCHAR psi
ENCODING 968
SWIDTH 480 0
DWIDTH 12 0
BBX 12 16 0 -4
BITMAP
0000
0000
0000
0000
0000
6060
6660
6660
6660
6660
36C0
1F80
0600
0600
0600
0000
ENDCHAR
STARTCHAR omega
ENCODING 969
SWIDTH 480 0
DWIDTH 12 0
BBX 12 16 0 -4
BITMAP
0000
0000
0000
0000
0000
30C0
6060
6660
6660
6660
6660
39C0
0000
0000
0000
0000
ENDCHAR
STARTCHAR iotadieresis
ENCODING 970
SWIDTH 480 0
DWIDTH 12 0
BBX 12 16 0 -4
BITMAP
0000
0000
1980
1980
0000
0600
0600
0600
0600
0600
0600
0380
0000
0000
0000
0000
ENDCHAR
STARTCHAR upsilondieresis
ENCODING 971
SWIDTH 480 0
DWIDTH 12 0
BBX 12 16 0 -4
BITMAP
0000
0000
18C0
18C0
0000
3060
3060
3060
3060
3060
18C0
0F80
0000
0000
0000
0000
ENDCHAR
STARTCHAR omicrontonos
ENCODING 972
SWIDTH 480 0
DWIDTH 12 0
BBX 12 16 0 -4
BITMAP
0000
0180
0300
0600
0000
0F80
18C0
3060
3060
3060
18C0
0F80
0000
0000
0000
0000
ENDCHAR
STARTCHAR upsilontonos
ENCODING 973
SWIDTH 480 0
DWIDTH 12 0
BBX 12 16 0 -4
BITMAP
0000
0180
0300
0600
0000
3060
3060
3060
3060
3060
18C0
0F80
0000
0000
0000
0000
ENDCHAR
STARTCHAR omegatonos
ENCODING 974
SWIDTH 480 0
DWIDTH 12 0
BBX 12 16 0 -4
BITMAP
0000
0180
0300
0600
0000
30C0
6060
6660
6660
6660
6660
39C0
0000
0000
0000
0000
ENDCHAR
STARTCHAR uni0400
ENCODING 1024
SWIDTH 480 0
DWIDTH 12 0
BBX 12 16 0 -4
BITMAP
0E00
0380
0000
3FE0
3000
3000
3000
3F80
3000
3000
3000
3FE0
0000
0000
0000
0000
ENDCHAR
STARTCHAR afii10023
ENCODING 1025
SWIDTH 480 0
DWIDTH 12 0
BBX 12 16 0 -4
BITMAP
18C0
18C0
0000
3FE0
3000
3000
3000
3F80
3000
3000
3000
3FE0
0000
0000
0000
0000
ENDCHAR
STARTCHAR afii10051
ENCODING 1026
SWIDTH 480 0
DWIDTH 12 0
BBX 12 16 0 -4
BITMAP
0000
0000
7F00
3000
3000
3780
38C0
3060
3060
3060
3060
30C0
0000
0000
0000
0000
ENDCHAR
STARTCHAR afii10052
ENCODING 1027
SWIDTH 480 0
DWIDTH 12 0
BBX 12 16 0 -4
BITMAP
01C0
0700
0000
3FE0
3000
3000
3000
3000
3000
3000
3000
3000
0000
0000
0000
0000
ENDCHAR
STARTCHAR afii10053
ENCODING 1028
SWIDTH 480 0
DWIDTH 12 0
BBX 12 16 0 -4
BITMAP
0000
0000
0F80
18C0
3060
3000
3700
3D80
3000
3060
18C0
0F80
0000
0000
0000
0000
ENDCHAR
STARTCHAR afii10054
ENCODING 1029
SWIDTH 480 0
DWIDTH 12 0
BBX 12 16 0 -4
BITMAP
0000
0000
1FC0
3060
3060
3000
1E00
03C0
0060
3060
3060
1FC0
0000
0000
0000
0000
ENDCHAR
STARTCHAR afii10055
ENCODING 1030
SWIDTH 480 0
DWIDTH 12 0
BBX 12 16 0 -4
BITMAP
0000
0000
1F80
0600
0600
0600
0600
0600
0600
0600
0600
1F80
0000
0000
0000
0000
ENDCHAR
STARTCHAR afii10056
ENCODING 1031
SWIDTH 480 0
DWIDTH 12 0
BBX 12 16 0 -4
BITMAP
30C0
30C0
0000
1F80
0600
0600
0600
0600
0600
0600
0600
1F80
0000
0000
0000
0000
ENDCHAR
STARTCHAR afii10057
ENCODING 1032
SWIDTH 480 0
DWIDTH 12 0
BBX 12 16 0 -4
BITMAP
0000
0000
07E0
00C0
00C0
00C0
00C0
00C0
00C0
30C0
30C0
1F80
0000
0000
0000
0000
ENDCHAR
STARTCHAR afii10058
ENCODING 1033
SWIDTH 480 0
DWIDTH 12 0
BBX 12 16 0 -4
BITMAP
0000
0000
0F80
1980
3180
3180
3180
31E0
31B0
31B0
31B0
71E0
0000
0000
0000
0000
ENDCHAR
STARTCHAR afii10059
ENCODING 1034
SWIDTH 480 0
DWIDTH 12 0
BBX 12 16 0 -4
BITMAP
0000
0000
3180
3180
3180
3180
3FE0
31B0
31B0
31B0
31B0
31E0
0000
0000
0000
0000
ENDCHAR
STARTCHAR afii10060
ENCODING 1035
SWIDTH 480 0
DWIDTH 12 0
BBX 12 16 0 -4
BITMAP
0000
0000
7F00
3000
3000
3780
38C0
3060
3060
3060
3060
3060
0000
0000
0000
0000
ENDCHAR
STARTCHAR afii10061
ENCODING 1036
SWIDTH 480 0
DWIDTH 12 0
BBX 12 16 0 -4
BITMAP
01C0
0700
0000
30C0
3180
3300
3600
3E00
3300
3180
30C0
3060
0000
0000
0000
0000
ENDCHAR
STARTCHAR uni040D
ENCODING 1037
SWIDTH 480 0
DWIDTH 12 0
BBX 12 16 0 -4
BITMAP
0600
0300
0000
30E0
31E0
3160
3360
3660
3460
3C60
3860
3060
0000
0000
0000
0000
ENDCHAR
STARTCHAR afii10062
ENCODING 1038
SWIDTH 480 0
DWIDTH 12 0
BBX 12 16 0 -4
BITMAP
18C0
0F80
0000
3060
3060
18C0
0D80
0700
0600
0C00
1800
3000
0000
0000
0000
0000
ENDCHAR
STARTCHAR afii10145
ENCODING 1039
SWIDTH 480 0
DWIDTH 12 0
BBX 12 16 0 -4
BITMAP
0000
0000
3060
3060
3060
3060
3060
3060
3060
3060
3060
3FE0
0700
0200
0000
0000
ENDCHAR
STARTCHAR afii10017
ENCODING 1040
SWIDTH 480 0
DWIDTH 12 0
BBX 12 16 0 -4
BITMAP
0000
0000
0F80
18C0
3060
3060
3060
3FE0
3060
3060
3060
3060
0000
0000
0000
0000
ENDCHAR
STARTCHAR afii10018
ENCODING 1041
SWIDTH 480 0
DWIDTH 12 0
BBX 12 16 0 -4
BITMAP
0000
0000
3FC0
3000
3000
3000
3FC0
3060
3060
3060
3060
3FC0
0000
0000
0000
0000
ENDCHAR
STARTCHAR afii10019
ENCODING 1042
SWIDTH 480 0
DWIDTH 12 0
BBX 12 16 0 -4
BITMAP
0000
0000
3FC0
3060
3060
3060
3FC0
3060
3060
3060
3060
3FC0
0000
0000
0000
0000
ENDCHAR
STARTCHAR afii10020
ENCODING 1043
SWIDTH 480 0
DWIDTH 12 0
BBX 12 16 0 -4
BITMAP
0000
0000
3FE0
3000
3000
3000
3000
3000
3000
3000
3000
3000
0000
0000
0000
0000
ENDCHAR
STARTCHAR afii10021
ENCODING 1044
SWIDTH 480 0
DWIDTH 12 0
BBX 12 16 0 -4
BITMAP
0000
0000
01E0
0360
0660
0660
0C60
0C60
1860
1860
1860
3FF0
3030
2010
0000
0000
ENDCHAR
STARTCHAR afii10022
ENCODING 1045
SWIDTH 480 0
DWIDTH 12 0
BBX 12 16 0 -4
BITMAP
0000
0000
3FE0
3000
3000
3000
3F80
3000
3000
3000
3000
3FE0
0000
0000
0000
0000
ENDCHAR
STARTCHAR afii10024
ENCODING 1046
SWIDTH 480 0
DWIDTH 12 0
BBX 12 16 0 -4
BITMAP
0000
0000
3330
3330
1B60
0FC0
0780
0780
0FC0
1B60
3330
3330
0000
0000
0000
0000
ENDCHAR
STARTCHAR afii10025
ENCODING 1047
SWIDTH 480 0
DWIDTH 12 0
BBX 12 16 0 -4
BITMAP
0000
0000
1FC0
3060
0060
0060
03C0
0060
0060
0060
3060
1FC0
0000
0000
0000
0000
ENDCHAR
STARTCHAR afii10026
ENCODING 1048
SWIDTH 480 0
DWIDTH 12 0
BBX 12 16 0 -4
BITMAP
0000
0000
3060
30E0
31E0
3160
3360
3660
3460
3C60
3860
3060
0000
0000
0000
0000
ENDCHAR
STARTCHAR afii10027
ENCODING 1049
SWIDTH 480 0
DWIDTH 12 0
BBX 12 16 0 -4
BITMAP
18C0
0F80
0000
30E0
31E0
3160
3360
3660
3460
3C60
3860
3060
0000
0000
0000
0000
ENDCHAR
STARTCHAR afii10028
ENCODING 1050
SWIDTH 480 0
DWIDTH 12 0
BBX 12 16 0 -4
BITMAP
0000
0000
30C0
3180
3300
3600
3C00
3600
3300
3180
30C0
3060
0000
0000
0000
0000
ENDCHAR
STARTCHAR afii10029
ENCODING 1051
SWIDTH 480 0
DWIDTH 12 0
BBX 12 16 0 -4
BITMAP
0000
0000
0700
0700
0D80
0D80
18C0
18C0
18C0
3060
3060
3060
0000
0000
0000
0000
ENDCHAR
STARTCHAR afii10030
ENCODING 1052
SWIDTH 480 0
DWIDTH 12 0
BBX 12 16 0 -4
BITMAP
0000
0000
3060
3060
38E0
3DE0
3760
3260
3060
3060
3060
3060
0000
0000
0000
0000
ENDCHAR
STARTCHAR afii10031
ENCODING 1053
SWIDTH 480 0
DWIDTH 12 0
BBX 12 16 0 -4
BITMAP
0000
0000
3060
3060
3060
3060
3FE0
3060
3060
3060
3060
3060
0000
0000
0000
0000
ENDCHAR
STARTCHAR afii10032
ENCODING 1054
SWIDTH 480 0
DWIDTH 12 0
BBX 12 16 0 -4
BITMAP
0000
0000
0F80
18C0
3060
3060
3060
3060
3060
3060
18C0
0F80
0000
0000
0000
0000
ENDCHAR
STARTCHAR afii10033
ENCODING 1055
SWIDTH 480 0
DWIDTH 12 0
BBX 12 16 0 -4
BITMAP
0000
0000
3FE0
3060
3060
3060
3060
3060
3060
3060
3060
3060
0000
0000
0000
0000
ENDCHAR
STARTCHAR afii10034
ENCODING 1056
SWIDTH 480 0
DWIDTH 12 0
BBX 12 16 0 -4
BITMAP
0000
0000
3FC0
3060
3060
3060
3060
3FC0
3000
3000
3000
3000
0000
0000
0000
0000
ENDCHAR
STARTCHAR afii10035
ENCODING 1057
SWIDTH 480 0
DWIDTH 12 0
BBX 12 16 0 -4
BITMAP
0000
0000
0FC0
1860
3060
3000
3000
3000
3000
3060
1860
0FC0
0000
0000
0000
0000
ENDCHAR
STARTCHAR afii10036
ENCODING 1058
SWIDTH 480 0
DWIDTH 12 0
BBX 12 16 0 -4
BITMAP
0000
0000
3FC0
0600
0600
0600
0600
0600
0600
0600
0600
0600
0000
0000
0000
0000
ENDCHAR
STARTCHAR afii10037
ENCODING 1059
SWIDTH 480 0
DWIDTH 12 0
BBX 12 16 0 -4
BITMAP
0000
0000
6060
6060
30C0
1980
0F00
0600
0C00
1800
3000
6000
0000
0000
0000
0000
ENDCHAR
STARTCHAR afii10038
ENCODING 1060
SWIDTH 480 0
DWIDTH 12 0
BBX 12 16 0 -4
BITMAP
0000
0000
0600
1F80
36C0
6660
6660
6660
36C0
1F80
0600
0600
0000
0000
0000
0000
ENDCHAR
STARTCHAR afii10039
ENCODING 1061
SWIDTH 480 0
DWIDTH 12 0
BBX 12 16 0 -4
BITMAP
0000
0000
3060
3060
18C0
0D80
0700
0700
0D80
18C0
3060
3060
0000
0000
0000
0000
ENDCHAR
STARTCHAR afii10040
ENCODING 1062
SWIDTH 480 0
DWIDTH 12 0
BBX 12 16 0 -4
BITMAP
0000
0000
3060
3060
3060
3060
3060
3060
3060
3060
3060
3FF0
0030
0010
0000
0000
ENDCHAR
STARTCHAR afii10041
ENCODING 1063
SWIDTH 480 0
DWIDTH 12 0
BBX 12 16 0 -4
BITMAP
0000
0000
3060
3060
3060
3060
3060
1FE0
0060
0060
0060
0060
0000
0000
0000
0000
ENDCHAR
STARTCHAR afii10042
ENCODING 1064
SWIDTH 480 0
DWIDTH 12 0
BBX 12 16 0 -4
BITMAP
0000
0000
3330
3330
3330
3330
3330
3330
3330
3330
3330
3FF0
0000
0000
0000
0000
ENDCHAR
STARTCHAR afii10043
ENCODING 1065
SWIDTH 480 0
DWIDTH 12 0
BBX 12 16 0 -4
BITMAP
0000
0000
3260
3260
3260
3260
3260
3260
3260
3260
3260
3FF0
0030
0010
0000
0000
ENDCHAR
STARTCHAR afii10044
ENCODING 1066
SWIDTH 480 0
DWIDTH 12 0
BBX 12 16 0 -4
BITMAP
0000
0000
7C00
6C00
4C00
0C00
0F80
0CC0
0C60
0C60
0CC0
0F80
0000
0000
0000
0000
ENDCHAR
STARTCHAR afii10045
ENCODING 1067
SWIDTH 480 0
DWIDTH 12 0
BBX 12 16 0 -4
BITMAP
0000
0000
3030
3030
3030
3030
3E30
3330
31B0
31B0
3330
3E30
0000
0000
0000
0000
ENDCHAR
STARTCHAR afii10046
ENCODING 1068
SWIDTH 480 0
DWIDTH 12 0
BBX 12 16 0 -4
BITMAP
0000
0000
3000
3000
3000
3000
3F80
30C0
3060
3060
30C0
3F80
0000
0000
0000
0000
ENDCHAR
STARTCHAR afii10047
ENCODING 1069
SWIDTH 480 0
DWIDTH 12 0
BBX 12 16 0 -4
BITMAP
0000
0000
0F80
18C0
3060
0060
0760
0DE0
0060
3060
18C0
0F80
0000
0000
0000
0000
ENDCHAR
STARTCHAR afii10048
ENCODING 1070
SWIDTH 480 0
DWIDTH 12 0
BBX 12 16 0 -4
BITMAP
0000
0000
63C0
6660
6C30
6C30
7C30
6C30
6C30
6C30
6660
63C0
0000
0000
0000
0000
ENDCHAR
STARTCHAR afii10049
ENCODING 1071
SWIDTH 480 0
DWIDTH 12 0
BBX 12 16 0 -4
BITMAP
0000
0000
1FE0
3060
3060
3060
3060
1FE0
0C60
1860
1860
3060
0000
0000
0000
0000
ENDCHAR
STARTCHAR afii10065
ENCODING 1072
SWIDTH 480 0
DWIDTH 12 0
BBX 12 16 0 -4
BITMAP
0000
0000
0000
0000
0000
1FC0
0060
0060
1FE0
3060
3060
1FE0
0000
0000
0000
0000
ENDCHAR
STARTCHAR afii10066
ENCODING 1073
SWIDTH 480 0
DWIDTH 12 0
BBX 12 16 0 -4
BITMAP
0000
0000
00C0
1F80
3000
3F80
18C0
3060
3060
3060
18C0
0F80
0000
0000
0000
0000
ENDCHAR
STARTCHAR afii10067
ENCODING 1074
SWIDTH 480 0
DWIDTH 12 0
BBX 12 16 0 -4
BITMAP
0000
0000
0000
0000
0000
3FC0
3060
3060
3FC0
3060
3060
3FC0
0000
0000
0000
0000
ENDCHAR
STARTCHAR afii10068
ENCODING 1075
SWIDTH 480 0
DWIDTH 12 0
BBX 12 16 0 -4
BITMAP
0000
0000
0000
0000
0000
3FE0
3000
3000
3000
3000
3000
3000
0000
0000
0000
0000
ENDCHAR
STARTCHAR afii10069
ENCODING 1076
SWIDTH 480 0
DWIDTH 12 0
BBX 12 16 0 -4
BITMAP
0000
0000
0000
0000
0000
03E0
0660
0C60
1860
3060
3060
7FF0
6030
4010
0000
0000
ENDCHAR
STARTCHAR afii10070
ENCODING 1077
SWIDTH 480 0
DWIDTH 12 0
BBX 12 16 0 -4
BITMAP
0000
0000
0000
0000
0000
1FC0
3060
3060
3FE0
3000
3000
1FC0
0000
0000
0000
0000
ENDCHAR
STARTCHAR afii10072
ENCODING 1078
SWIDTH 480 0
DWIDTH 12 0
BBX 12 16 0 -4
BITMAP
0000
0000
0000
0000
0000
3330
1B60
0FC0
0780
0FC0
1B60
3330
0000
0000
0000
0000
ENDCHAR
STARTCHAR afii10073
ENCODING 1079
SWIDTH 480 0
DWIDTH 12 0
BBX 12 16 0 -4
BITMAP
0000
0000
0000
0000
0000
1FC0
3060
0060
03C0
0060
3060
1FC0
0000
0000
0000
0000
ENDCHAR
STARTCHAR afii10074
ENCODING 1080
SWIDTH 480 0
DWIDTH 12 0
BBX 12 16 0 -4
BITMAP
0000
0000
0000
0000
0000
3060
30E0
31E0
3760
3C60
3860
3060
0000
0000
0000
0000
ENDCHAR
STARTCHAR afii10075
ENCODING 1081
SWIDTH 480 0
DWIDTH 12 0
BBX 12 16 0 -4
BITMAP
0000
18C0
0F80
0000
0000
3060
30E0
31E0
3760
3C60
3860
3060
0000
0000
0000
0000
ENDCHAR
STARTCHAR afii10076
ENCODING 1082
SWIDTH 480 0
DWIDTH 12 0
BBX 12 16 0 -4
BITMAP
0000
0000
0000
0000
0000
30C0
3180
3300
3F00
3180
30C0
3060
0000
0000
0000
0000
ENDCHAR
STARTCHAR afii10077
ENCODING 1083
SWIDTH 480 0
DWIDTH 12 0
BBX 12 16 0 -4
BITMAP
0000
0000
0000
0000
0000
0200
0700
0D80
0D80
18C0
3060
3060
0000
0000
0000
0000
ENDCHAR
STARTCHAR afii10078
ENCODING 1084
SWIDTH 480 0
DWIDTH 12 0
BBX 12 16 0 -4
BITMAP
0000
0000
0000
0000
0000
6060
70E0
79E0
6F60
6660
6660
6060
0000
0000
0000
0000
ENDCHAR
STARTCHAR afii10079
ENCODING 1085
SWIDTH 480 0
DWIDTH 12 0
BBX 12 16 0 -4
BITMAP
0000
0000
0000
0000
0000
3060
3060
3060
3FE0
3060
3060
3060
0000
0000
0000
0000
ENDCHAR
STARTCHAR afii10080
ENCODING 1086
SWIDTH 480 0
DWIDTH 12 0
BBX 12 16 0 -4
BITMAP
0000
0000
0000
0000
0000
0F80
18C0
3060
3060
3060
18C0
0F80
0000
0000
0000
0000
ENDCHAR
STARTCHAR afii10081
ENCODING 1087
SWIDTH 480 0
DWIDTH 12 0
BBX 12 16 0 -4
BITMAP
0000
0000
0000
0000
0000
3FE0
3060
3060
3060
3060
3060
3060
0000
0000
0000
0000
ENDCHAR
STARTCHAR afii10082
ENCODING 1088
SWIDTH 480 0
DWIDTH 12 0
BBX 12 16 0 -4
BITMAP
0000
0000
0000
0000
0000
3780
38C0
3060
3060
3060
30C0
3F80
3000
3000
3000
0000
ENDCHAR
STARTCHAR afii10083
ENCODING 1089
SWIDTH 480 0
DWIDTH 12 0
BBX 12 16 0 -4
BITMAP
0000
0000
0000
0000
0000
0FC0
1860
3000
3000
3000
1860
0FC0
0000
0000
0000
0000
ENDCHAR
STARTCHAR afii10084
ENCODING 1090
SWIDTH 480 0
DWIDTH 12 0
BBX 12 16 0 -4
BITMAP
0000
0000
0000
0000
0000
3FE0
0300
0300
0300
0300
0300
0300
0000
0000
0000
0000
ENDCHAR
STARTCHAR afii10085
ENCODING 1091
SWIDTH 480 0
DWIDTH 12 0
BBX 12 16 0 -4
BITMAP
0000
0000
0000
0000
0000
3060
3060
3060
3060
3060
18E0
0F60
0060
10C0
0F80
0000
ENDCHAR
STARTCHAR afii10086
ENCODING 1092
SWIDTH 480 0
DWIDTH 12 0
BBX 12 16 0 -4
BITMAP
0000
0000
0000
0300
0300
0FC0
1B60
3330
3330
3330
1B60
0FC0
0300
0300
0000
0000
ENDCHAR
STARTCHAR afii10087
ENCODING 1093
SWIDTH 480 0
DWIDTH 12 0
BBX 12 16 0 -4
BITMAP
0000
0000
0000
0000
0000
3060
18C0
0D80
0700
0D80
18C0
3060
0000
0000
0000
0000
ENDCHAR
STARTCHAR afii10088
ENCODING 1094
SWIDTH 480 0
DWIDTH 12 0
BBX 12 16 0 -4
BITMAP
0000
0000
0000
0000
0000
30C0
30C0
30C0
30C0
30C0
30C0
3FF0
0030
0010
0000
0000
ENDCHAR
STARTCHAR afii10089
ENCODING 1095
SWIDTH 480 0
DWIDTH 12 0
BBX 12 16 0 -4
BITMAP
0000
0000
0000
0000
0000
3060
3060
3060
1FE0
0060
0060
0060
0000
0000
0000
0000
ENDCHAR
STARTCHAR afii10090
ENCODING 1096
SWIDTH 480 0
DWIDTH 12 0
BBX 12 16 0 -4
BITMAP
0000
0000
0000
0000
0000
6660
6660
6660
6660
6660
6660
7FE0
0000
0000
0000
0000
ENDCHAR
STARTCHAR afii10091
ENCODING 1097
SWIDTH 480 0
DWIDTH 12 0
BBX 12 16 0 -4
BITMAP
0000
0000
0000
0000
0000
6660
6660
6660
6660
6660
6660
7FF0
0030
0010
0000
0000
ENDCHAR
STARTCHAR afii10092
ENCODING 1098
SWIDTH 480 0
DWIDTH 12 0
BBX 12 16 0 -4
BITMAP
0000
0000
0000
0000
0000
7C00
6C00
4FC0
0C60
0C60
0C60
0FC0
0000
0000
0000
0000
ENDCHAR
STARTCHAR afii10093
ENCODING 1099
SWIDTH 480 0
DWIDTH 12 0
BBX 12 16 0 -4
BITMAP
0000
0000
0000
0000
0000
6030
6030
7F30
61B0
61B0
61B0
7F30
0000
0000
0000
0000
ENDCHAR
STARTCHAR afii10094
ENCODING 1100
SWIDTH 480 0
DWIDTH 12 0
BBX 12 16 0 -4
BITMAP
0000
0000
0000
0000
0000
3000
3000
3FC0
3060
3060
3060
3FC0
0000
0000
0000
0000
ENDCHAR
STARTCHAR afii10095
ENCODING 1101
SWIDTH 480 0
DWIDTH 12 0
BBX 12 16 0 -4
BITMAP
0000
0000
0000
0000
0000
1F80
30C0
0060
07E0
0060
30C0
1F80
0000
0000
0000
0000
ENDCHAR
STARTCHAR afii10096
ENCODING 1102
SWIDTH 480 0
DWIDTH 12 0
BBX 12 16 0 -4
BITMAP
0000
0000
0000
0000
0000
63C0
6660
6C30
7C30
6C30
6660
63C0
0000
0000
0000
0000
ENDCHAR
STARTCHAR afii10097
ENCODING 1103
SWIDTH 480 0
DWIDTH 12 0
BBX 12 16 0 -4
BITMAP
0000
0000
0000
0000
0000
1FE0
3060
3060
3060
1FE0
0C60
3860
0000
0000
0000
0000
ENDCHAR
STARTCHAR uni0450
ENCODING 1104
SWIDTH 480 0
DWIDTH 12 0
BBX 12 16 0 -4
BITMAP
0000
0C00
0600
0300
0000
1FC0
3060
3060
3FE0
3000
3000
1FC0
0000
0000
0000
0000
ENDCHAR
STARTCHAR afii10071
ENCODING 1105
SWIDTH 480 0
DWIDTH 12 0
BBX 12 16 0 -4
BITMAP
0000
18C0
18C0
0000
0000
1FC0
3060
3060
3FE0
3000
3000
1FC0
0000
0000
0000
0000
ENDCHAR
STARTCHAR afii10099
ENCODING 1106
SWIDTH 480 0
DWIDTH 12 0
BBX 12 16 0 -4
BITMAP
0000
0000
0000
3000
7E00
3000
3780
38C0
3060
3060
3060
30C0
0180
0000
0000
0000
ENDCHAR
STARTCHAR afii10100
ENCODING 1107
SWIDTH 480 0
DWIDTH 12 0
BBX 12 16 0 -4
BITMAP
0000
0180
0300
0600
0000
3FE0
3000
3000
3000
3000
3000
3000
0000
0000
0000
0000
ENDCHAR
STARTCHAR afii10101
ENCODING 1108
SWIDTH 480 0
DWIDTH 12 0
BBX 12 16 0 -4
BITMAP
0000
0000
0000
0000
0000
1F80
30C0
3000
3F00
3000
30C0
1F80
0000
0000
0000
0000
ENDCHAR
STARTCHAR afii10102
ENCODING 1109
SWIDTH 480 0
DWIDTH 12 0
BBX 12 16 0 -4
BITMAP
0000
0000
0000
0000
0000
1FC0
3060
3000
1FC0
0060
3060
1FC0
0000
0000
0000
0000
ENDCHAR
STARTCHAR afii10103
ENCODING 1110
SWIDTH 480 0
DWIDTH 12 0
BBX 12 16 0 -4
BITMAP
0000
0000
0300
0300
0000
0F00
0300
0300
0300
0300
0300
0FC0
0000
0000
0000
0000
ENDCHAR
STARTCHAR afii10104
ENCODING 1111
SWIDTH 480 0
DWIDTH 12 0
BBX 12 16 0 -4
BITMAP
0000
18C0
18C0
0000
0000
0F00
0300
0300
0300
0300
0300
0FC0
0000
0000
0000
0000
ENDCHAR
STARTCHAR afii10105
ENCODING 1112
SWIDTH 480 0
DWIDTH 12 0
BBX 12 16 0 -4
BITMAP
0000
0000
0180
0180
0000
0780
0180
0180
0180
0180
0180
0180
0180
1980
0F00
0000
ENDCHAR
STARTCHAR afii10106
ENCODING 1113
SWIDTH 480 0
DWIDTH 12 0
BBX 12 16 0 -4
BITMAP
0000
0000
0000
0000
0000
1F80
3180
3180
31E0
31B0
31B0
71E0
0000
0000
0000
0000
ENDCHAR
STARTCHAR afii10107
ENCODING 1114
SWIDTH 480 0
DWIDTH 12 0
BBX 12 16 0 -4
BITMAP
0000
0000
0000
0000
0000
3180
3180
3180
3FE0
31B0
31B0
31E0
0000
0000
0000
0000
ENDCHAR
STARTCHAR afii10108
ENCODING 1115
SWIDTH 480 0
DWIDTH 12 0
BBX 12 16 0 -4
BITMAP
0000
0000
0000
3000
7E00
3000
3780
38C0
3060
3060
3060
3060
0000
0000
0000
0000
ENDCHAR
STARTCHAR afii10109
ENCODING 1116
SWIDTH 480 0
DWIDTH 12 0
BBX 12 16 0 -4
BITMAP
0000
0180
0300
0600
0000
30C0
3180
3300
3F00
3180
30C0
3060
0000
0000
0000
0000
ENDCHAR
STARTCHAR uni045D
ENCODING 1117
SWIDTH 480 0
DWIDTH 12 0
BBX 12 16 0 -4
BITMAP
0000
0600
0300
0000
0000
3060
30E0
31E0
3760
3C60
3860
3060
0000
0000
0000
0000
ENDCHAR
STARTCHAR afii10110
ENCODING 1118
SWIDTH 480 0
DWIDTH 12 0
BBX 12 16 0 -4
BITMAP
0000
18C0
0F80
0000
0000
3060
3060
3060
3060
3060
18E0
0F60
0060
10C0
0F80
0000
ENDCHAR
STARTCHAR afii10193
ENCODING 1119
SWIDTH 480 0
DWIDTH 12 0
BBX 12 16 0 -4
BITMAP
0000
0000
0000
0000
0000
3060
3060
3060
3060
3060
3060
3FE0
0700
0200
0000
0000
ENDCHAR
STARTCHAR afii10050
ENCODING 1168
SWIDTH 480 0
DWIDTH 12 0
BBX 12 16 0 -4
BITMAP
0000
0060
3FE0
3000
3000
3000
3000
3000
3000
3000
3000
3000
0000
0000
0000
0000
ENDCHAR
STARTCHAR afii10098
ENCODING 1169
SWIDTH 480 0
DWIDTH 12 0
BBX 12 16 0 -4
BITMAP
0000
0000
0000
0000
0060
3FE0
3000
3000
3000
3000
3000
3000
0000
0000
0000
0000
ENDCHAR
STARTCHAR afii57664
ENCODING 1488
SWIDTH 480 0
DWIDTH 12 0
BBX 12 16 0 -4
BITMAP
0000
0000
0000
30E0
3860
1860
1C60
3660
33C0
3180
30C0
3860
0000
0000
0000
0000
ENDCHAR
STARTCHAR afii57665
ENCODING 1489
SWIDTH 480 0
DWIDTH 12 0
BBX 12 16 0 -4
BITMAP
0000
0000
0000
3F80
00C0
00C0
00C0
00C0
00C0
00C0
00C0
3FF0
0000
0000
0000
0000
ENDCHAR
STARTCHAR afii57666
ENCODING 1490
SWIDTH 480 0
DWIDTH 12 0
BBX 12 16 0 -4
BITMAP
0000
0000
0000
0F00
0300
0300
0180
0180
0380
06C0
0CC0
0CC0
0000
0000
0000
0000
ENDCHAR
STARTCHAR afii57667
ENCODING 1491
SWIDTH 480 0
DWIDTH 12 0
BBX 12 16 0 -4
BITMAP
0000
0000
0000
3FF0
00C0
00C0
00C0
00C0
00C0
00C0
00C0
00C0
0000
0000
0000
0000
ENDCHAR
STARTCHAR afii57668
ENCODING 1492
SWIDTH 480 0
DWIDTH 12 0
BBX 12 16 0 -4
BITMAP
0000
0000
0000
3FC0
0060
0060
0060
3060
3060
3060
3060
3060
0000
0000
0000
0000
ENDCHAR
STARTCHAR afii57669
ENCODING 1493
SWIDTH 480 0
DWIDTH 12 0
BBX 12 16 0 -4
BITMAP
0000
0000
0000
0F00
0180
0180
0180
0180
0180
0180
0180
0180
0000
0000
0000
0000
ENDCHAR
STARTCHAR afii57670
ENCODING 1494
SWIDTH 480 0
DWIDTH 12 0
BBX 12 16 0 -4
BITMAP
0000
0000
0000
1F80
0600
0600
0600
0600
0300
0300
0300
0300
0000
0000
0000
0000
ENDCHAR
STARTCHAR afii57671
ENCODING 1495
SWIDTH 480 0
DWIDTH 12 0
BBX 12 16 0 -4
BITMAP
0000
0000
0000
3FC0
3060
3060
3060
3060
3060
3060
3060
3060
0000
0000
0000
0000
ENDCHAR
STARTCHAR afii57672
ENCODING 1496
SWIDTH 480 0
DWIDTH 12 0
BBX 12 16 0 -4
BITMAP
0000
0000
0000
33C0
3660
3660
3660
3060
3060
3060
18C0
0F80
0000
0000
0000
0000
ENDCHAR
STARTCHAR afii57673
ENCODING 1497
SWIDTH 480 0
DWIDTH 12 0
BBX 12 16 0 -4
BITMAP
0000
0000
0000
0F00
0180
0180
0180
0180
0180
0000
0000
0000
0000
0000
0000
0000
ENDCHAR
STARTCHAR afii57674
ENCODING 1498
SWIDTH 480 0
DWIDTH 12 0
BBX 12 16 0 -4
BITMAP
0000
0000
0000
3FE0
00C0
00C0
00C0
00C0
00C0
00C0
00C0
00C0
00C0
00C0
00E0
0000
ENDCHAR
STARTCHAR afii57675
ENCODING 1499
SWIDTH 480 0
DWIDTH 12 0
BBX 12 16 0 -4
BITMAP
0000
0000
0000
3F80
00C0
0060
0060
0060
0060
0060
00C0
3F80
0000
0000
0000
0000
ENDCHAR
STARTCHAR afii57676
ENCODING 1500
SWIDTH 480 0
DWIDTH 12 0
BBX 12 16 0 -4
BITMAP
3000
3000
3000
3FE0
0060
0060
00C0
0180
0300
0600
0600
0700
0000
0000
0000
0000
ENDCHAR
STARTCHAR afii57677
ENCODING 1501
SWIDTH 480 0
DWIDTH 12 0
BBX 12 16 0 -4
BITMAP
0000
0000
0000
3FC0
3060
3060
3060
3060
3060
3060
3060
3FE0
0000
0000
0000
0000
ENDCHAR
STARTCHAR afii57678
ENCODING 1502
SWIDTH 480 0
DWIDTH 12 0
BBX 12 16 0 -4
BITMAP
0000
0000
0000
33C0
36E0
3C60
3860
3060
3060
3060
3060
33E0
0000
0000
0000
0000
ENDCHAR
STARTCHAR afii57679
ENCODING 1503
SWIDTH 480 0
DWIDTH 12 0
BBX 12 16 0 -4
BITMAP
0000
0000
0000
0F00
0180
0180
0180
0180
0180
0180
0180
0180
0180
0180
01E0
0000
ENDCHAR
STARTCHAR afii57680
ENCODING 1504
SWIDTH 480 0
DWIDTH 12 0
BBX 12 16 0 -4
BITMAP
0000
0000
0000
0700
0180
0180
0180
0180
0180
0180
0180
0F80
0000
0000
0000
0000
ENDCHAR
STARTCHAR afii57681
ENCODING 1505
SWIDTH 480 0
DWIDTH 12 0
BBX 12 16 0 -4
BITMAP
0000
0000
0000
3FC0
3060
3060
3060
3060
3060
3060
18C0
0F80
0000
0000
0000
0000
ENDCHAR
STARTCHAR afii57682
ENCODING 1506
SWIDTH 480 0
DWIDTH 12 0
BBX 12 16 0 -4
BITMAP
0000
0000
0000
0C60
0C60
0C60
0C60
0C60
0C60
0C60
0CC0
3F80
0000
0000
0000
0000
ENDCHAR
STARTCHAR afii57683
ENCODING 1507
SWIDTH 480 0
DWIDTH 12 0
BBX 12 16 0 -4
BITMAP
0000
0000
0000
1F00
3180
30C0
30C0
30C0
3CC0
00C0
00C0
00C0
00C0
00C0
00F0
0000
ENDCHAR
STARTCHAR afii57684
ENCODING 1508
SWIDTH 480 0
DWIDTH 12 0
BBX 12 16 0 -4
BITMAP
0000
0000
0000
1F80
30C0
3060
3060
3060
3C60
0060
00C0
3F80
0000
0000
0000
0000
ENDCHAR
STARTCHAR afii57685
ENCODING 1509
SWIDTH 480 0
DWIDTH 12 0
BBX 12 16 0 -4
BITMAP
0000
0000
0000
38E0
1860
1860
18E0
0DC0
0F00
0C00
0C00
0600
0600
0600
0600
0000
ENDCHAR
STARTCHAR afii57686
ENCODING 1510
SWIDTH 480 0
DWIDTH 12 0
BBX 12 16 0 -4
BITMAP
0000
0000
0000
31E0
1860
0C60
0660
03C0
0180
00C0
0060
3FE0
0000
0000
0000
0000
ENDCHAR
STARTCHAR afii57687
ENCODING 1511
SWIDTH 480 0
DWIDTH 12 0
BBX 12 16 0 -4
BITMAP
0000
0000
0000
3FE0
0060
0060
3060
30C0
30C0
3180
3180
31E0
3000
3000
3000
0000
ENDCHAR
STARTCHAR afii57688
ENCODING 1512
SWIDTH 480 0
DWIDTH 12 0
BBX 12 16 0 -4
BITMAP
0000
0000
0000
3FC0
0060
0060
0060
0060
0060
0060
0060
0060
0000
0000
0000
0000
ENDCHAR
STARTCHAR afii57689
ENCODING 1513
SWIDTH 480 0
DWIDTH 12 0
BBX 12 16 0 -4
BITMAP
0000
0000
0000
6660
6660
6660
6660
6660
7C60
6060
30C0
1F80
0000
0000
0000
0000
ENDCHAR
STARTCHAR afii57690
ENCODING 1514
SWIDTH 480 0
DWIDTH 12 0
BBX 12 16 0 -4
BITMAP
0000
0000
0000
3FC0
0860
1860
1860
1860
1860
1860
1860
7860
0000
0000
0000
0000
ENDCHAR
STARTCHAR afii57403
ENCODING 1563
SWIDTH 480 0
DWIDTH 12 0
BBX 12 16 0 -4
BITMAP
0000
0000
0100
0300
0600
0700
0300
0000
0200
0700
0200
0000
0000
0000
0000
0000
ENDCHAR
STARTCHAR afii57407
ENCODING 1567
SWIDTH 480 0
DWIDTH 12 0
BBX 12 16 0 -4
BITMAP
0000
0000
1F80
30C0
30C0
3000
1C00
0600
0600
0000
0600
0600
0000
0000
0000
0000
ENDCHAR
STARTCHAR afii57409
ENCODING 1569
SWIDTH 480 0
DWIDTH 12 0
BBX 12 16 0 -4
BITMAP
0000
0000
0000
0000
0380
0780
0D80
0E60
07C0
0F00
1C00
0000
0000
0000
0000
0000
ENDCHAR
STARTCHAR afii57410
ENCODING 1570
SWIDTH 480 0
DWIDTH 12 0
BBX 12 16 0 -4
BITMAP
0D00
1200
0000
0200
0700
0600
0600
0600
0600
0600
0400
0000
0000
0000
0000
0000
ENDCHAR
STARTCHAR afii57411
ENCODING 1571
SWIDTH 480 0
DWIDTH 12 0
BBX 12 16 0 -4
BITMAP
1800
3000
1C00
3200
0700
0600
0600
0600
0600
0600
0400
0000
0000
0000
0000
0000
ENDCHAR
STARTCHAR afii57412
ENCODING 1572
SWIDTH 480 0
DWIDTH 12 0
BBX 12 16 0 -4
BITMAP
0000
0600
0C00
0700
0C00
00E0
01F0
0330
03F0
01F0
0030
30E0
1FE0
0F80
0000
0000
ENDCHAR
STARTCHAR afii57415
ENCODING 1575
SWIDTH 480 0
DWIDTH 12 0
BBX 12 16 0 -4
BITMAP
0000
0200
0700
0600
0600
0600
0600
0600
0600
0600
0400
0000
0000
0000
0000
0000
ENDCHAR
STARTCHAR afii57416
ENCODING 1576
SWIDTH 480 0
DWIDTH 12 0
BBX 12 16 0 -4
BITMAP
0000
0000
0000
0000
0000
4020
8070
C030
FFF0
7FE0
0000
0200
0700
0200
0000
0000
ENDCHAR
STARTCHAR afii57417
ENCODING 1577
SWIDTH 480 0
DWIDTH 12 0
BBX 12 16 0 -4
BITMAP
0240
07E0
0240
0000
03C0
03E0
06F0
0730
07F0
03F0
0000
0000
0000
0000
0000
0000
ENDCHAR
STARTCHAR afii57418
ENCODING 1578
SWIDTH 480 0
DWIDTH 12 0
BBX 12 16 0 -4
BITMAP
0000
0000
0000
0900
1F80
4920
8070
C030
FFF0
7FE0
0000
0000
0000
0000
0000
0000
ENDCHAR
STARTCHAR afii57419
ENCODING 1579
SWIDTH 480 0
DWIDTH 12 0
BBX 12 16 0 -4
BITMAP
0400
0E00
0400
0900
1F80
4920
8070
C030
FFF0
7FE0
0000
0000
0000
0000
0000
0000
ENDCHAR
STARTCHAR afii57420
ENCODING 1580
SWIDTH 480 0
DWIDTH 12 0
BBX 12 16 0 -4
BITMAP
0000
0000
0000
0000
0000
0000
7E00
FFF0
8FF0
3800
6100
C380
C100
E030
7FE0
3FC0
ENDCHAR
STARTCHAR afii57421
ENCODING 1581
SWIDTH 480 0
DWIDTH 12 0
BBX 12 16 0 -4
BITMAP
0000
0000
0000
0000
0000
0000
7E00
FFF0
8FF0
3800
6000
C000
C000
E030
7FE0
3FC0
ENDCHAR
STARTCHAR afii57422
ENCODING 1582
SWIDTH 480 0
DWIDTH 12 0
BBX 12 16 0 -4
BITMAP
0000
0000
0400
0E00
0400
0000
7E00
FFF0
8FF0
3800
6000
C000
C000
E030
7FE0
3FC0
ENDCHAR
STARTCHAR afii57423
ENCODING 1583
SWIDTH 480 0
DWIDTH 12 0
BBX 12 16 0 -4
BITMAP
0000
0000
0000
0000
0060
00E0
0070
0430
07F0
07E0
0000
0000
0000
0000
0000
0000
ENDCHAR
STARTCHAR afii57424
ENCODING 1584
SWIDTH 480 0
DWIDTH 12 0
BBX 12 16 0 -4
BITMAP
0000
0100
0380
0100
0060
00E0
0070
0430
07F0
07E0
0000
0000
0000
0000
0000
0000
ENDCHAR
STARTCHAR afii57425
ENCODING 1585
SWIDTH 480 0
DWIDTH 12 0
BBX 12 16 0 -4
BITMAP
0000
0000
0000
0000
0000
0000
0020
0070
0070
0030
0030
30E0
1FE0
0F80
0000
0000
ENDCHAR
STARTCHAR afii57426
ENCODING 1586
SWIDTH 480 0
DWIDTH 12 0
BBX 12 16 0 -4
BITMAP
0000
0000
0000
0080
01C0
0080
0020
0070
0070
0030
0030
30E0
1FE0
0F80
0000
0000
ENDCHAR
STARTCHAR afii57427
ENCODING 1587
SWIDTH 480 0
DWIDTH 12 0
BBX 12 16 0 -4
BITMAP
0000
0000
0000
0000
0000
1020
3970
39B0
1FF0
1EE0
1800
3800
F000
E000
0000
0000
ENDCHAR
STARTCHAR afii57428
ENCODING 1588
SWIDTH 480 0
DWIDTH 12 0
BBX 12 16 0 -4
BITMAP
0200
0700
0680
0FC0
0480
1020
3970
39B0
1FF0
1EE0
1800
3800
F000
E000
0000
0000
ENDCHAR
STARTCHAR afii57429
ENCODING 1589
SWIDTH 480 0
DWIDTH 12 0
BBX 12 16 0 -4
BITMAP
0000
0000
0000
0000
0000
10E0
39F0
3F30
1FF0
1FE0
1800
3800
F000
E000
0000
0000
ENDCHAR
STARTCHAR afii57430
ENCODING 1590
SWIDTH 480 0
DWIDTH 12 0
BBX 12 16 0 -4
BITMAP
0000
0000
0200
0700
0200
10E0
39F0
3F30
1FF0
1FE0
1800
3800
F000
E000
0000
0000
ENDCHAR
STARTCHAR afii57431
ENCODING 1591
SWIDTH 480 0
DWIDTH 12 0
BBX 12 16 0 -4
BITMAP
0000
0800
1C00
1800
1800
18E0
19F0
1F30
FFF0
FFE0
0000
0000
0000
0000
0000
0000
ENDCHAR
STARTCHAR afii57432
ENCODING 1592
SWIDTH 480 0
DWIDTH 12 0
BBX 12 16 0 -4
BITMAP
0100
0B80
1D00
1800
1800
18E0
19F0
1F30
FFF0
FFE0
0000
0000
0000
0000
0000
0000
ENDCHAR
STARTCHAR afii57433
ENCODING 1593
SWIDTH 480 0
DWIDTH 12 0
BBX 12 16 0 -4
BITMAP
0000
0000
0000
0000
0700
0F80
18C0
1C00
0FE0
3F80
6000
C000
C000
E030
7FE0
3FC0
ENDCHAR
STARTCHAR afii57434
ENCODING 1594
SWIDTH 480 0
DWIDTH 12 0
BBX 12 16 0 -4
BITMAP
0200
0700
0200
0000
0700
0F80
18C0
1C00
0FE0
3F80
6000
C000
C000
E030
7FE0
3FC0
ENDCHAR
STARTCHAR afii57440
ENCODING 1600
SWIDTH 480 0
DWIDTH 12 0
BBX 12 16 0 -4
BITMAP
0000
0000
0000
0000
0000
0000
0000
0000
FFF0
FFF0
0000
0000
0000
0000
0000
0000
ENDCHAR
STARTCHAR afii57441
ENCODING 1601
SWIDTH 480 0
DWIDTH 12 0
BBX 12 16 0 -4
BITMAP
0100
0380
0100
0000
00E0
41F0
81B0
C0F0
FFF0
7FF0
0000
0000
0000
0000
0000
0000
ENDCHAR
STARTCHAR afii57442
ENCODING 1602
SWIDTH 480 0
DWIDTH 12 0
BBX 12 16 0 -4
BITMAP
0000
0120
03F0
0120
0000
00E0
01F0
2330
43F0
61F0
6030
70E0
3FE0
1F80
0000
0000
ENDCHAR
STARTCHAR afii57443
ENCODING 1603
SWIDTH 480 0
DWIDTH 12 0
BBX 12 16 0 -4
BITMAP
0000
0010
0030
0630
0C30
4730
8C30
C030
FFF0
7FE0
0000
0000
0000
0000
0000
0000
ENDCHAR
STARTCHAR afii57444
ENCODING 1604
SWIDTH 480 0
DWIDTH 12 0
BBX 12 16 0 -4
BITMAP
0000
0010
0030
0030
0030
0030
0030
2030
4030
6030
6030
70E0
3FE0
1F80
0000
0000
ENDCHAR
STARTCHAR afii57445
ENCODING 1605
SWIDTH 480 0
DWIDTH 12 0
BBX 12 16 0 -4
BITMAP
0000
0000
0000
0000
0000
01C0
03E0
00E0
07F0
0FF0
0C00
0C00
0C00
0600
0600
0400
ENDCHAR
STARTCHAR afii57446
ENCODING 1606
SWIDTH 480 0
DWIDTH 12 0
BBX 12 16 0 -4
BITMAP
0000
0000
0200
0700
0200
0020
0070
2070
4030
6030
6030
70E0
3FE0
1F80
0000
0000
ENDCHAR
STARTCHAR afii57470
ENCODING 1607
SWIDTH 480 0
DWIDTH 12 0
BBX 12 16 0 -4
BITMAP
0000
0000
0000
0000
03C0
03E0
06F0
0730
07F0
03F0
0000
0000
0000
0000
0000
0000
ENDCHAR
STARTCHAR afii57448
ENCODING 1608
SWIDTH 480 0
DWIDTH 12 0
BBX 12 16 0 -4
BITMAP
0000
0000
0000
0000
0000
00E0
01F0
0330
03F0
01F0
0030
30E0
1FE0
0F80
0000
0000
ENDCHAR
STARTCHAR afii57449
ENCODING 1609
SWIDTH 480 0
DWIDTH 12 0
BBX 12 16 0 -4
BITMAP
0000
0000
0000
0000
0060
00F0
01D0
4180
81E0
C060
E0E0
7FC0
3F80
0000
0000
0000
ENDCHAR
STARTCHAR afii57450
ENCODING 1610
SWIDTH 480 0
DWIDTH 12 0
BBX 12 16 0 -4
BITMAP
0000
0000
0000
0000
0060
00F0
01D0
4180
81E0
C060
E0E0
7FC0
3F80
0900
1F80
0900
ENDCHAR
STARTCHAR afii57457
ENCODING 1617
SWIDTH 480 0
DWIDTH 12 0
BBX 12 16 0 -4
BITMAP
0920
0BA0
0EE0
0000
0000
0000
0000
0000
0000
0000
0000
0000
0000
0000
0000
0000
ENDCHAR
STARTCHAR afii57392
ENCODING 1632
SWIDTH 480 0
DWIDTH 12 0
BBX 12 16 0 -4
BITMAP
0000
0000
0000
0000
0000
0000
0000
0600
0F00
0600
0000
0000
0000
0000
0000
0000
ENDCHAR
STARTCHAR afii57393
ENCODING 1633
SWIDTH 480 0
DWIDTH 12 0
BBX 12 16 0 -4
BITMAP
0000
0000
0000
0400
0E00
0E00
0600
0700
0300
0300
0300
0200
0000
0000
0000
0000
ENDCHAR
STARTCHAR afii57394
ENCODING 1634
SWIDTH 480 0
DWIDTH 12 0
BBX 12 16 0 -4
BITMAP
0000
0000
0000
1080
3980
3F00
1E00
1C00
0C00
0C00
0C00
0800
0000
0000
0000
0000
ENDCHAR
STARTCHAR afii57395
ENCODING 1635
SWIDTH 480 0
DWIDTH 12 0
BBX 12 16 0 -4
BITMAP
0000
0000
0000
1140
3B40
3FC0
1E80
0C00
0C00
0C00
0C00
0800
0000
0000
0000
0000
ENDCHAR
STARTCHAR afii57396
ENCODING 1636
SWIDTH 480 0
DWIDTH 12 0
BBX 12 16 0 -4
BITMAP
0000
0000
0000
0600
0C00
1800
0C00
0600
0C00
1800
1F80
0F00
0000
0000
0000
0000
ENDCHAR
STARTCHAR afii57397
ENCODING 1637
SWIDTH 480 0
DWIDTH 12 0
BBX 12 16 0 -4
BITMAP
0000
0000
0000
0300
0780
0580
0CC0
08C0
08C0
08C0
0DC0
0780
0000
0000
0000
0000
ENDCHAR
STARTCHAR afii57398
ENCODING 1638
SWIDTH 480 0
DWIDTH 12 0
BBX 12 16 0 -4
BITMAP
0000
0000
0000
0F80
1F80
0180
0180
00C0
00C0
00C0
00C0
0080
0000
0000
0000
0000
ENDCHAR
STARTCHAR afii57399
ENCODING 1639
SWIDTH 480 0
DWIDTH 12 0
BBX 12 16 0 -4
BITMAP
0000
0000
0000
2080
3180
3180
1B00
1B00
0E00
0E00
0400
0400
0000
0000
0000
0000
ENDCHAR
STARTCHAR afii57400
ENCODING 1640
SWIDTH 480 0
DWIDTH 12 0
BBX 12 16 0 -4
BITMAP
0000
0000
0000
0400
0400
0E00
0E00
1B00
1B00
1100
3180
2080
0000
0000
0000
0000
ENDCHAR
STARTCHAR afii57401
ENCODING 1641
SWIDTH 480 0
DWIDTH 12 0
BBX 12 16 0 -4
BITMAP
0000
0000
0000
0C00
1E00
1600
1E00
0E00
0200
0300
0100
0100
0000
0000
0000
0000
ENDCHAR
STARTCHAR afii57381
ENCODING 1642
SWIDTH 480 0
DWIDTH 12 0
BBX 12 16 0 -4
BITMAP
0000
1C00
3600
3660
1CC0
0180
0300
0600
0C00
19C0
3360
0360
01C0
0000
0000
0000
ENDCHAR
STARTCHAR uni066C
ENCODING 1644
SWIDTH 480 0
DWIDTH 12 0
BBX 12 16 0 -4
BITMAP
0000
0000
0000
0000
0000
0100
0300
0600
0700
0300
0000
0000
0000
0000
0000
0000
ENDCHAR
STARTCHAR uni0E01
ENCODING 3585
SWIDTH 480 0
DWIDTH 12 0
BBX 12 16 0 -4
BITMAP
0000
0000
0000
0000
0000
0000
1FC0
3060
1860
3060
3060
3060
0000
0000
0000
0000
ENDCHAR
STARTCHAR uni0E02
ENCODING 3586
SWIDTH 480 0
DWIDTH 12 0
BBX 12 16 0 -4
BITMAP
0000
0000
0000
0000
0000
0000
1E60
35E0
1B60
0660
0660
03C0
0000
0000
0000
0000
ENDCHAR
STARTCHAR uni0E03
ENCODING 3587
SWIDTH 480 0
DWIDTH 12 0
BBX 12 16 0 -4
BITMAP
0000
0000
0000
0000
0000
0000
3360
6DE0
5360
2660
0660
03C0
0000
0000
0000
0000
ENDCHAR
STARTCHAR uni0E04
ENCODING 3588
SWIDTH 480 0
DWIDTH 12 0
BBX 12 16 0 -4
BITMAP
0000
0000
0000
0000
0000
0000
1FC0
3060
3660
3D60
3A60
3060
0000
0000
0000
0000
ENDCHAR
STARTCHAR uni0E05
ENCODING 3589
SWIDTH 480 0
DWIDTH 12 0
BBX 12 16 0 -4
BITMAP
0000
0000
0000
0000
0000
0000
1DC0
3260
3660
3D60
3260
3060
0000
0000
0000
0000
ENDCHAR
STARTCHAR uni0E06
ENCODING 3590
SWIDTH 480 0
DWIDTH 12 0
BBX 12 16 0 -4
BITMAP
0000
0000
0000
0000
0000
0000
3660
6B60
6660
0F60
1BE0
0E60
0000
0000
0000
0000
ENDCHAR
STARTCHAR uni0E07
ENCODING 3591
SWIDTH 480 0
DWIDTH 12 0
BBX 12 16 0 -4
BITMAP
0000
0000
0000
0000
0000
0000
0180
02C0
21C0
30C0
1CC0
07C0
0000
0000
0000
0000
ENDCHAR
STARTCHAR uni0E08
ENCODING 3592
SWIDTH 480 0
DWIDTH 12 0
BBX 12 16 0 -4
BITMAP
0000
0000
0000
0000
0000
0000
1FC0
3060
4660
0B60
05E0
0060
0000
0000
0000
0000
ENDCHAR
STARTCHAR uni0E09
ENCODING 3593
SWIDTH 480 0
DWIDTH 12 0
BBX 12 16 0 -4
BITMAP
0000
0000
0000
0000
0000
0000
7F80
80C0
38C0
58E0
3B60
1CC0
0000
0000
0000
0000
ENDCHAR
STARTCHAR uni0E0A
ENCODING 3594
SWIDTH 480 0
DWIDTH 12 0
BBX 12 16 0 -4
BITMAP
0000
0000
0000
0000
0000
0030
1E60
31C0
2B60
1660
0660
03C0
0000
0000
0000
0000
ENDCHAR
STARTCHAR uni0E0B
ENCODING 3595
SWIDTH 480 0
DWIDTH 12 0
BBX 12 16 0 -4
BITMAP
0000
0000
0000
0000
0000
0030
1B60
35C0
2B60
1660
0660
03C0
0000
0000
0000
0000
ENDCHAR
STARTCHAR uni0E0C
ENCODING 3596
SWIDTH 480 0
DWIDTH 12 0
BBX 12 16 0 -4
BITMAP
0000
0000
0000
0000
0000
0000
3E60
6360
2360
7760
6DE0
3360
0000
0000
0000
0000
ENDCHAR
STARTCHAR uni0E0D
ENCODING 3597
SWIDTH 480 0
DWIDTH 12 0
BBX 12 16 0 -4
BITMAP
0000
0000
0000
0000
0000
0000
3E60
6360
2360
7360
6B60
33E0
0000
03A0
03C0
0000
ENDCHAR
STARTCHAR uni0E0E
ENCODING 3598
SWIDTH 480 0
DWIDTH 12 0
BBX 12 16 0 -4
BITMAP
0000
0000
0000
0000
0000
0000
1F80
30C0
18C0
30C0
58C0
32C0
04C0
0EC0
0DC0
0000
ENDCHAR
STARTCHAR uni0E0F
ENCODING 3599
SWIDTH 480 0
DWIDTH 12 0
BBX 12 16 0 -4
BITMAP
0000
0000
0000
0000
0000
0000
1F80
30C0
18C0
30C0
58C0
32C0
04C0
1FC0
1AC0
0000
ENDCHAR
STARTCHAR uni0E10
ENCODING 3600
SWIDTH 480 0
DWIDTH 12 0
BBX 12 16 0 -4
BITMAP
0000
0000
0000
0000
0000
0000
1F60
3C80
0780
04C0
0BC0
04C0
0880
3AC0
15C0
0000
ENDCHAR
STARTCHAR uni0E11
ENCODING 3601
SWIDTH 480 0
DWIDTH 12 0
BBX 12 16 0 -4
BITMAP
0000
0000
0000
0000
0000
0000
36C0
6B60
5660
2C60
0C60
0C60
0000
0000
0000
0000
ENDCHAR
STARTCHAR uni0E12
ENCODING 3602
SWIDTH 480 0
DWIDTH 12 0
BBX 12 16 0 -4
BITMAP
0000
0000
0000
0000
0000
0000
3660
6B60
6B60
7760
6BE0
7360
0000
0000
0000
0000
ENDCHAR
STARTCHAR uni0E13
ENCODING 3603
SWIDTH 480 0
DWIDTH 12 0
BBX 12 16 0 -4
BITMAP
0000
0000
0000
0000
0000
0000
1E60
3360
1360
3360
2BD0
3360
0000
0000
0000
0000
ENDCHAR
STARTCHAR uni0E14
ENCODING 3604
SWIDTH 480 0
DWIDTH 12 0
BBX 12 16 0 -4
BITMAP
0000
0000
0000
0000
0000
0000
1FC0
3060
3660
3B60
3660
1C60
0000
0000
0000
0000
ENDCHAR
STARTCHAR uni0E15
ENCODING 3605
SWIDTH 480 0
DWIDTH 12 0
BBX 12 16 0 -4
BITMAP
0000
0000
0000
0000
0000
0000
1CC0
3360
3660
3B60
3660
1C60
0000
0000
0000
0000
ENDCHAR
STARTCHAR uni0E16
ENCODING 3606
SWIDTH 480 0
DWIDTH 12 0
BBX 12 16 0 -4
BITMAP
0000
0000
0000
0000
0000
0000
1FC0
3060
1C60
3860
3460
1860
0000
0000
0000
0000
ENDCHAR
STARTCHAR uni0E17
ENCODING 3607
SWIDTH 480 0
DWIDTH 12 0
BBX 12 16 0 -4
BITMAP
0000
0000
0000
0000
0000
0000
18C0
2560
1A60
1C60
1860
1860
0000
0000
0000
0000
ENDCHAR
STARTCHAR uni0E18
ENCODING 3608
SWIDTH 480 0
DWIDTH 12 0
BBX 12 16 0 -4
BITMAP
0000
0000
0000
0000
0000
0000
1F40
3880
07C0
30C0
30C0
3FC0
0000
0000
0000
0000
ENDCHAR
STARTCHAR uni0E19
ENCODING 3609
SWIDTH 480 0
DWIDTH 12 0
BBX 12 16 0 -4
BITMAP
0000
0000
0000
0000
0000
0000
30C0
58C0
38C0
18E0
1BA0
1CC0
0000
0000
0000
0000
ENDCHAR
STARTCHAR uni0E1A
ENCODING 3610
SWIDTH 480 0
DWIDTH 12 0
BBX 12 16 0 -4
BITMAP
0000
0000
0000
0000
0000
0000
3060
5860
3860
1860
1860
1FE0
0000
0000
0000
0000
ENDCHAR
STARTCHAR uni0E1B
ENCODING 3611
SWIDTH 480 0
DWIDTH 12 0
BBX 12 16 0 -4
BITMAP
0000
0000
0000
0000
0000
0060
3060
5860
3860
1860
1860
1FE0
0000
0000
0000
0000
ENDCHAR
STARTCHAR uni0E1C
ENCODING 3612
SWIDTH 480 0
DWIDTH 12 0
BBX 12 16 0 -4
BITMAP
0000
0000
0000
0000
0000
0000
1860
3460
3860
3260
3760
38E0
0000
0000
0000
0000
ENDCHAR
STARTCHAR uni0E1D
ENCODING 3613
SWIDTH 480 0
DWIDTH 12 0
BBX 12 16 0 -4
BITMAP
0000
0000
0000
0000
0000
0060
1860
3460
3860
3260
3760
38E0
0000
0000
0000
0000
ENDCHAR
STARTCHAR uni0E1E
ENCODING 3614
SWIDTH 480 0
DWIDTH 12 0
BBX 12 16 0 -4
BITMAP
0000
0000
0000
0000
0000
0000
3060
5860
3260
3560
38E0
3060
0000
0000
0000
0000
ENDCHAR
STARTCHAR uni0E1F
ENCODING 3615
SWIDTH 480 0
DWIDTH 12 0
BBX 12 16 0 -4
BITMAP
0000
0000
0000
0000
0000
0060
3060
5860
3260
3560
38E0
3060
0000
0000
0000
0000
ENDCHAR
STARTCHAR uni0E20
ENCODING 3616
SWIDTH 480 0
DWIDTH 12 0
BBX 12 16 0 -4
BITMAP
0000
0000
0000
0000
0000
0000
1FC0
30E0
1860
3060
5860
3060
0000
0000
0000
0000
ENDCHAR
STARTCHAR uni0E21
ENCODING 3617
SWIDTH 480 0
DWIDTH 12 0
BBX 12 16 0 -4
BITMAP
0000
0000
0000
0000
0000
0000
1860
2C60
1860
3C60
2B60
18E0
0000
0000
0000
0000
ENDCHAR
STARTCHAR uni0E22
ENCODING 3618
SWIDTH 480 0
DWIDTH 12 0
BBX 12 16 0 -4
BITMAP
0000
0000
0000
0000
0000
0000
1860
3460
3960
1E60
3060
3FE0
0000
0000
0000
0000
ENDCHAR
STARTCHAR uni0E23
ENCODING 3619
SWIDTH 480 0
DWIDTH 12 0
BBX 12 16 0 -4
BITMAP
0000
0000
0000
0000
0000
0000
0F40
1880
1F00
00C0
0140
00C0
0000
0000
0000
0000
ENDCHAR
STARTCHAR uni0E24
ENCODING 3620
SWIDTH 480 0
DWIDTH 12 0
BBX 12 16 0 -4
BITMAP
0000
0000
0000
0000
0000
0000
1FC0
3060
1860
3860
3460
1860
0060
0000
0000
0000
ENDCHAR
STARTCHAR uni0E25
ENCODING 3621
SWIDTH 480 0
DWIDTH 12 0
BBX 12 16 0 -4
BITMAP
0000
0000
0000
0000
0000
0000
1F80
20C0
1EC0
39C0
34C0
18C0
0000
0000
0000
0000
ENDCHAR
STARTCHAR uni0E26
ENCODING 3622
SWIDTH 480 0
DWIDTH 12 0
BBX 12 16 0 -4
BITMAP
0000
0000
0000
0000
0000
0000
1FC0
30E0
1860
3060
5860
3060
0060
0000
0000
0000
ENDCHAR
STARTCHAR uni0E27
ENCODING 3623
SWIDTH 480 0
DWIDTH 12 0
BBX 12 16 0 -4
BITMAP
0000
0000
0000
0000
0000
0000
1F80
20C0
00C0
01C0
02C0
0180
0000
0000
0000
0000
ENDCHAR
STARTCHAR uni0E28
ENCODING 3624
SWIDTH 480 0
DWIDTH 12 0
BBX 12 16 0 -4
BITMAP
0000
0000
0000
0000
0020
0060
1FC0
3060
3660
3D60
3660
3060
0000
0000
0000
0000
ENDCHAR
STARTCHAR uni0E29
ENCODING 3625
SWIDTH 480 0
DWIDTH 12 0
BBX 12 16 0 -4
BITMAP
0000
0000
0000
0000
0000
0000
3060
5860
3B70
1BE0
1860
1FE0
0000
0000
0000
0000
ENDCHAR
STARTCHAR uni0E2A
ENCODING 3626
SWIDTH 480 0
DWIDTH 12 0
BBX 12 16 0 -4
BITMAP
0000
0000
0000
0000
0040
00C0
1F80
20C0
1EC0
39C0
34C0
18C0
0000
0000
0000
0000
ENDCHAR
STARTCHAR uni0E2B
ENCODING 3627
SWIDTH 480 0
DWIDTH 12 0
BBX 12 16 0 -4
BITMAP
0000
0000
0000
0000
0000
0000
18C0
2DA0
18C0
1B60
1C60
1860
0000
0000
0000
0000
ENDCHAR
STARTCHAR uni0E2C
ENCODING 3628
SWIDTH 480 0
DWIDTH 12 0
BBX 12 16 0 -4
BITMAP
0000
0000
0000
0000
0000
0030
31E0
59E0
3260
3560
38E0
3060
0000
0000
0000
0000
ENDCHAR
STARTCHAR uni0E2D
ENCODING 3629
SWIDTH 480 0
DWIDTH 12 0
BBX 12 16 0 -4
BITMAP
0000
0000
0000
0000
0000
0000
1FC0
2060
1860
3460
3860
3FE0
0000
0000
0000
0000
ENDCHAR
STARTCHAR uni0E2E
ENCODING 3630
SWIDTH 480 0
DWIDTH 12 0
BBX 12 16 0 -4
BITMAP
0000
0000
0000
0000
0000
0060
1FC0
38E0
0F60
3460
3860
3FE0
0000
0000
0000
0000
ENDCHAR
STARTCHAR uni0E2F
ENCODING 3631
SWIDTH 480 0
DWIDTH 12 0
BBX 12 16 0 -4
BITMAP
0000
0000
0000
0000
0000
0000
1860
34E0
3B60
1C60
0060
0060
0000
0000
0000
0000
ENDCHAR
STARTCHAR uni0E30
ENCODING 3632
SWIDTH 480 0
DWIDTH 12 0
BBX 12 16 0 -4
BITMAP
0000
0000
0000
0000
0000
0000
0840
14C0
0F80
0840
14C0
0F80
0000
0000
0000
0000
ENDCHAR
STARTCHAR uni0E31
ENCODING 3633
SWIDTH 480 0
DWIDTH 12 0
BBX 12 16 0 -4
BITMAP
0000
0000
0620
0D60
07C0
0000
0000
0000
0000
0000
0000
0000
0000
0000
0000
0000
ENDCHAR
STARTCHAR uni0E32
ENCODING 3634
SWIDTH 480 0
DWIDTH 12 0
BBX 12 16 0 -4
BITMAP
0000
0000
0000
0000
0000
0000
1F80
30C0
20C0
00C0
00C0
00C0
0000
0000
0000
0000
ENDCHAR
STARTCHAR uni0E33
ENCODING 3635
SWIDTH 480 0
DWIDTH 12 0
BBX 12 16 0 -4
BITMAP
0000
0000
7000
C800
7000
0000
1F80
30C0
20C0
00C0
00C0
00C0
0000
0000
0000
0000
ENDCHAR
STARTCHAR uni0E34
ENCODING 3636
SWIDTH 480 0
DWIDTH 12 0
BBX 12 16 0 -4
BITMAP
0000
0000
0F80
18C0
1FE0
0000
0000
0000
0000
0000
0000
0000
0000
0000
0000
0000
ENDCHAR
STARTCHAR uni0E35
ENCODING 3637
SWIDTH 480 0
DWIDTH 12 0
BBX 12 16 0 -4
BITMAP
0000
0000
0F60
18E0
1FE0
0000
0000
0000
0000
0000
0000
0000
0000
0000
0000
0000
ENDCHAR
STARTCHAR uni0E36
ENCODING 3638
SWIDTH 480 0
DWIDTH 12 0
BBX 12 16 0 -4
BITMAP
0000
0000
0EC0
19A0
1FC0
0000
0000
0000
0000
0000
0000
0000
0000
0000
0000
0000
ENDCHAR
STARTCHAR uni0E37
ENCODING 3639
SWIDTH 480 0
DWIDTH 12 0
BBX 12 16 0 -4
BITMAP
0000
0000
0EA0
19A0
1FE0
0000
0000
0000
0000
0000
0000
0000
0000
0000
0000
0000
ENDCHAR
STARTCHAR uni0E38
ENCODING 3640
SWIDTH 480 0
DWIDTH 12 0
BBX 12 16 0 -4
BITMAP
0000
0000
0000
0000
0000
0000
0000
0000
0000
0000
0000
0000
0000
01C0
00C0
00C0
ENDCHAR
STARTCHAR uni0E39
ENCODING 3641
SWIDTH 480 0
DWIDTH 12 0
BBX 12 16 0 -4
BITMAP
0000
0000
0000
0000
0000
0000
0000
0000
0000
0000
0000
0000
0000
0360
0160
01E0
ENDCHAR
STARTCHAR uni0E3A
ENCODING 3642
SWIDTH 480 0
DWIDTH 12 0
BBX 12 16 0 -4
BITMAP
0000
0000
0000
0000
0000
0000
0000
0000
0000
0000
0000
0000
0000
00E0
00E0
0000
ENDCHAR
STARTCHAR uni0E3F
ENCODING 3647
SWIDTH 480 0
DWIDTH 12 0
BBX 12 16 0 -4
BITMAP
0000
0000
0000
0600
0600
3F80
30C0
30C0
3FC0
3060
3060
3FC0
0600
0600
0000
0000
ENDCHAR
STARTCHAR uni0E40
ENCODING 3648
SWIDTH 480 0
DWIDTH 12 0
BBX 12 16 0 -4
BITMAP
0000
0000
0000
0000
0000
0000
0600
0600
0600
0600
0D00
0600
0000
0000
0000
0000
ENDCHAR
STARTCHAR uni0E41
ENCODING 3649
SWIDTH 480 0
DWIDTH 12 0
BBX 12 16 0 -4
BITMAP
0000
0000
0000
0000
0000
0000
3180
3180
3180
3180
6B40
3180
0000
0000
0000
0000
ENDCHAR
STARTCHAR uni0E42
ENCODING 3650
SWIDTH 480 0
DWIDTH 12 0
BBX 12 16 0 -4
BITMAP
0000
0000
0F20
18C0
3F00
0180
00C0
00C0
00C0
00C0
01A0
00C0
0000
0000
0000
0000
ENDCHAR
STARTCHAR uni0E43
ENCODING 3651
SWIDTH 480 0
DWIDTH 12 0
BBX 12 16 0 -4
BITMAP
0000
0000
07C0
0C60
1260
0CC0
00C0
00C0
00C0
00C0
01A0
00C0
0000
0000
0000
0000
ENDCHAR
STARTCHAR uni0E44
ENCODING 3652
SWIDTH 480 0
DWIDTH 12 0
BBX 12 16 0 -4
BITMAP
0000
0000
21C0
3360
1E60
0CC0
00C0
00C0
00C0
00C0
01A0
00C0
0000
0000
0000
0000
ENDCHAR
STARTCHAR uni0E45
ENCODING 3653
SWIDTH 480 0
DWIDTH 12 0
BBX 12 16 0 -4
BITMAP
0000
0000
0000
0000
0000
0000
1F80
30C0
20C0
00C0
00C0
00C0
00C0
0000
0000
0000
ENDCHAR
STARTCHAR uni0E46
ENCODING 3654
SWIDTH 480 0
DWIDTH 12 0
BBX 12 16 0 -4
BITMAP
0000
0000
0000
0000
0000
0000
1980
36C0
38C0
34C0
18C0
00C0
0180
0000
0000
0000
ENDCHAR
STARTCHAR uni0E47
ENCODING 3655
SWIDTH 480 0
DWIDTH 12 0
BBX 12 16 0 -4
BITMAP
0080
0F00
1880
1D40
1B80
0000
0000
0000
0000
0000
0000
0000
0000
0000
0000
0000
ENDCHAR
STARTCHAR uni0E48
ENCODING 3656
SWIDTH 480 0
DWIDTH 12 0
BBX 12 16 0 -4
BITMAP
0000
0000
00C0
00C0
00C0
0000
0000
0000
0000
0000
0000
0000
0000
0000
0000
0000
ENDCHAR
STARTCHAR uni0E49
ENCODING 3657
SWIDTH 480 0
DWIDTH 12 0
BBX 12 16 0 -4
BITMAP
0000
0000
1CC0
0D80
0F00
0000
0000
0000
0000
0000
0000
0000
0000
0000
0000
0000
ENDCHAR
STARTCHAR uni0E4A
ENCODING 3658
SWIDTH 480 0
DWIDTH 12 0
BBX 12 16 0 -4
BITMAP
0000
0000
1B60
35C0
1980
0000
0000
0000
0000
0000
0000
0000
0000
0000
0000
0000
ENDCHAR
STARTCHAR uni0E4B
ENCODING 3659
SWIDTH 480 0
DWIDTH 12 0
BBX 12 16 0 -4
BITMAP
0000
0000
0180
07E0
0180
0000
0000
0000
0000
0000
0000
0000
0000
0000
0000
0000
ENDCHAR
STARTCHAR uni0E4C
ENCODING 3660
SWIDTH 480 0
DWIDTH 12 0
BBX 12 16 0 -4
BITMAP
0000
00E0
0300
0680
0300
0000
0000
0000
0000
0000
0000
0000
0000
0000
0000
0000
ENDCHAR
STARTCHAR uni0E4D
ENCODING 3661
SWIDTH 480 0
DWIDTH 12 0
BBX 12 16 0 -4
BITMAP
0000
0000
0700
0C80
0700
0000
0000
0000
0000
0000
0000
0000
0000
0000
0000
0000
ENDCHAR
STARTCHAR uni0E4E
ENCODING 3662
SWIDTH 480 0
DWIDTH 12 0
BBX 12 16 0 -4
BITMAP
0000
0180
0340
0600
0300
0000
0000
0000
0000
0000
0000
0000
0000
0000
0000
0000
ENDCHAR
STARTCHAR uni0E4F
ENCODING 3663
SWIDTH 480 0
DWIDTH 12 0
BBX 12 16 0 -4
BITMAP
0000
0000
0000
0000
0000
1F80
30C0
6F60
6F60
6F60
30C0
1F80
0000
0000
0000
0000
ENDCHAR
STARTCHAR uni0E50
ENCODING 3664
SWIDTH 480 0
DWIDTH 12 0
BBX 12 16 0 -4
BITMAP
0000
0000
0000
0000
0000
0000
1FC0
3060
3060
3060
3060
1FC0
0000
0000
0000
0000
ENDCHAR
STARTCHAR uni0E51
ENCODING 3665
SWIDTH 480 0
DWIDTH 12 0
BBX 12 16 0 -4
BITMAP
0000
0000
0000
0000
0000
0000
1FC0
3060
3C60
3460
1860
0180
0700
0000
0000
0000
ENDCHAR
STARTCHAR uni0E52
ENCODING 3666
SWIDTH 480 0
DWIDTH 12 0
BBX 12 16 0 -4
BITMAP
0000
0000
0000
0000
0000
6000
36E0
3760
3660
3560
3260
3FE0
0000
0000
0000
0000
ENDCHAR
STARTCHAR uni0E53
ENCODING 3667
SWIDTH 480 0
DWIDTH 12 0
BBX 12 16 0 -4
BITMAP
0000
0000
0000
0000
0000
0000
18C0
3760
3260
3860
3460
18C0
0000
0000
0000
0000
ENDCHAR
STARTCHAR uni0E54
ENCODING 3668
SWIDTH 480 0
DWIDTH 12 0
BBX 12 16 0 -4
BITMAP
0000
0000
0000
0000
0000
0060
1FE0
3000
3180
3340
3180
1F60
0000
0000
0000
0000
ENDCHAR
STARTCHAR uni0E55
ENCODING 3669
SWIDTH 480 0
DWIDTH 12 0
BBX 12 16 0 -4
BITMAP
0000
0000
0000
0000
0110
02B0
1FE0
3000
3180
3340
3180
1F60
0000
0000
0000
0000
ENDCHAR
STARTCHAR uni0E56
ENCODING 3670
SWIDTH 480 0
DWIDTH 12 0
BBX 12 16 0 -4
BITMAP
0000
0000
0000
0000
0000
2000
33C0
1C60
1860
0660
0DC0
0700
0000
0000
0000
0000
ENDCHAR
STARTCHAR uni0E57
ENCODING 3671
SWIDTH 480 0
DWIDTH 12 0
BBX 12 16 0 -4
BITMAP
0000
0000
0000
0000
0010
0030
1B30
35B0
35A0
39A0
35C0
1980
0000
0000
0000
0000
ENDCHAR
STARTCHAR uni0E58
ENCODING 3672
SWIDTH 480 0
DWIDTH 12 0
BBX 12 16 0 -4
BITMAP
0000
0000
0000
0000
0000
0060
1FE0
3000
30C0
34A0
36E0
1BC0
0000
0000
0000
0000
ENDCHAR
STARTCHAR uni0E59
ENCODING 3673
SWIDTH 480 0
DWIDTH 12 0
BBX 12 16 0 -4
BITMAP
0000
0000
0000
0000
0000
0060
1B60
36C0
3300
3980
34C0
1860
0000
0000
0000
0000
ENDCHAR
STARTCHAR uni0E5A
ENCODING 3674
SWIDTH 480 0
DWIDTH 12 0
BBX 12 16 0 -4
BITMAP
0000
0000
0000
0000
0000
0000
2360
57E0
5B60
3360
0360
0360
0000
0000
0000
0000
ENDCHAR
STARTCHAR uni0E5B
ENCODING 3675
SWIDTH 480 0
DWIDTH 12 0
BBX 12 16 0 -4
BITMAP
0000
0000
0000
0000
0000
3800
7C00
6000
6500
6740
6DF0
3900
0000
0000
0000
0000
ENDCHAR
STARTCHAR Wgrave
ENCODING 7808
SWIDTH 480 0
DWIDTH 12 0
BBX 12 16 0 -4
BITMAP
1800
0C00
0600
6060
6060
6060
6060
6660
6F60
6960
39C0
30C0
0000
0000
0000
0000
ENDCHAR
STARTCHAR wgrave
ENCODING 7809
SWIDTH 480 0
DWIDTH 12 0
BBX 12 16 0 -4
BITMAP
0000
0600
0300
0180
0000
3060
3060
3260
3260
3760
3DE0
18C0
0000
0000
0000
0000
ENDCHAR
STARTCHAR Wacute
ENCODING 7810
SWIDTH 480 0
DWIDTH 12 0
BBX 12 16 0 -4
BITMAP
0180
0300
0600
6060
6060
6060
6060
6660
6F60
6960
39C0
30C0
0000
0000
0000
0000
ENDCHAR
STARTCHAR wacute
ENCODING 7811
SWIDTH 480 0
DWIDTH 12 0
BBX 12 16 0 -4
BITMAP
0000
0180
0300
0600
0000
3060
3060
3260
3260
3760
3DE0
18C0
0000
0000
0000
0000
ENDCHAR
STARTCHAR Wdieresis
ENCODING 7812
SWIDTH 480 0
DWIDTH 12 0
BBX 12 16 0 -4
BITMAP
1980
1980
0000
6060
6060
6060
6060
6660
6F60
6960
39C0
30C0
0000
0000
0000
0000
ENDCHAR
STARTCHAR wdieresis
ENCODING 7813
SWIDTH 480 0
DWIDTH 12 0
BBX 12 16 0 -4
BITMAP
0000
0000
18C0
18C0
0000
3060
3060
3260
3260
3760
3DE0
18C0
0000
0000
0000
0000
ENDCHAR
STARTCHAR Ygrave
ENCODING 7922
SWIDTH 480 0
DWIDTH 12 0
BBX 12 16 0 -4
BITMAP
0C00
0600
0300
1860
1860
0CC0
0780
0300
0300
0300
0300
0300
0000
0000
0000
0000
ENDCHAR
STARTCHAR ygrave
ENCODING 7923
SWIDTH 480 0
DWIDTH 12 0
BBX 12 16 0 -4
BITMAP
0000
0600
0300
0180
0000
3060
3060
3060
3060
3060
18E0
0F60
0060
10C0
0F80
0000
ENDCHAR
STARTCHAR endash
ENCODING 8211
SWIDTH 480 0
DWIDTH 12 0
BBX 12 16 0 -4
BITMAP
0000
0000
0000
0000
0000
0000
0000
1FC0
0000
0000
0000
0000
0000
0000
0000
0000
ENDCHAR
STARTCHAR emdash
ENCODING 8212
SWIDTH 480 0
DWIDTH 12 0
BBX 12 16 0 -4
BITMAP
0000
0000
0000
0000
0000
0000
0000
3FE0
0000
0000
0000
0000
0000
0000
0000
0000
ENDCHAR
STARTCHAR underscoredbl
ENCODING 8215
SWIDTH 480 0
DWIDTH 12 0
BBX 12 16 0 -4
BITMAP
0000
0000
0000
0000
0000
0000
0000
0000
0000
0000
0000
FFF0
0000
FFF0
0000
0000
ENDCHAR
STARTCHAR quoteleft
ENCODING 8216
SWIDTH 480 0
DWIDTH 12 0
BBX 12 16 0 -4
BITMAP
0000
0300
0400
0600
0600
0000
0000
0000
0000
0000
0000
0000
0000
0000
0000
0000
ENDCHAR
STARTCHAR quoteright
ENCODING 8217
SWIDTH 480 0
DWIDTH 12 0
BBX 12 16 0 -4
BITMAP
0000
0600
0600
0200
0C00
0000
0000
0000
0000
0000
0000
0000
0000
0000
0000
0000
ENDCHAR
STARTCHAR quotesinglbase
ENCODING 8218
SWIDTH 480 0
DWIDTH 12 0
BBX 12 16 0 -4
BITMAP
0000
0000
0000
0000
0000
0000
0000
0000
0000
0000
0300
0300
0100
0600
0000
0000
ENDCHAR
STARTCHAR quotedblleft
ENCODING 8220
SWIDTH 480 0
DWIDTH 12 0
BBX 12 16 0 -4
BITMAP
0000
0CC0
1100
1980
1980
0000
0000
0000
0000
0000
0000
0000
0000
0000
0000
0000
ENDCHAR
STARTCHAR quotedblright
ENCODING 8221
SWIDTH 480 0
DWIDTH 12 0
BBX 12 16 0 -4
BITMAP
0000
1980
1980
0880
3300
0000
0000
0000
0000
0000
0000
0000
0000
0000
0000
0000
ENDCHAR
STARTCHAR quotedblbase
ENCODING 8222
SWIDTH 480 0
DWIDTH 12 0
BBX 12 16 0 -4
BITMAP
0000
0000
0000
0000
0000
0000
0000
0000
0000
0000
0CC0
0CC0
0440
1980
0000
0000
ENDCHAR
STARTCHAR dagger
ENCODING 8224
SWIDTH 480 0
DWIDTH 12 0
BBX 12 16 0 -4
BITMAP
0000
0000
0300
0300
0FC0
0300
0300
0300
0300
0300
0300
0300
0300
0000
0000
0000
ENDCHAR
STARTCHAR daggerdbl
ENCODING 8225
SWIDTH 480 0
DWIDTH 12 0
BBX 12 16 0 -4
BITMAP
0000
0000
0300
0300
0FC0
0300
0300
0FC0
0300
0300
0300
0300
0300
0000
0000
0000
ENDCHAR
STARTCHAR bullet
ENCODING 8226
SWIDTH 480 0
DWIDTH 12 0
BBX 12 16 0 -4
BITMAP
0000
0000
0000
0000
0000
0F00
1F80
1F80
1F80
1F80
0F00
0000
0000
0000
0000
0000
ENDCHAR
STARTCHAR ellipsis
ENCODING 8230
SWIDTH 480 0
DWIDTH 12 0
BBX 12 16 0 -4
BITMAP
0000
0000
0000
0000
0000
0000
0000
0000
0000
0000
3330
3330
0000
0000
0000
0000
ENDCHAR
STARTCHAR perthousand
ENCODING 8240
SWIDTH 480 0
DWIDTH 12 0
BBX 12 16 0 -4
BITMAP
1C00
3600
3640
1CC0
0180
0300
0600
0C00
1800
1000
0FC0
1B60
1B60
0FC0
0000
0000
ENDCHAR
STARTCHAR guilsinglleft
ENCODING 8249
SWIDTH 480 0
DWIDTH 12 0
BBX 12 16 0 -4
BITMAP
0000
0000
0000
0000
0180
0300
0600
0C00
0600
0300
0180
0000
0000
0000
0000
0000
ENDCHAR
STARTCHAR guilsinglright
ENCODING 8250
SWIDTH 480 0
DWIDTH 12 0
BBX 12 16 0 -4
BITMAP
0000
0000
0000
0000
0C00
0600
0300
0180
0300
0600
0C00
0000
0000
0000
0000
0000
ENDCHAR
STARTCHAR exclamdbl
ENCODING 8252
SWIDTH 480 0
DWIDTH 12 0
BBX 12 16 0 -4
BITMAP
0000
0000
18C0
18C0
18C0
18C0
18C0
18C0
18C0
0000
18C0
18C0
0000
0000
0000
0000
ENDCHAR
STARTCHAR fraction
ENCODING 8260
SWIDTH 480 0
DWIDTH 12 0
BBX 12 16 0 -4
BITMAP
0000
0000
0000
0040
00C0
0180
0300
0600
0C00
1800
1000
0000
0000
0000
0000
0000
ENDCHAR
STARTCHAR uni207F
ENCODING 8319
SWIDTH 480 0
DWIDTH 12 0
BBX 12 16 0 -4
BITMAP
0000
1B80
1CC0
18C0
18C0
18C0
18C0
0000
0000
0000
0000
0000
0000
0000
0000
0000
ENDCHAR
STARTCHAR peseta
ENCODING 8359
SWIDTH 480 0
DWIDTH 12 0
BBX 12 16 0 -4
BITMAP
0000
0000
7C00
6600
6600
6600
7C80
6180
63E0
6180
6180
60E0
0000
0000
0000
0000
ENDCHAR
STARTCHAR afii57636
ENCODING 8362
SWIDTH 480 0
DWIDTH 12 0
BBX 12 16 0 -4
BITMAP
0000
0000
3F30
7FB0
61B0
6DB0
6DB0
6DB0
6DB0
6C30
6FF0
67E0
0000
0000
0000
0000
ENDCHAR
STARTCHAR Euro
ENCODING 8364
SWIDTH 480 0
DWIDTH 12 0
BBX 12 16 0 -4
BITMAP
0000
0000
07C0
0C60
1800
7FC0
1800
7F80
1800
1800
0C60
07C0
0000
0000
0000
0000
ENDCHAR
STARTCHAR afii61289
ENCODING 8467
SWIDTH 480 0
DWIDTH 12 0
BBX 12 16 0 -4
BITMAP
0000
0000
0F00
1980
1980
1980
1980
1980
0D80
0700
1FE0
39E0
0000
0000
0000
0000
ENDCHAR
STARTCHAR afii61352
ENCODING 8470
SWIDTH 480 0
DWIDTH 12 0
BBX 12 16 0 -4
BITMAP
0000
0000
66E0
67B0
77B0
77B0
7EE0
7E00
6FF0
6E00
6600
6600
0000
0000
0000
0000
ENDCHAR
STARTCHAR trademark
ENCODING 8482
SWIDTH 480 0
DWIDTH 12 0
BBX 12 16 0 -4
BITMAP
0000
0000
3A20
1360
12A0
1220
0000
0000
0000
0000
0000
0000
0000
0000
0000
0000
ENDCHAR
STARTCHAR arrowleft
ENCODING 8592
SWIDTH 480 0
DWIDTH 12 0
BBX 12 16 0 -4
BITMAP
0000
0000
0000
0000
0800
1800
3000
7FE0
3000
1800
0800
0000
0000
0000
0000
0000
ENDCHAR
STARTCHAR arrowup
ENCODING 8593
SWIDTH 480 0
DWIDTH 12 0
BBX 12 16 0 -4
BITMAP
0000
0000
0200
0700
0F80
1AC0
0200
0200
0200
0200
0200
0200
0000
0000
0000
0000
ENDCHAR
STARTCHAR arrowright
ENCODING 8594
SWIDTH 480 0
DWIDTH 12 0
BBX 12 16 0 -4
BITMAP
0000
0000
0000
0000
0100
0180
00C0
7FE0
00C0
0180
0100
0000
0000
0000
0000
0000
ENDCHAR
STARTCHAR arrowdown
ENCODING 8595
SWIDTH 480 0
DWIDTH 12 0
BBX 12 16 0 -4
BITMAP
0000
0000
0200
0200
0200
0200
0200
0200
1AC0
0F80
0700
0200
0000
0000
0000
0000
ENDCHAR
STARTCHAR arrowboth
ENCODING 8596
SWIDTH 480 0
DWIDTH 12 0
BBX 12 16 0 -4
BITMAP
0000
0000
0000
0000
0880
18C0
3060
7FF0
3060
18C0
0880
0000
0000
0000
0000
0000
ENDCHAR
STARTCHAR arrowupdn
ENCODING 8597
SWIDTH 480 0
DWIDTH 12 0
BBX 12 16 0 -4
BITMAP
0000
0000
0200
0700
0F80
1AC0
0200
0200
1AC0
0F80
0700
0200
0000
0000
0000
0000
ENDCHAR
STARTCHAR arrowupdnbse
ENCODING 8616
SWIDTH 480 0
DWIDTH 12 0
BBX 12 16 0 -4
BITMAP
0000
0000
0200
0700
0F80
1AC0
0200
0200
1AC0
0F80
0700
0200
0000
1F80
0000
0000
ENDCHAR
STARTCHAR uni2219
ENCODING 8729
SWIDTH 480 0
DWIDTH 12 0
BBX 12 16 0 -4
BITMAP
0000
0000
0000
0000
0000
0000
0700
0700
0700
0000
0000
0000
0000
0000
0000
0000
ENDCHAR
STARTCHAR radical
ENCODING 8730
SWIDTH 480 0
DWIDTH 12 0
BBX 12 16 0 -4
BITMAP
0000
03E0
0300
0300
0300
0300
0300
3300
1B00
0F00
0700
0300
0100
0000
0000
0000
ENDCHAR
STARTCHAR infinity
ENCODING 8734
SWIDTH 480 0
DWIDTH 12 0
BBX 12 16 0 -4
BITMAP
0000
0000
0000
0000
39C0
6660
6660
6660
6660
39C0
0000
0000
0000
0000
0000
0000
ENDCHAR
STARTCHAR orthogonal
ENCODING 8735
SWIDTH 480 0
DWIDTH 12 0
BBX 12 16 0 -4
BITMAP
0000
0000
0000
0000
1800
1800
1800
1800
1800
1800
1FC0
0000
0000
0000
0000
0000
ENDCHAR
STARTCHAR intersection
ENCODING 8745
SWIDTH 480 0
DWIDTH 12 0
BBX 12 16 0 -4
BITMAP
0000
0000
0F80
18C0
3060
3060
3060
3060
3060
3060
3060
3060
0000
0000
0000
0000
ENDCHAR
STARTCHAR integral
ENCODING 8747
SWIDTH 480 0
DWIDTH 12 0
BBX 12 16 0 -4
BITMAP
0000
03C0
0660
0660
0600
0600
0600
0600
0600
0600
0600
6600
6600
3C00
0000
0000
ENDCHAR
STARTCHAR approxequal
ENCODING 8776
SWIDTH 480 0
DWIDTH 12 0
BBX 12 16 0 -4
BITMAP
0000
0000
0000
0000
0E20
1B60
11C0
0000
0E20
1B60
11C0
0000
0000
0000
0000
0000
ENDCHAR
STARTCHAR notequal
ENCODING 8800
SWIDTH 480 0
DWIDTH 12 0
BBX 12 16 0 -4
BITMAP
0000
0000
0000
0080
0100
3FC0
0200
0400
3FC0
0800
1000
0000
0000
0000
0000
0000
ENDCHAR
STARTCHAR equivalence
ENCODING 8801
SWIDTH 480 0
DWIDTH 12 0
BBX 12 16 0 -4
BITMAP
0000
0000
0000
0000
1FC0
0000
0000
1FC0
0000
0000
1FC0
0000
0000
0000
0000
0000
ENDCHAR
STARTCHAR lessequal
ENCODING 8804
SWIDTH 480 0
DWIDTH 12 0
BBX 12 16 0 -4
BITMAP
0000
0000
00C0
0380
0E00
3800
0E00
0380
00C0
0000
3FC0
0000
0000
0000
0000
0000
ENDCHAR
STARTCHAR greaterequal
ENCODING 8805
SWIDTH 480 0
DWIDTH 12 0
BBX 12 16 0 -4
BITMAP
0000
0000
3000
1C00
0700
01C0
0700
1E00
3000
0000
3FC0
0000
0000
0000
0000
0000
ENDCHAR
STARTCHAR house
ENCODING 8962
SWIDTH 480 0
DWIDTH 12 0
BBX 12 16 0 -4
BITMAP
0000
0000
0000
0000
0200
0700
0D80
18C0
3060
3060
3060
3FE0
0000
0000
0000
0000
ENDCHAR
STARTCHAR revlogicalnot
ENCODING 8976
SWIDTH 480 0
DWIDTH 12 0
BBX 12 16 0 -4
BITMAP
0000
0000
0000
0000
0000
1FC0
1800
1800
1800
1800
0000
0000
0000
0000
0000
0000
ENDCHAR
STARTCHAR uni2318
ENCODING 8984
SWIDTH 480 0
DWIDTH 12 0
BBX 12 16 0 -4
BITMAP
0000
0000
70E0
9990
9990
7FE0
1980
1980
7FE0
9990
9990
70E0
0000
0000
0000
0000
ENDCHAR
STARTCHAR uni2319
ENCODING 8985
SWIDTH 480 0
DWIDTH 12 0
BBX 12 16 0 -4
BITMAP
0000
0000
0000
0000
1800
1800
1800
1800
1800
1800
1FC0
0000
0000
0000
0000
0000
ENDCHAR
STARTCHAR integraltp
ENCODING 8992
SWIDTH 480 0
DWIDTH 12 0
BBX 12 16 0 -4
BITMAP
0000
03C0
0660
0660
0600
0600
0600
0600
0600
0600
0600
0600
0600
0600
0600
0600
ENDCHAR
STARTCHAR integralbt
ENCODING 8993
SWIDTH 480 0
DWIDTH 12 0
BBX 12 16 0 -4
BITMAP
0600
0600
0600
0600
0600
0600
0600
0600
0600
0600
0600
0600
6600
6600
3C00
0000
ENDCHAR
STARTCHAR SF100000
ENCODING 9472
SWIDTH 480 0
DWIDTH 12 0
BBX 12 16 0 -4
BITMAP
0000
0000
0000
0000
0000
0000
0000
FFF0
0000
0000
0000
0000
0000
0000
0000
0000
ENDCHAR
STARTCHAR SF110000
ENCODING 9474
SWIDTH 480 0
DWIDTH 12 0
BBX 12 16 0 -4
BITMAP
0600
0600
0600
0600
0600
0600
0600
0600
0600
0600
0600
0600
0600
0600
0600
0600
ENDCHAR
STARTCHAR SF010000
ENCODING 9484
SWIDTH 480 0
DWIDTH 12 0
BBX 12 16 0 -4
BITMAP
0000
0000
0000
0000
0000
0000
0000
07F0
0600
0600
0600
0600
0600
0600
0600
0600
ENDCHAR
STARTCHAR SF030000
ENCODING 9488
SWIDTH 480 0
DWIDTH 12 0
BBX 12 16 0 -4
BITMAP
0000
0000
0000
0000
0000
0000
0000
FE00
0600
0600
0600
0600
0600
0600
0600
0600
ENDCHAR
STARTCHAR SF020000
ENCODING 9492
SWIDTH 480 0
DWIDTH 12 0
BBX 12 16 0 -4
BITMAP
0600
0600
0600
0600
0600
0600
0600
07F0
0000
0000
0000
0000
0000
0000
0000
0000
ENDCHAR
STARTCHAR SF040000
ENCODING 9496
SWIDTH 480 0
DWIDTH 12 0
BBX 12 16 0 -4
BITMAP
0600
0600
0600
0600
0600
0600
0600
FE00
0000
0000
0000
0000
0000
0000
0000
0000
ENDCHAR
STARTCHAR SF080000
ENCODING 9500
SWIDTH 480 0
DWIDTH 12 0
BBX 12 16 0 -4
BITMAP
0600
0600
0600
0600
0600
0600
0600
07F0
0600
0600
0600
0600
0600
0600
0600
0600
ENDCHAR
STARTCHAR SF090000
ENCODING 9508
SWIDTH 480 0
DWIDTH 12 0
BBX 12 16 0 -4
BITMAP
0600
0600
0600
0600
0600
0600
0600
FE00
0600
0600
0600
0600
0600
0600
0600
0600
ENDCHAR
STARTCHAR SF060000
ENCODING 9516
SWIDTH 480 0
DWIDTH 12 0
BBX 12 16 0 -4
BITMAP
0000
0000
0000
0000
0000
0000
0000
FFF0
0600
0600
0600
0600
0600
0600
0600
0600
ENDCHAR
STARTCHAR SF070000
ENCODING 9524
SWIDTH 480 0
DWIDTH 12 0
BBX 12 16 0 -4
BITMAP
0600
0600
0600
0600
0600
0600
0600
FFF0
0000
0000
0000
0000
0000
0000
0000
0000
ENDCHAR
STARTCHAR SF050000
ENCODING 9532
SWIDTH 480 0
DWIDTH 12 0
BBX 12 16 0 -4
BITMAP
0600
0600
0600
0600
0600
0600
0600
FFF0
0600
0600
0600
0600
0600
0600
0600
0600
ENDCHAR
STARTCHAR SF430000
ENCODING 9552
SWIDTH 480 0
DWIDTH 12 0
BBX 12 16 0 -4
BITMAP
0000
0000
0000
0000
0000
0000
FFF0
0000
FFF0
0000
0000
0000
0000
0000
0000
0000
ENDCHAR
STARTCHAR SF240000
ENCODING 9553
SWIDTH 480 0
DWIDTH 12 0
BBX 12 16 0 -4
BITMAP
1980
1980
1980
1980
1980
1980
1980
1980
1980
1980
1980
1980
1980
1980
1980
1980
ENDCHAR
STARTCHAR SF510000
ENCODING 9554
SWIDTH 480 0
DWIDTH 12 0
BBX 12 16 0 -4
BITMAP
0000
0000
0000
0000
0000
0000
07F0
0600
07F0
0600
0600
0600
0600
0600
0600
0600
ENDCHAR
STARTCHAR SF520000
ENCODING 9555
SWIDTH 480 0
DWIDTH 12 0
BBX 12 16 0 -4
BITMAP
0000
0000
0000
0000
0000
0000
0000
1FF0
1980
1980
1980
1980
1980
1980
1980
1980
ENDCHAR
STARTCHAR SF390000
ENCODING 9556
SWIDTH 480 0
DWIDTH 12 0
BBX 12 16 0 -4
BITMAP
0000
0000
0000
0000
0000
0000
1FF0
1800
19F0
1980
1980
1980
1980
1980
1980
1980
ENDCHAR
STARTCHAR SF220000
ENCODING 9557
SWIDTH 480 0
DWIDTH 12 0
BBX 12 16 0 -4
BITMAP
0000
0000
0000
0000
0000
0000
FE00
0600
FE00
0600
0600
0600
0600
0600
0600
0600
ENDCHAR
STARTCHAR SF210000
ENCODING 9558
SWIDTH 480 0
DWIDTH 12 0
BBX 12 16 0 -4
BITMAP
0000
0000
0000
0000
0000
0000
0000
FF80
1980
1980
1980
1980
1980
1980
1980
1980
ENDCHAR
STARTCHAR SF250000
ENCODING 9559
SWIDTH 480 0
DWIDTH 12 0
BBX 12 16 0 -4
BITMAP
0000
0000
0000
0000
0000
0000
FF80
0180
F980
1980
1980
1980
1980
1980
1980
1980
ENDCHAR
STARTCHAR SF500000
ENCODING 9560
SWIDTH 480 0
DWIDTH 12 0
BBX 12 16 0 -4
BITMAP
0600
0600
0600
0600
0600
0600
0600
07F0
0600
07F0
0000
0000
0000
0000
0000
0000
ENDCHAR
STARTCHAR SF490000
ENCODING 9561
SWIDTH 480 0
DWIDTH 12 0
BBX 12 16 0 -4
BITMAP
1980
1980
1980
1980
1980
1980
1980
1FF0
0000
0000
0000
0000
0000
0000
0000
0000
ENDCHAR
STARTCHAR SF380000
ENCODING 9562
SWIDTH 480 0
DWIDTH 12 0
BBX 12 16 0 -4
BITMAP
1980
1980
1980
1980
1980
1980
19F0
1800
1FF0
0000
0000
0000
0000
0000
0000
0000
ENDCHAR
STARTCHAR SF280000
ENCODING 9563
SWIDTH 480 0
DWIDTH 12 0
BBX 12 16 0 -4
BITMAP
0600
0600
0600
0600
0600
0600
FE00
0600
FE00
0000
0000
0000
0000
0000
0000
0000
ENDCHAR
STARTCHAR SF270000
ENCODING 9564
SWIDTH 480 0
DWIDTH 12 0
BBX 12 16 0 -4
BITMAP
1980
1980
1980
1980
1980
1980
1980
FF80
0000
0000
0000
0000
0000
0000
0000
0000
ENDCHAR
STARTCHAR SF260000
ENCODING 9565
SWIDTH 480 0
DWIDTH 12 0
BBX 12 16 0 -4
BITMAP
1980
1980
1980
1980
1980
1980
F980
0180
FF80
0000
0000
0000
0000
0000
0000
0000
ENDCHAR
STARTCHAR SF360000
ENCODING 9566
SWIDTH 480 0
DWIDTH 12 0
BBX 12 16 0 -4
BITMAP
0600
0600
0600
0600
0600
0600
07F0
0600
07F0
0600
0600
0600
0600
0600
0600
0600
ENDCHAR
STARTCHAR SF370000
ENCODING 9567
SWIDTH 480 0
DWIDTH 12 0
BBX 12 16 0 -4
BITMAP
1980
1980
1980
1980
1980
1980
1980
19F0
1980
1980
1980
1980
1980
1980
1980
1980
ENDCHAR
STARTCHAR SF420000
ENCODING 9568
SWIDTH 480 0
DWIDTH 12 0
BBX 12 16 0 -4
BITMAP
1980
1980
1980
1980
1980
1980
19F0
1800
19F0
1980
1980
1980
1980
1980
1980
1980
ENDCHAR
STARTCHAR SF190000
ENCODING 9569
SWIDTH 480 0
DWIDTH 12 0
BBX 12 16 0 -4
BITMAP
0600
0600
0600
0600
0600
0600
FE00
0600
FE00
0600
0600
0600
0600
0600
0600
0600
ENDCHAR
STARTCHAR SF200000
ENCODING 9570
SWIDTH 480 0
DWIDTH 12 0
BBX 12 16 0 -4
BITMAP
1980
1980
1980
1980
1980
1980
1980
F980
1980
1980
1980
1980
1980
1980
1980
1980
ENDCHAR
STARTCHAR SF230000
ENCODING 9571
SWIDTH 480 0
DWIDTH 12 0
BBX 12 16 0 -4
BITMAP
1980
1980
1980
1980
1980
1980
F980
0180
F980
1980
1980
1980
1980
1980
1980
1980
ENDCHAR
STARTCHAR SF470000
ENCODING 9572
SWIDTH 480 0
DWIDTH 12 0
BBX 12 16 0 -4
BITMAP
0000
0000
0000
0000
0000
0000
FFF0
0000
FFF0
0600
0600
0600
0600
0600
0600
0600
ENDCHAR
STARTCHAR SF480000
ENCODING 9573
SWIDTH 480 0
DWIDTH 12 0
BBX 12 16 0 -4
BITMAP
0000
0000
0000
0000
0000
0000
0000
FFF0
1980
1980
1980
1980
1980
1980
1980
1980
ENDCHAR
STARTCHAR SF410000
ENCODING 9574
SWIDTH 480 0
DWIDTH 12 0
BBX 12 16 0 -4
BITMAP
0000
0000
0000
0000
0000
0000
FFF0
0000
F9F0
1980
1980
1980
1980
1980
1980
1980
ENDCHAR
STARTCHAR SF450000
ENCODING 9575
SWIDTH 480 0
DWIDTH 12 0
BBX 12 16 0 -4
BITMAP
0600
0600
0600
0600
0600
0600
FFF0
0000
FFF0
0000
0000
0000
0000
0000
0000
0000
ENDCHAR
STARTCHAR SF460000
ENCODING 9576
SWIDTH 480 0
DWIDTH 12 0
BBX 12 16 0 -4
BITMAP
1980
1980
1980
1980
1980
1980
1980
FFF0
0000
0000
0000
0000
0000
0000
0000
0000
ENDCHAR
STARTCHAR SF400000
ENCODING 9577
SWIDTH 480 0
DWIDTH 12 0
BBX 12 16 0 -4
BITMAP
1980
1980
1980
1980
1980
1980
F9F0
0000
FFF0
0000
0000
0000
0000
0000
0000
0000
ENDCHAR
STARTCHAR SF540000
ENCODING 9578
SWIDTH 480 0
DWIDTH 12 0
BBX 12 16 0 -4
BITMAP
0600
0600
0600
0600
0600
0600
FFF0
0600
FFF0
0600
0600
0600
0600
0600
0600
0600
ENDCHAR
STARTCHAR SF530000
ENCODING 9579
SWIDTH 480 0
DWIDTH 12 0
BBX 12 16 0 -4
BITMAP
1980
1980
1980
1980
1980
1980
1980
FFF0
1980
1980
1980
1980
1980
1980
1980
1980
ENDCHAR
STARTCHAR SF440000
ENCODING 9580
SWIDTH 480 0
DWIDTH 12 0
BBX 12 16 0 -4
BITMAP
1980
1980
1980
1980
1980
1980
F9F0
0000
F9F0
1980
1980
1980
1980
1980
1980
1980
ENDCHAR
STARTCHAR upblock
ENCODING 9600
SWIDTH 480 0
DWIDTH 12 0
BBX 12 16 0 -4
BITMAP
FFF0
FFF0
FFF0
FFF0
FFF0
FFF0
FFF0
FFF0
0000
0000
0000
0000
0000
0000
0000
0000
ENDCHAR
STARTCHAR dnblock
ENCODING 9604
SWIDTH 480 0
DWIDTH 12 0
BBX 12 16 0 -4
BITMAP
0000
0000
0000
0000
0000
0000
0000
0000
FFF0
FFF0
FFF0
FFF0
FFF0
FFF0
FFF0
FFF0
ENDCHAR
STARTCHAR block
ENCODING 9608
SWIDTH 480 0
DWIDTH 12 0
BBX 12 16 0 -4
BITMAP
FFF0
FFF0
FFF0
FFF0
FFF0
FFF0
FFF0
FFF0
FFF0
FFF0
FFF0
FFF0
FFF0
FFF0
FFF0
FFF0
ENDCHAR
STARTCHAR lfblock
ENCODING 9612
SWIDTH 480 0
DWIDTH 12 0
BBX 12 16 0 -4
BITMAP
FC00
FC00
FC00
FC00
FC00
FC00
FC00
FC00
FC00
FC00
FC00
FC00
FC00
FC00
FC00
FC00
ENDCHAR
STARTCHAR rtblock
ENCODING 9616
SWIDTH 480 0
DWIDTH 12 0
BBX 12 16 0 -4
BITMAP
03F0
03F0
03F0
03F0
03F0
03F0
03F0
03F0
03F0
03F0
03F0
03F0
03F0
03F0
03F0
03F0
ENDCHAR
STARTCHAR ltshade
ENCODING 9617
SWIDTH 480 0
DWIDTH 12 0
BBX 12 16 0 -4
BITMAP
1110
4440
1110
4440
1110
4440
1110
4440
1110
4440
1110
4440
1110
4440
1110
4440
ENDCHAR
STARTCHAR shade
ENCODING 9618
SWIDTH 480 0
DWIDTH 12 0
BBX 12 16 0 -4
BITMAP
AAA0
5550
AAA0
5550
AAA0
5550
AAA0
5550
AAA0
5550
AAA0
5550
AAA0
5550
AAA0
5550
ENDCHAR
STARTCHAR dkshade
ENCODING 9619
SWIDTH 480 0
DWIDTH 12 0
BBX 12 16 0 -4
BITMAP
7770
DDD0
7770
DDD0
7770
DDD0
7770
DDD0
7770
DDD0
7770
DDD0
7770
DDD0
7770
DDD0
ENDCHAR
STARTCHAR filledbox
ENCODING 9632
SWIDTH 480 0
DWIDTH 12 0
BBX 12 16 0 -4
BITMAP
0000
0000
0000
0000
0F80
0F80
0F80
0F80
0F80
0000
0000
0000
0000
0000
0000
0000
ENDCHAR
STARTCHAR H22073
ENCODING 9633
SWIDTH 480 0
DWIDTH 12 0
BBX 12 16 0 -4
BITMAP
0000
0000
3FC0
2040
2040
2040
2040
2040
2040
2040
2040
3FC0
0000
0000
0000
0000
ENDCHAR
STARTCHAR filledrect
ENCODING 9644
SWIDTH 480 0
DWIDTH 12 0
BBX 12 16 0 -4
BITMAP
0000
0000
0000
0000
0000
1FC0
1FC0
1FC0
1FC0
0000
0000
0000
0000
0000
0000
0000
ENDCHAR
STARTCHAR triagup
ENCODING 9650
SWIDTH 480 0
DWIDTH 12 0
BBX 12 16 0 -4
BITMAP
0000
0000
0000
0000
0000
0200
0700
0F80
1FC0
3FE0
0000
0000
0000
0000
0000
0000
ENDCHAR
STARTCHAR triagrt
ENCODING 9658
SWIDTH 480 0
DWIDTH 12 0
BBX 12 16 0 -4
BITMAP
0000
0000
0000
0800
0C00
0E00
0F00
0F80
0F00
0E00
0C00
0800
0000
0000
0000
0000
ENDCHAR
STARTCHAR triagdn
ENCODING 9660
SWIDTH 480 0
DWIDTH 12 0
BBX 12 16 0 -4
BITMAP
0000
0000
0000
0000
0000
3FE0
1FC0
0F80
0700
0200
0000
0000
0000
0000
0000
0000
ENDCHAR
STARTCHAR triaglf
ENCODING 9668
SWIDTH 480 0
DWIDTH 12 0
BBX 12 16 0 -4
BITMAP
0000
0000
0000
0100
0300
0700
0F00
1F00
0F00
0700
0300
0100
0000
0000
0000
0000
ENDCHAR
STARTCHAR circle
ENCODING 9675
SWIDTH 480 0
DWIDTH 12 0
BBX 12 16 0 -4
BITMAP
0000
0000
0000
0700
18C0
1040
2020
2020
2020
1040
18C0
0700
0000
0000
0000
0000
ENDCHAR
STARTCHAR H18533
ENCODING 9679
SWIDTH 480 0
DWIDTH 12 0
BBX 12 16 0 -4
BITMAP
0000
0000
0000
0000
0000
0F00
1F80
1F80
1F80
1F80
0F00
0000
0000
0000
0000
0000
ENDCHAR
STARTCHAR invbullet
ENCODING 9688
SWIDTH 480 0
DWIDTH 12 0
BBX 12 16 0 -4
BITMAP
FFF0
FFF0
FFF0
FFF0
FFF0
F0F0
E070
E070
E070
E070
F0F0
FFF0
FFF0
FFF0
FFF0
FFF0
ENDCHAR
STARTCHAR invcircle
ENCODING 9689
SWIDTH 480 0
DWIDTH 12 0
BBX 12 16 0 -4
BITMAP
FFF0
FFF0
FFF0
F8F0
E730
EFB0
DFD0
DFD0
DFD0
EFB0
E730
F8F0
FFF0
FFF0
FFF0
FFF0
ENDCHAR
STARTCHAR smileface
ENCODING 9786
SWIDTH 480 0
DWIDTH 12 0
BBX 12 16 0 -4
BITMAP
0000
0000
0F00
30C0
2040
48A0
59A0
4020
59A0
4F20
2040
30C0
0F00
0000
0000
0000
ENDCHAR
STARTCHAR invsmileface
ENCODING 9787
SWIDTH 480 0
DWIDTH 12 0
BBX 12 16 0 -4
BITMAP
0000
0000
0F00
3FC0
3FC0
7760
6660
7FE0
7FE0
6660
30C0
3FC0
0F00
0000
0000
0000
ENDCHAR
STARTCHAR sun
ENCODING 9788
SWIDTH 480 0
DWIDTH 12 0
BBX 12 16 0 -4
BITMAP
0000
0000
0200
2220
1FC0
18C0
1040
3060
1040
18C0
1FC0
2220
0200
0000
0000
0000
ENDCHAR
STARTCHAR female
ENCODING 9792
SWIDTH 480 0
DWIDTH 12 0
BBX 12 16 0 -4
BITMAP
0000
0000
1F80
30C0
30C0
30C0
30C0
1F80
0600
0600
1F80
0600
0600
0000
0000
0000
ENDCHAR
STARTCHAR male
ENCODING 9794
SWIDTH 480 0
DWIDTH 12 0
BBX 12 16 0 -4
BITMAP
0000
0000
03E0
00E0
01A0
0320
3E00
6300
6300
6300
6300
3E00
0000
0000
0000
0000
ENDCHAR
STARTCHAR spade
ENCODING 9824
SWIDTH 480 0
DWIDTH 12 0
BBX 12 16 0 -4
BITMAP
0000
0000
0200
0700
0F80
1FC0
3FE0
3FE0
3FE0
1AC0
0200
0F80
0000
0000
0000
0000
ENDCHAR
STARTCHAR uni2662
ENCODING 9826
SWIDTH 480 0
DWIDTH 12 0
BBX 12 16 0 -4
BITMAP
0000
0000
0600
0F00
1980
30C0
6060
6060
30C0
1980
0F00
0600
0000
0000
0000
0000
ENDCHAR
STARTCHAR club
ENCODING 9827
SWIDTH 480 0
DWIDTH 12 0
BBX 12 16 0 -4
BITMAP
0000
0000
0700
0F80
0F80
0700
1AC0
3FE0
3DE0
1AC0
0200
0F80
0000
0000
0000
0000
ENDCHAR
STARTCHAR heart
ENCODING 9829
SWIDTH 480 0
DWIDTH 12 0
BBX 12 16 0 -4
BITMAP
0000
0000
0000
0000
1DC0
3FE0
3FE0
3FE0
1FC0
0F80
0700
0200
0000
0000
0000
0000
ENDCHAR
STARTCHAR diamond
ENCODING 9830
SWIDTH 480 0
DWIDTH 12 0
BBX 12 16 0 -4
BITMAP
0000
0000
0000
0200
0700
0F80
1FC0
3FE0
1FC0
0F80
0700
0200
0000
0000
0000
0000
ENDCHAR
STARTCHAR musicalnote
ENCODING 9834
SWIDTH 480 0
DWIDTH 12 0
BBX 12 16 0 -4
BITMAP
0000
0400
0600
0700
0780
06C0
0600
0600
0600
1E00
3E00
3C00
3800
0000
0000
0000
ENDCHAR
STARTCHAR musicalnotedbl
ENCODING 9835
SWIDTH 480 0
DWIDTH 12 0
BBX 12 16 0 -4
BITMAP
0000
1FE0
1FE0
1FE0
1860
1860
1860
1860
1860
1860
38E0
79E0
71C0
0000
0000
0000
ENDCHAR
STARTCHAR uniFB00
ENCODING 64256
SWIDTH 480 0
DWIDTH 12 0
BBX 12 16 0 -4
BITMAP
0000
0000
1CF0
3180
3180
FFF0
3180
3180
3180
3180
3180
3180
0000
0000
0000
0000
ENDCHAR
STARTCHAR uniFB01
ENCODING 64257
SWIDTH 480 0
DWIDTH 12 0
BBX 12 16 0 -4
BITMAP
0000
0000
07C0
0C00
0C00
3FE0
0C60
0C60
0C60
0C60
0C60
0C60
0000
0000
0000
0000
ENDCHAR
STARTCHAR uniFB02
ENCODING 64258
SWIDTH 480 0
DWIDTH 12 0
BBX 12 16 0 -4
BITMAP
0000
0000
07E0
0C60
0C60
3F60
0C60
0C60
0C60
0C60
0C60
0C60
0000
0000
0000
0000
ENDCHAR
STARTCHAR uniFB03
ENCODING 64259
SWIDTH 480 0
DWIDTH 12 0
BBX 12 16 0 -4
BITMAP
0000
0000
1DE0
3300
3300
FFF0
3330
3330
3330
3330
3330
3330
0000
0000
0000
0000
ENDCHAR
STARTCHAR uniFB04
ENCODING 64260
SWIDTH 480 0
DWIDTH 12 0
BBX 12 16 0 -4
BITMAP
0000
0000
1DF0
3330
3330
FFF0
3330
3330
3330
3330
3330
3330
0000
0000
0000
0000
ENDCHAR
STARTCHAR uniFE7C
ENCODING 65148
SWIDTH 480 0
DWIDTH 12 0
BBX 12 16 0 -4
BITMAP
0920
0BA0
0EE0
0000
0000
0000
0000
0000
0000
0000
0000
0000
0000
0000
0000
0000
ENDCHAR
STARTCHAR uniFE7D
ENCODING 65149
SWIDTH 480 0
DWIDTH 12 0
BBX 12 16 0 -4
BITMAP
0920
0BA0
0EE0
0000
0000
0000
0000
0000
FFF0
FFF0
0000
0000
0000
0000
0000
0000
ENDCHAR
STARTCHAR uniFE80
ENCODING 65152
SWIDTH 480 0
DWIDTH 12 0
BBX 12 16 0 -4
BITMAP
0000
0000
0000
0000
0380
0780
0D80
0E60
07C0
0F00
1C00
0000
0000
0000
0000
0000
ENDCHAR
STARTCHAR uniFE81
ENCODING 65153
SWIDTH 480 0
DWIDTH 12 0
BBX 12 16 0 -4
BITMAP
0D00
1200
0000
0200
0700
0600
0600
0600
0600
0600
0400
0000
0000
0000
0000
0000
ENDCHAR
STARTCHAR uniFE82
ENCODING 65154
SWIDTH 480 0
DWIDTH 12 0
BBX 12 16 0 -4
BITMAP
0D00
1200
0400
0C00
0C00
0C00
0C00
0C00
0FF0
07F0
0000
0000
0000
0000
0000
0000
ENDCHAR
STARTCHAR uniFE83
ENCODING 65155
SWIDTH 480 0
DWIDTH 12 0
BBX 12 16 0 -4
BITMAP
1800
3000
1C00
3200
0700
0600
0600
0600
0600
0600
0400
0000
0000
0000
0000
0000
ENDCHAR
STARTCHAR uniFE84
ENCODING 65156
SWIDTH 480 0
DWIDTH 12 0
BBX 12 16 0 -4
BITMAP
3000
6000
3800
6400
0C00
0C00
0C00
0C00
0FF0
07F0
0000
0000
0000
0000
0000
0000
ENDCHAR
STARTCHAR uniFE85
ENCODING 65157
SWIDTH 480 0
DWIDTH 12 0
BBX 12 16 0 -4
BITMAP
0000
0600
0C00
0700
0C00
00E0
01F0
0330
03F0
01F0
0030
30E0
1FE0
0F80
0000
0000
ENDCHAR
STARTCHAR uniFE8B
ENCODING 65163
SWIDTH 480 0
DWIDTH 12 0
BBX 12 16 0 -4
BITMAP
0000
0000
0300
0600
0380
0620
0070
0030
FFF0
FFE0
0000
0000
0000
0000
0000
0000
ENDCHAR
STARTCHAR uniFE8D
ENCODING 65165
SWIDTH 480 0
DWIDTH 12 0
BBX 12 16 0 -4
BITMAP
0000
0200
0700
0600
0600
0600
0600
0600
0600
0600
0400
0000
0000
0000
0000
0000
ENDCHAR
STARTCHAR uniFE8E
ENCODING 65166
SWIDTH 480 0
DWIDTH 12 0
BBX 12 16 0 -4
BITMAP
0000
0400
0C00
0C00
0C00
0C00
0C00
0C00
0FF0
07F0
0000
0000
0000
0000
0000
0000
ENDCHAR
STARTCHAR uniFE8F
ENCODING 65167
SWIDTH 480 0
DWIDTH 12 0
BBX 12 16 0 -4
BITMAP
0000
0000
0000
0000
0000
4020
8070
C030
FFF0
7FE0
0000
0200
0700
0200
0000
0000
ENDCHAR
STARTCHAR uniFE91
ENCODING 65169
SWIDTH 480 0
DWIDTH 12 0
BBX 12 16 0 -4
BITMAP
0000
0000
0000
0000
0000
0020
0070
0030
FFF0
FFE0
0000
0100
0380
0100
0000
0000
ENDCHAR
STARTCHAR uniFE93
ENCODING 65171
SWIDTH 480 0
DWIDTH 12 0
BBX 12 16 0 -4
BITMAP
0240
07E0
0240
0000
03C0
03E0
06F0
0730
07F0
03F0
0000
0000
0000
0000
0000
0000
ENDCHAR
STARTCHAR uniFE95
ENCODING 65173
SWIDTH 480 0
DWIDTH 12 0
BBX 12 16 0 -4
BITMAP
0000
0000
0000
0900
1F80
4920
8070
C030
FFF0
7FE0
0000
0000
0000
0000
0000
0000
ENDCHAR
STARTCHAR uniFE97
ENCODING 65175
SWIDTH 480 0
DWIDTH 12 0
BBX 12 16 0 -4
BITMAP
0000
0000
0000
0900
1F80
0920
0070
0030
FFF0
FFE0
0000
0000
0000
0000
0000
0000
ENDCHAR
STARTCHAR uniFE99
ENCODING 65177
SWIDTH 480 0
DWIDTH 12 0
BBX 12 16 0 -4
BITMAP
0400
0E00
0400
0900
1F80
4920
8070
C030
FFF0
7FE0
0000
0000
0000
0000
0000
0000
ENDCHAR
STARTCHAR uniFE9B
ENCODING 65179
SWIDTH 480 0
DWIDTH 12 0
BBX 12 16 0 -4
BITMAP
0400
0E00
0400
0900
1F80
0920
0070
0030
FFF0
FFE0
0000
0000
0000
0000
0000
0000
ENDCHAR
STARTCHAR uniFE9D
ENCODING 65181
SWIDTH 480 0
DWIDTH 12 0
BBX 12 16 0 -4
BITMAP
0000
0000
0000
0000
0000
0000
7E00
FFF0
8FF0
3800
6100
C380
C100
E030
7FE0
3FC0
ENDCHAR
STARTCHAR uniFE9F
ENCODING 65183
SWIDTH 480 0
DWIDTH 12 0
BBX 12 16 0 -4
BITMAP
0000
0000
0000
0000
0000
0F00
1FC0
01F0
FFF0
FF80
0000
0200
0700
0200
0000
0000
ENDCHAR
STARTCHAR uniFEA1
ENCODING 65185
SWIDTH 480 0
DWIDTH 12 0
BBX 12 16 0 -4
BITMAP
0000
0000
0000
0000
0000
0000
7E00
FFF0
8FF0
3800
6000
C000
C000
E030
7FE0
3FC0
ENDCHAR
STARTCHAR uniFEA3
ENCODING 65187
SWIDTH 480 0
DWIDTH 12 0
BBX 12 16 0 -4
BITMAP
0000
0000
0000
0000
0000
0F00
1FC0
01F0
FFF0
FF80
0000
0000
0000
0000
0000
0000
ENDCHAR
STARTCHAR uniFEA5
ENCODING 65189
SWIDTH 480 0
DWIDTH 12 0
BBX 12 16 0 -4
BITMAP
0000
0000
0400
0E00
0400
0000
7E00
FFF0
8FF0
3800
6000
C000
C000
E030
7FE0
3FC0
ENDCHAR
STARTCHAR uniFEA7
ENCODING 65191
SWIDTH 480 0
DWIDTH 12 0
BBX 12 16 0 -4
BITMAP
0000
0200
0700
0200
0000
0F00
1FC0
01F0
FFF0
FF80
0000
0000
0000
0000
0000
0000
ENDCHAR
STARTCHAR uniFEA9
ENCODING 65193
SWIDTH 480 0
DWIDTH 12 0
BBX 12 16 0 -4
BITMAP
0000
0000
0000
0000
0060
00E0
0070
0430
07F0
07E0
0000
0000
0000
0000
0000
0000
ENDCHAR
STARTCHAR uniFEAB
ENCODING 65195
SWIDTH 480 0
DWIDTH 12 0
BBX 12 16 0 -4
BITMAP
0000
0100
0380
0100
0060
00E0
0070
0430
07F0
07E0
0000
0000
0000
0000
0000
0000
ENDCHAR
STARTCHAR uniFEAD
ENCODING 65197
SWIDTH 480 0
DWIDTH 12 0
BBX 12 16 0 -4
BITMAP
0000
0000
0000
0000
0000
0000
0020
0070
0070
0030
0030
30E0
1FE0
0F80
0000
0000
ENDCHAR
STARTCHAR uniFEAF
ENCODING 65199
SWIDTH 480 0
DWIDTH 12 0
BBX 12 16 0 -4
BITMAP
0000
0000
0000
0080
01C0
0080
0020
0070
0070
0030
0030
30E0
1FE0
0F80
0000
0000
ENDCHAR
STARTCHAR uniFEB1
ENCODING 65201
SWIDTH 480 0
DWIDTH 12 0
BBX 12 16 0 -4
BITMAP
0000
0000
0000
0000
0000
1020
3970
39B0
1FF0
1EE0
1800
3800
F000
E000
0000
0000
ENDCHAR
STARTCHAR uniFEB3
ENCODING 65203
SWIDTH 480 0
DWIDTH 12 0
BBX 12 16 0 -4
BITMAP
0000
0000
0000
0000
0000
0030
0970
19B0
FFF0
EEE0
0000
0000
0000
0000
0000
0000
ENDCHAR
STARTCHAR uniFEB5
ENCODING 65205
SWIDTH 480 0
DWIDTH 12 0
BBX 12 16 0 -4
BITMAP
0200
0700
0680
0FC0
0480
1020
3970
39B0
1FF0
1EE0
1800
3800
F000
E000
0000
0000
ENDCHAR
STARTCHAR uniFEB7
ENCODING 65207
SWIDTH 480 0
DWIDTH 12 0
BBX 12 16 0 -4
BITMAP
0200
0700
0680
0FC0
0480
0030
0970
19B0
FFF0
EEE0
0000
0000
0000
0000
0000
0000
ENDCHAR
STARTCHAR uniFEB9
ENCODING 65209
SWIDTH 480 0
DWIDTH 12 0
BBX 12 16 0 -4
BITMAP
0000
0000
0000
0000
0000
10E0
39F0
3F30
1FF0
1FE0
1800
3800
F000
E000
0000
0000
ENDCHAR
STARTCHAR uniFEBB
ENCODING 65211
SWIDTH 480 0
DWIDTH 12 0
BBX 12 16 0 -4
BITMAP
0000
0000
0000
0000
0000
00E0
11F0
3730
FFF0
FFE0
0000
0000
0000
0000
0000
0000
ENDCHAR
STARTCHAR uniFEBD
ENCODING 65213
SWIDTH 480 0
DWIDTH 12 0
BBX 12 16 0 -4
BITMAP
0000
0000
0200
0700
0200
10E0
39F0
3F30
1FF0
1FE0
1800
3800
F000
E000
0000
0000
ENDCHAR
STARTCHAR uniFEBF
ENCODING 65215
SWIDTH 480 0
DWIDTH 12 0
BBX 12 16 0 -4
BITMAP
0000
0000
0200
0700
0200
00E0
11F0
3730
FFF0
FFE0
0000
0000
0000
0000
0000
0000
ENDCHAR
STARTCHAR uniFEC1
ENCODING 65217
SWIDTH 480 0
DWIDTH 12 0
BBX 12 16 0 -4
BITMAP
0000
0800
1C00
1800
1800
18E0
19F0
1F30
FFF0
FFE0
0000
0000
0000
0000
0000
0000
ENDCHAR
STARTCHAR uniFEC5
ENCODING 65221
SWIDTH 480 0
DWIDTH 12 0
BBX 12 16 0 -4
BITMAP
0100
0B80
1D00
1800
1800
18E0
19F0
1F30
FFF0
FFE0
0000
0000
0000
0000
0000
0000
ENDCHAR
STARTCHAR uniFEC9
ENCODING 65225
SWIDTH 480 0
DWIDTH 12 0
BBX 12 16 0 -4
BITMAP
0000
0000
0000
0000
0700
0F80
18C0
1C00
0FE0
3F80
6000
C000
C000
E030
7FE0
3FC0
ENDCHAR
STARTCHAR uniFECA
ENCODING 65226
SWIDTH 480 0
DWIDTH 12 0
BBX 12 16 0 -4
BITMAP
0000
0000
0000
0000
3F80
3FC0
39C0
1F80
0FF0
39F0
6000
C000
C000
E030
7FE0
3FC0
ENDCHAR
STARTCHAR uniFECB
ENCODING 65227
SWIDTH 480 0
DWIDTH 12 0
BBX 12 16 0 -4
BITMAP
0000
0000
0000
0000
0380
07C0
0C60
0E00
FFF0
FFE0
0000
0000
0000
0000
0000
0000
ENDCHAR
STARTCHAR uniFECC
ENCODING 65228
SWIDTH 480 0
DWIDTH 12 0
BBX 12 16 0 -4
BITMAP
0000
0000
0000
0000
1FC0
1FE0
1CE0
0FC0
FFF0
FCF0
0000
0000
0000
0000
0000
0000
ENDCHAR
STARTCHAR uniFECD
ENCODING 65229
SWIDTH 480 0
DWIDTH 12 0
BBX 12 16 0 -4
BITMAP
0200
0700
0200
0000
0700
0F80
18C0
1C00
0FE0
3F80
6000
C000
C000
E030
7FE0
3FC0
ENDCHAR
STARTCHAR uniFECE
ENCODING 65230
SWIDTH 480 0
DWIDTH 12 0
BBX 12 16 0 -4
BITMAP
0400
0E00
0400
0000
3F80
3FC0
39C0
1F80
0FF0
39F0
6000
C000
C000
E030
7FE0
3FC0
ENDCHAR
STARTCHAR uniFECF
ENCODING 65231
SWIDTH 480 0
DWIDTH 12 0
BBX 12 16 0 -4
BITMAP
0200
0700
0200
0000
0380
07C0
0C60
0E00
FFF0
FFE0
0000
0000
0000
0000
0000
0000
ENDCHAR
STARTCHAR uniFED0
ENCODING 65232
SWIDTH 480 0
DWIDTH 12 0
BBX 12 16 0 -4
BITMAP
0200
0700
0200
0000
1FC0
1FE0
1CE0
0FC0
FFF0
FCF0
0000
0000
0000
0000
0000
0000
ENDCHAR
STARTCHAR uniFED1
ENCODING 65233
SWIDTH 480 0
DWIDTH 12 0
BBX 12 16 0 -4
BITMAP
0100
0380
0100
0000
00E0
41F0
81B0
C0F0
FFF0
7FF0
0000
0000
0000
0000
0000
0000
ENDCHAR
STARTCHAR uniFED3
ENCODING 65235
SWIDTH 480 0
DWIDTH 12 0
BBX 12 16 0 -4
BITMAP
0100
0380
0100
0000
00E0
01F0
01B0
00F0
FFF0
FFE0
0000
0000
0000
0000
0000
0000
ENDCHAR
STARTCHAR uniFED5
ENCODING 65237
SWIDTH 480 0
DWIDTH 12 0
BBX 12 16 0 -4
BITMAP
0000
0120
03F0
0120
0000
00E0
01F0
2330
43F0
61F0
6030
70E0
3FE0
1F80
0000
0000
ENDCHAR
STARTCHAR uniFED7
ENCODING 65239
SWIDTH 480 0
DWIDTH 12 0
BBX 12 16 0 -4
BITMAP
0120
03F0
0120
0000
00E0
01F0
01B0
00F0
FFF0
FFE0
0000
0000
0000
0000
0000
0000
ENDCHAR
STARTCHAR uniFED9
ENCODING 65241
SWIDTH 480 0
DWIDTH 12 0
BBX 12 16 0 -4
BITMAP
0000
0010
0030
0630
0C30
4730
8C30
C030
FFF0
7FE0
0000
0000
0000
0000
0000
0000
ENDCHAR
STARTCHAR uniFEDB
ENCODING 65243
SWIDTH 480 0
DWIDTH 12 0
BBX 12 16 0 -4
BITMAP
0000
0030
00E0
01C0
0380
01C0
00E0
0070
FFF0
FFE0
0000
0000
0000
0000
0000
0000
ENDCHAR
STARTCHAR uniFEDD
ENCODING 65245
SWIDTH 480 0
DWIDTH 12 0
BBX 12 16 0 -4
BITMAP
0000
0010
0030
0030
0030
0030
0030
2030
4030
6030
6030
70E0
3FE0
1F80
0000
0000
ENDCHAR
STARTCHAR uniFEDF
ENCODING 65247
SWIDTH 480 0
DWIDTH 12 0
BBX 12 16 0 -4
BITMAP
0000
0010
0030
0030
0030
0030
0030
0030
FFF0
FFE0
0000
0000
0000
0000
0000
0000
ENDCHAR
STARTCHAR uniFEE1
ENCODING 65249
SWIDTH 480 0
DWIDTH 12 0
BBX 12 16 0 -4
BITMAP
0000
0000
0000
0000
0000
01C0
03E0
00E0
07F0
0FF0
0C00
0C00
0C00
0600
0600
0400
ENDCHAR
STARTCHAR uniFEE3
ENCODING 65251
SWIDTH 480 0
DWIDTH 12 0
BBX 12 16 0 -4
BITMAP
0000
0000
0000
0000
0000
0000
00E0
01F0
FF30
FFB0
01F0
00E0
0000
0000
0000
0000
ENDCHAR
STARTCHAR uniFEE5
ENCODING 65253
SWIDTH 480 0
DWIDTH 12 0
BBX 12 16 0 -4
BITMAP
0000
0000
0200
0700
0200
0020
0070
2070
4030
6030
6030
70E0
3FE0
1F80
0000
0000
ENDCHAR
STARTCHAR uniFEE7
ENCODING 65255
SWIDTH 480 0
DWIDTH 12 0
BBX 12 16 0 -4
BITMAP
0000
0000
0000
0100
0380
0120
0070
0030
FFF0
FFE0
0000
0000
0000
0000
0000
0000
ENDCHAR
STARTCHAR uniFEE9
ENCODING 65257
SWIDTH 480 0
DWIDTH 12 0
BBX 12 16 0 -4
BITMAP
0000
0000
0000
0000
03C0
03E0
06F0
0730
07F0
03F0
0000
0000
0000
0000
0000
0000
ENDCHAR
STARTCHAR uniFEEB
ENCODING 65259
SWIDTH 480 0
DWIDTH 12 0
BBX 12 16 0 -4
BITMAP
0000
0000
0000
0E00
1F80
1FC0
0BE0
1B70
FE30
FFF0
03E0
0000
0000
0000
0000
0000
ENDCHAR
STARTCHAR uniFEEC
ENCODING 65260
SWIDTH 480 0
DWIDTH 12 0
BBX 12 16 0 -4
BITMAP
0000
0000
0100
0180
03C0
07C0
06C0
0D80
FFF0
FFF0
19C0
1F80
0F00
0000
0000
0000
ENDCHAR
STARTCHAR uniFEED
ENCODING 65261
SWIDTH 480 0
DWIDTH 12 0
BBX 12 16 0 -4
BITMAP
0000
0000
0000
0000
0000
00E0
01F0
0330
03F0
01F0
0030
30E0
1FE0
0F80
0000
0000
ENDCHAR
STARTCHAR uniFEEF
ENCODING 65263
SWIDTH 480 0
DWIDTH 12 0
BBX 12 16 0 -4
BITMAP
0000
0000
0000
0000
0060
00F0
01D0
4180
81E0
C060
E0E0
7FC0
3F80
0000
0000
0000
ENDCHAR
STARTCHAR uniFEF0
ENCODING 65264
SWIDTH 480 0
DWIDTH 12 0
BBX 12 16 0 -4
BITMAP
0000
0000
0000
0000
0000
0000
0000
4100
83F0
C3F0
E0F0
7FC0
3F80
0000
0000
0000
ENDCHAR
STARTCHAR uniFEF1
ENCODING 65265
SWIDTH 480 0
DWIDTH 12 0
BBX 12 16 0 -4
BITMAP
0000
0000
0000
0000
0060
00F0
01D0
4180
81E0
C060
E0E0
7FC0
3F80
0900
1F80
0900
ENDCHAR
STARTCHAR uniFEF2
ENCODING 65266
SWIDTH 480 0
DWIDTH 12 0
BBX 12 16 0 -4
BITMAP
0000
0000
0000
0000
0000
0000
0000
4100
83F0
C3F0
E0F0
7FC0
3F80
0900
1F80
0900
ENDCHAR
STARTCHAR uniFEF3
ENCODING 65267
SWIDTH 480 0
DWIDTH 12 0
BBX 12 16 0 -4
BITMAP
0000
0000
0000
0000
0000
0020
0070
0030
FFF0
FFE0
0000
0480
0FC0
0480
0000
0000
ENDCHAR
STARTCHAR uniFEF5
ENCODING 65269
SWIDTH 480 0
DWIDTH 12 0
BBX 12 16 0 -4
BITMAP
1A00
2430
0030
3820
3E20
17A0
01E0
0040
03A0
0FE0
0FC0
0000
0000
0000
0000
0000
ENDCHAR
STARTCHAR uniFEF6
ENCODING 65270
SWIDTH 480 0
DWIDTH 12 0
BBX 12 16 0 -4
BITMAP
1A00
2410
0030
3830
3C30
1630
0330
0170
03D0
3F90
0000
0000
0000
0000
0000
0000
ENDCHAR
STARTCHAR uniFEF7
ENCODING 65271
SWIDTH 480 0
DWIDTH 12 0
BBX 12 16 0 -4
BITMAP
0300
0630
03B0
3E20
3E20
17A0
01E0
0040
03A0
0FE0
0FC0
0000
0000
0000
0000
0000
ENDCHAR
STARTCHAR uniFEF8
ENCODING 65272
SWIDTH 480 0
DWIDTH 12 0
BBX 12 16 0 -4
BITMAP
0600
0C10
0730
3C30
3C30
1630
0330
0170
03D0
3F90
0000
0000
0000
0000
0000
0000
ENDCHAR
STARTCHAR uniFEFB
ENCODING 65275
SWIDTH 480 0
DWIDTH 12 0
BBX 12 16 0 -4
BITMAP
0000
0030
0030
3820
3E20
17A0
01E0
0040
03A0
0FE0
0FC0
0000
0000
0000
0000
0000
ENDCHAR
STARTCHAR uniFEFC
ENCODING 65276
SWIDTH 480 0
DWIDTH 12 0
BBX 12 16 0 -4
BITMAP
0000
0010
0030
3830
3C30
1630
0330
0170
03D0
3F90
0000
0000
0000
0000
0000
0000
ENDCHAR
ENDFONT
